<svg width="91" height="91" viewBox="0 0 91 91" fill="none" xmlns="http://www.w3.org/2000/svg">
<g clip-path="url(#clip0_1349_28869)">
<path d="M34.125 22.75V31.6652C33.6931 31.4142 33.2026 31.2818 32.7031 31.2813H29.8594V28.4375C25.807 28.6366 22.9064 22.8922 22.75 22.75C18.4844 28.4375 9.95313 28.4375 9.95313 28.4375V31.2813H7.10938C6.60988 31.2818 6.11938 31.4142 5.6875 31.6652V21.3281C5.68709 19.8342 5.98103 18.3549 6.55253 16.9746C7.12404 15.5944 7.9619 14.3402 9.01824 13.2839C10.0746 12.2275 11.3287 11.3897 12.709 10.8182C14.0893 10.2467 15.5686 9.95272 17.0625 9.95313H21.3281C22.0753 9.95212 22.8153 10.0985 23.5058 10.384C24.1963 10.6695 24.8237 11.0884 25.3521 11.6167C25.8804 12.145 26.2993 12.7724 26.5847 13.4629C26.8702 14.1534 27.0166 14.8935 27.0156 15.6406C28.9009 15.6413 30.7088 16.3905 32.042 17.7237C33.3751 19.0568 34.1243 20.8647 34.125 22.75Z" fill="#343544"/>
<path d="M28.4375 29.8594H32.7031C33.4573 29.8594 34.1807 30.159 34.714 30.6923C35.2473 31.2256 35.5469 31.9489 35.5469 32.7031V35.5469C35.5469 36.3011 35.2473 37.0244 34.714 37.5577C34.1807 38.091 33.4573 38.3906 32.7031 38.3906H28.4375V29.8594Z" fill="#EAC2B9"/>
<path d="M11.375 38.3906H7.10938C6.35517 38.3906 5.63185 38.091 5.09854 37.5577C4.56523 37.0244 4.26562 36.3011 4.26562 35.5469L4.26563 32.7031C4.26563 31.9489 4.56523 31.2256 5.09854 30.6923C5.63185 30.159 6.35517 29.8594 7.10938 29.8594H11.375L11.375 38.3906Z" fill="#EAC2B9"/>
<path d="M25.5938 43.709V52.6099L19.9062 56.8755L14.2188 52.6099V43.709C15.8861 44.8751 17.8716 45.5005 19.9062 45.5005C21.9409 45.5005 23.9264 44.8751 25.5938 43.709Z" fill="#EAC2B9"/>
<path d="M58.0694 42.6563C57.6919 42.655 57.3179 42.7285 56.9689 42.8725C56.6199 43.0165 56.3029 43.2281 56.0361 43.4952L41.2344 58.2969L31.2812 54.0313L25.5938 51.1875L19.9062 55.4531L14.2188 51.1875L8.53125 54.0313L4.18316 56.6401C3.34097 57.1454 2.64399 57.8602 2.16009 58.7149C1.67619 59.5696 1.42187 60.535 1.42188 61.5172V75.3594H34.125V66.8281L40.7623 69.0406C41.3171 69.2255 41.9154 69.2349 42.4757 69.0674C43.036 68.9 43.531 68.5639 43.8934 68.105L60.3159 47.3058C60.6485 46.8827 60.8556 46.3748 60.9137 45.8398C60.9717 45.3048 60.8783 44.7642 60.6442 44.2797C60.4101 43.7951 60.0446 43.3861 59.5894 43.099C59.1342 42.812 58.6075 42.6586 58.0694 42.6563Z" fill="#F25757"/>
<path d="M22.75 21.3281C18.4844 27.0156 9.95312 27.0156 9.95312 27.0156V36.9688C9.95313 39.6085 11.0018 42.1401 12.8683 44.0067C14.7349 45.8732 17.2665 46.9219 19.9062 46.9219C22.546 46.9219 25.0776 45.8732 26.9442 44.0067C28.8107 42.1401 29.8594 39.6085 29.8594 36.9688V27.0156C25.8008 27.2081 22.8996 21.4672 22.75 21.3281Z" fill="#FFDDD4"/>
<path d="M14.2188 51.1875L19.9062 55.4531L14.2188 59.7188L8.53125 54.0312L14.2188 51.1875Z" fill="#D63434"/>
<path d="M25.5938 51.1875L19.9062 55.4531L25.5938 59.7188L31.2812 54.0312L25.5938 51.1875Z" fill="#D63434"/>
<path d="M9.95312 76.7812C9.57602 76.7812 9.21436 76.6314 8.94771 76.3648C8.68105 76.0981 8.53125 75.7365 8.53125 75.3594V66.8281C8.53125 66.451 8.68105 66.0894 8.94771 65.8227C9.21436 65.5561 9.57602 65.4062 9.95312 65.4062C10.3302 65.4062 10.6919 65.5561 10.9585 65.8227C11.2252 66.0894 11.375 66.451 11.375 66.8281V75.3594C11.375 75.7365 11.2252 76.0981 10.9585 76.3648C10.6919 76.6314 10.3302 76.7812 9.95312 76.7812Z" fill="#D63434"/>
<path d="M41.2344 79.625H1.42188C1.04477 79.625 0.683111 79.7748 0.416458 80.0415C0.149804 80.3081 0 80.6698 0 81.0469L0 91H41.2344C41.6115 91 41.9731 90.8502 42.2398 90.5835C42.5064 90.3169 42.6562 89.9552 42.6562 89.5781V81.0469C42.6562 80.6698 42.5064 80.3081 42.2398 80.0415C41.9731 79.7748 41.6115 79.625 41.2344 79.625Z" fill="#FFB125"/>
<path d="M89.5781 7.10938H41.2344C40.4491 7.10938 39.8125 7.74597 39.8125 8.53125V48.3438C39.8125 49.129 40.4491 49.7656 41.2344 49.7656H89.5781C90.3634 49.7656 91 49.129 91 48.3438V8.53125C91 7.74597 90.3634 7.10938 89.5781 7.10938Z" fill="#48ACFF"/>
<path d="M73.9375 14.2188C73.5604 14.2188 73.1987 14.3686 72.9321 14.6352C72.6654 14.9019 72.5156 15.2635 72.5156 15.6406C72.5156 16.0177 72.6654 16.3794 72.9321 16.646C73.1987 16.9127 73.5604 17.0625 73.9375 17.0625H91V14.2188H73.9375Z" fill="#337FEF"/>
<path d="M72.5156 21.3281C72.5167 21.7049 72.6669 22.0659 72.9333 22.3323C73.1997 22.5988 73.5607 22.7489 73.9375 22.75H91V19.9062H73.9375C73.5607 19.9073 73.1997 20.0575 72.9333 20.3239C72.6669 20.5903 72.5167 20.9514 72.5156 21.3281Z" fill="#337FEF"/>
<path d="M72.5156 27.0156C72.5167 27.3924 72.6669 27.7534 72.9333 28.0198C73.1997 28.2863 73.5607 28.4364 73.9375 28.4375H91V25.5938H73.9375C73.5607 25.5948 73.1997 25.745 72.9333 26.0114C72.6669 26.2778 72.5167 26.6389 72.5156 27.0156Z" fill="#337FEF"/>
<path d="M46.9219 32.7031C46.923 33.0799 47.0731 33.4409 47.3395 33.7073C47.606 33.9738 47.967 34.1239 48.3438 34.125H91V31.2812H48.3438C47.967 31.2823 47.606 31.4325 47.3395 31.6989C47.0731 31.9653 46.923 32.3264 46.9219 32.7031Z" fill="#337FEF"/>
<path d="M46.9219 38.3906C46.923 38.7674 47.0731 39.1284 47.3395 39.3948C47.606 39.6613 47.967 39.8114 48.3438 39.8125H91V36.9688H48.3438C47.967 36.9698 47.606 37.12 47.3395 37.3864C47.0731 37.6528 46.923 38.0139 46.9219 38.3906Z" fill="#337FEF"/>
<path d="M64.6953 44.0781C64.6964 44.4549 64.8466 44.8159 65.113 45.0823C65.3794 45.3488 65.7404 45.4989 66.1172 45.5H91V42.6562H66.1172C65.7404 42.6573 65.3794 42.8075 65.113 43.0739C64.8466 43.3403 64.6964 43.7014 64.6953 44.0781Z" fill="#337FEF"/>
<path d="M67.8333 20.3229C67.7013 20.1908 67.5446 20.086 67.3721 20.0145C67.1996 19.943 67.0147 19.9062 66.828 19.9062C66.6413 19.9062 66.4564 19.943 66.2839 20.0145C66.1114 20.086 65.9547 20.1908 65.8227 20.3229L63.9843 22.1613L62.1458 20.3229C61.8776 20.0639 61.5184 19.9206 61.1456 19.9238C60.7728 19.9271 60.4162 20.0766 60.1526 20.3402C59.8889 20.6039 59.7394 20.9605 59.7362 21.3333C59.7329 21.7061 59.8762 22.0653 60.1353 22.3334L61.9736 24.1719L60.1353 26.0104C59.9994 26.1416 59.8911 26.2985 59.8166 26.4719C59.7421 26.6454 59.7029 26.832 59.7012 27.0208C59.6996 27.2096 59.7356 27.3968 59.8071 27.5716C59.8785 27.7463 59.9841 27.9051 60.1176 28.0386C60.2511 28.1721 60.4099 28.2776 60.5846 28.3491C60.7594 28.4206 60.9466 28.4566 61.1354 28.455C61.3242 28.4533 61.5108 28.4141 61.6842 28.3396C61.8577 28.2651 62.0146 28.1567 62.1458 28.0209L63.9843 26.1826L65.8227 28.0209C66.0909 28.2799 66.4501 28.4233 66.8229 28.42C67.1957 28.4168 67.5523 28.2672 67.816 28.0036C68.0796 27.74 68.2291 27.3834 68.2324 27.0106C68.2356 26.6377 68.0923 26.2786 67.8333 26.0104L65.9949 24.1719L67.8333 22.3334C67.9654 22.2015 68.0702 22.0448 68.1416 21.8723C68.2131 21.6998 68.2499 21.5149 68.2499 21.3282C68.2499 21.1415 68.2131 20.9566 68.1416 20.7841C68.0702 20.6116 67.9654 20.4549 67.8333 20.3229Z" fill="#337FEF"/>
<path d="M48.8866 22.75L51.3375 27.6516C51.4556 27.8879 51.6371 28.0865 51.8618 28.2254C52.0864 28.3643 52.3453 28.4378 52.6094 28.4378C52.8735 28.4378 53.1324 28.3643 53.357 28.2254C53.5816 28.0865 53.7632 27.8879 53.8812 27.6516L59.1759 17.0625H68.25C68.6271 17.0625 68.9888 16.9127 69.2554 16.646C69.5221 16.3794 69.6719 16.0177 69.6719 15.6406C69.6719 15.2635 69.5221 14.9019 69.2554 14.6352C68.9888 14.3686 68.6271 14.2188 68.25 14.2188H58.2969C58.0328 14.2187 57.774 14.2922 57.5493 14.431C57.3247 14.5698 57.1431 14.7684 57.025 15.0046L52.6094 23.8359L51.0375 20.6921C50.9194 20.4559 50.7378 20.2573 50.5132 20.1185C50.2885 19.9797 50.0297 19.9062 49.7656 19.9062H46.9219C46.5448 19.9062 46.1831 20.0561 45.9165 20.3227C45.6498 20.5894 45.5 20.951 45.5 21.3281C45.5 21.7052 45.6498 22.0669 45.9165 22.3335C46.1831 22.6002 46.5448 22.75 46.9219 22.75H48.8866Z" fill="#337FEF"/>
<path d="M58.0697 42.6563C57.6922 42.655 57.3182 42.7285 56.9692 42.8725C56.6202 43.0165 56.3032 43.2281 56.0364 43.4952L48.6973 50.8343L48.7968 50.9168C48.8204 50.9376 48.8454 50.9556 48.8703 50.9751L54.2973 54.9296L60.3163 47.3058C60.6488 46.8827 60.8559 46.3748 60.914 45.8398C60.972 45.3048 60.8787 44.7642 60.6445 44.2797C60.4104 43.7951 60.0449 43.3861 59.5897 43.099C59.1345 42.812 58.6078 42.6586 58.0697 42.6563Z" fill="#FFDDD4"/>
<path d="M45.5 73.9375H0V82.4688H45.5C45.8771 82.4688 46.2388 82.3189 46.5054 82.0523C46.7721 81.7856 46.9219 81.424 46.9219 81.0469V75.3594C46.9219 74.9823 46.7721 74.6206 46.5054 74.354C46.2388 74.0873 45.8771 73.9375 45.5 73.9375Z" fill="#FCD354"/>
<path d="M91 0H35.5469C35.1698 0 34.8081 0.149804 34.5415 0.416458C34.2748 0.683111 34.125 1.04477 34.125 1.42188V8.53125C34.125 8.90835 34.2748 9.27001 34.5415 9.53667C34.8081 9.80332 35.1698 9.95312 35.5469 9.95312H91V0Z" fill="#337FEF"/>
</g>
<defs>
<clipPath id="clip0_1349_28869">
<rect width="91" height="91" fill="white"/>
</clipPath>
</defs>
</svg>
