<svg width="83" height="83" viewBox="0 0 83 83" fill="none" xmlns="http://www.w3.org/2000/svg">
<g clip-path="url(#clip0_1349_28857)">
<path d="M52.2149 31.86C43.171 27.5957 40.6987 24.3979 42.7651 19.6385C44.7294 15.0981 46.232 11.5444 47.3593 8.77209C47.7461 7.82029 47.8929 6.78796 47.7867 5.76606C47.6806 4.74416 47.3248 3.76404 46.7507 2.91203C46.1808 2.06396 45.41 1.3701 44.5068 0.892343C43.6036 0.414585 42.5963 0.16778 41.5746 0.173941C35.8837 0.180741 30.2542 1.3493 25.0309 3.60804C19.8075 5.86677 15.1002 9.16812 11.1975 13.3099C7.30724 17.4256 4.31157 22.3024 2.3992 27.6331C0.486835 32.9638 -0.300777 38.6328 0.0859898 44.2829C0.755336 54.3676 5.08543 63.8604 12.2622 70.9768C19.439 78.0932 28.9681 82.3429 39.0581 82.927C39.7503 82.9675 40.4384 82.9915 41.1225 82.9991C41.2295 83.0004 41.3347 83.0004 41.441 83.0004C47.4326 83.1304 53.2788 81.1479 57.9554 77.4001C62.6319 73.6523 65.8405 68.3784 67.0189 62.5024C69.458 51.8741 65.8264 38.2785 52.2149 31.86Z" fill="#494A59"/>
<path d="M81.7939 8.71167C81.2542 7.91198 80.5566 7.23118 79.744 6.71113C78.9314 6.19109 78.021 5.8428 77.0688 5.6877C76.1166 5.53259 75.1427 5.57396 74.2071 5.80924C73.2714 6.04452 72.3938 6.46874 71.6283 7.05582L38.9994 32.0596C38.8268 32.1918 38.6902 32.3653 38.6022 32.5641C38.5142 32.7629 38.4776 32.9807 38.4957 33.1974C38.5139 33.414 38.5862 33.6227 38.7061 33.8041C38.826 33.9855 38.9895 34.1338 39.1817 34.2355C39.9843 34.6939 40.6695 35.3325 41.1833 36.1008C41.6971 36.8691 42.0256 37.7462 42.1428 38.663C42.1661 38.8785 42.2431 39.0848 42.3667 39.2629C42.4903 39.441 42.6566 39.5853 42.8503 39.6826C43.0441 39.7798 43.2592 39.8269 43.4758 39.8196C43.6925 39.8123 43.9039 39.7508 44.0907 39.6407L79.5204 18.7486C80.3518 18.2641 81.0743 17.6132 81.6426 16.8366C82.2108 16.0601 82.6126 15.1745 82.8228 14.2354C83.0354 13.2931 83.0538 12.3173 82.8769 11.3677C82.7001 10.418 82.3316 9.51426 81.7939 8.71167Z" fill="#FCD354"/>
<path d="M74.2753 21.8412L79.5208 18.7481C80.3522 18.2637 81.0747 17.6128 81.643 16.8362C82.2112 16.0596 82.613 15.174 82.8232 14.235C83.0599 13.1998 83.0602 12.1246 82.8241 11.0893C82.588 10.054 82.1215 9.08525 81.4594 8.25508C80.7973 7.42492 79.9565 6.75471 78.9996 6.29429C78.0427 5.83387 76.9944 5.5951 75.9325 5.59572C74.3758 5.59218 72.862 6.10558 71.6287 7.05535L66.8008 10.7555L74.2753 21.8412Z" fill="#F25757"/>
<path d="M33.7188 75.3926C37.3 75.3926 40.2031 72.4894 40.2031 68.9082C40.2031 65.327 37.3 62.4238 33.7188 62.4238C30.1375 62.4238 27.2344 65.327 27.2344 68.9082C27.2344 72.4894 30.1375 75.3926 33.7188 75.3926Z" fill="#61E5F2"/>
<path d="M17.4669 48.1866C16.1901 48.0668 14.9063 48.3283 13.7781 48.938C12.6498 49.5477 11.7276 50.4783 11.1281 51.612C10.5286 52.7458 10.2788 54.0318 10.4101 55.3075C10.5414 56.5833 11.048 57.7914 11.8659 58.7793C12.4072 59.437 13.0737 59.9807 13.8268 60.3787C14.5799 60.7768 15.4046 61.0214 16.2529 61.0982C16.4604 61.1187 16.6669 61.1288 16.8723 61.1287C18.5395 61.1268 20.142 60.4829 21.347 59.3307C22.552 58.1784 23.2669 56.6064 23.3434 54.9409C23.4199 53.2755 22.8521 51.6445 21.7579 50.3867C20.6636 49.1288 19.127 48.3407 17.4669 48.1859V48.1866Z" fill="#3DE29F"/>
<path d="M14.2656 39.0801C17.8468 39.0801 20.75 36.1769 20.75 32.5957C20.75 29.0145 17.8468 26.1113 14.2656 26.1113C10.6844 26.1113 7.78125 29.0145 7.78125 32.5957C7.78125 36.1769 10.6844 39.0801 14.2656 39.0801Z" fill="#FCD354"/>
<path d="M27.2344 22.2207C30.8156 22.2207 33.7188 19.3175 33.7188 15.7363C33.7188 12.1551 30.8156 9.25195 27.2344 9.25195C23.6532 9.25195 20.75 12.1551 20.75 15.7363C20.75 19.3175 23.6532 22.2207 27.2344 22.2207Z" fill="#F25757"/>
<path d="M53.1719 67.6113C56.7531 67.6113 59.6562 64.7082 59.6562 61.127C59.6562 57.5457 56.7531 54.6426 53.1719 54.6426C49.5907 54.6426 46.6875 57.5457 46.6875 61.127C46.6875 64.7082 49.5907 67.6113 53.1719 67.6113Z" fill="#48ACFF"/>
<path d="M42.4646 50.6697C40.746 49.8022 39.7378 48.8599 39.6991 48.0823C39.6567 47.2249 40.7396 46.3384 41.1576 46.0721C42.9583 44.8552 44.2027 42.9737 44.6179 40.8404C45.033 38.707 44.585 36.4962 43.372 34.6928C42.3148 33.0198 40.6665 31.8061 38.755 31.2934C36.8436 30.7806 34.8091 31.0063 33.0565 31.9255C28.979 33.7746 25.4309 38.7062 26.8834 44.2041C28.7769 51.3672 36.0685 53.177 40.6361 53.1757C41.1231 53.1757 41.5796 53.1555 41.995 53.1188C42.2757 53.0938 42.5406 52.978 42.7497 52.7889C42.9587 52.5999 43.1004 52.3479 43.1535 52.0711C43.2065 51.7943 43.1679 51.5078 43.0436 51.2549C42.9193 51.002 42.7159 50.7964 42.4643 50.6694L42.4646 50.6697Z" fill="#F25757"/>
<path d="M30.3435 44.5869C30.0574 44.5868 29.7794 44.492 29.5527 44.3175C29.3261 44.1429 29.1635 43.8983 29.0903 43.6217C28.6846 41.6993 28.9505 39.6959 29.8436 37.9458C30.7368 36.1958 32.203 34.8049 33.9978 34.0054C34.3112 33.8633 34.6682 33.8516 34.9903 33.9727C35.3123 34.0938 35.5731 34.3379 35.7152 34.6513C35.8573 34.9647 35.869 35.3217 35.7479 35.6438C35.6268 35.9659 35.3827 36.2266 35.0693 36.3687C33.8253 36.9057 32.8026 37.8523 32.1711 39.051C31.5396 40.2498 31.3373 41.6285 31.5979 42.9581C31.6488 43.1502 31.6548 43.3513 31.6156 43.5461C31.5764 43.7408 31.4929 43.924 31.3717 44.0814C31.2505 44.2387 31.0947 44.3662 30.9164 44.4538C30.7382 44.5415 30.5421 44.587 30.3435 44.5869Z" fill="#D63434"/>
</g>
<defs>
<clipPath id="clip0_1349_28857">
<rect width="83" height="83" fill="white"/>
</clipPath>
</defs>
</svg>
