<svg width="116" height="116" viewBox="0 0 116 116" fill="none" xmlns="http://www.w3.org/2000/svg">
<g clip-path="url(#clip0_1349_28982)">
<path fill-rule="evenodd" clip-rule="evenodd" d="M51.9395 55.9609C38.5723 61.7949 34.5508 64.9668 32.9648 66.3262C30.5293 68.4785 29.1699 76.5215 27.7539 83.375H58H88.2461C86.8301 76.5215 85.4707 68.4785 83.0352 66.3262C81.4492 64.9102 77.5977 61.8516 64.2305 56.0176L51.9961 55.9609H51.9395Z" fill="#FFDDCC"/>
<path fill-rule="evenodd" clip-rule="evenodd" d="M64.5137 44.2935V59.1333C60.9453 63.4946 55.1113 63.3814 51.543 59.1333V44.2935C51.543 36.3071 64.5137 36.3071 64.5137 44.2935Z" fill="#FFDDCC"/>
<path fill-rule="evenodd" clip-rule="evenodd" d="M64.5137 44.2935V54.2056C62.0781 56.0181 59.6992 56.981 58 56.981C56.3574 56.981 53.9785 55.9614 51.4863 54.2056V44.2935C51.4863 36.3071 64.457 36.3071 64.457 44.2935H64.5137Z" fill="#F6C4AA"/>
<path fill-rule="evenodd" clip-rule="evenodd" d="M41.4043 32.115C42.5371 31.7186 44.0098 33.0213 44.6328 35.0037C45.3125 36.9861 44.8594 38.9119 43.7266 39.2518C42.5938 39.6483 41.1211 38.3455 40.4981 36.3631C39.8184 34.3807 40.2715 32.4549 41.4043 32.115Z" fill="#FFDDCC"/>
<path fill-rule="evenodd" clip-rule="evenodd" d="M74.8225 32.115C73.6897 31.7186 72.2171 33.0213 71.594 35.0037C70.971 36.9861 71.3674 38.9119 72.5003 39.2518C73.6331 39.6483 75.1057 38.3455 75.7288 36.3631C76.4085 34.3807 75.9553 32.4549 74.8225 32.115Z" fill="#FFDDCC"/>
<path fill-rule="evenodd" clip-rule="evenodd" d="M58 17.6719C36.1933 17.6719 44.0664 44.0098 45.4824 46.1055C47.0683 48.4277 54.4882 54.5449 58 54.5449C61.5117 54.5449 68.9316 48.4277 70.5176 46.1055C71.9336 44.0098 79.75 17.6719 58 17.6719Z" fill="#FFDDCC"/>
<path fill-rule="evenodd" clip-rule="evenodd" d="M53.0724 23.6193C49.3907 21.1838 44.7462 30.3029 43.4435 37.7228C40.7814 27.5275 42.424 18.6916 50.0704 15.1799C53.8654 13.424 61.172 13.3107 66.0431 14.3302C72.4435 15.633 74.0861 22.3732 72.6134 36.59C71.254 30.5861 66.4962 21.0705 62.9279 23.6193C59.9259 25.715 56.0743 25.6017 53.0724 23.6193Z" fill="#424242"/>
<path fill-rule="evenodd" clip-rule="evenodd" d="M51.0332 43.7832C55.791 45.6523 61.1719 45.4258 65.0234 43.7832C63.4941 47.748 53.2422 47.748 51.0332 43.7832Z" fill="#F6C4AA"/>
<path fill-rule="evenodd" clip-rule="evenodd" d="M46.8984 58.3398C37.4961 62.7578 34.3242 65.25 32.9648 66.4395C30.5293 68.5918 29.1699 76.6348 27.7539 83.4883H58H88.2461C86.8301 76.6348 85.4707 68.5918 83.0352 66.4395C81.7324 65.25 78.7871 62.9844 70.1777 58.8496C70.1211 58.9062 70.0078 58.9629 70.0078 59.0195C67.6289 64.1738 63.4941 67.1191 59.1895 68.5918C53.1855 67.4023 48.0879 62.7578 47.2949 58.7363C47.1816 58.623 47.125 58.4531 47.0117 58.3398H46.8984Z" fill="#8BC34A"/>
<path fill-rule="evenodd" clip-rule="evenodd" d="M31.4355 68.7617C29.9062 72.2168 28.8301 78.2207 27.7539 83.4883H40.0449C39.7617 74.8789 39.7617 70.3477 31.4922 68.7617H31.4355Z" fill="#FFA726"/>
<path fill-rule="evenodd" clip-rule="evenodd" d="M84.5645 68.7617C86.0938 72.2168 87.1699 78.2207 88.2461 83.4883H75.9551C76.2383 74.8789 76.2383 70.3477 84.5078 68.7617H84.5645Z" fill="#FFA726"/>
<path fill-rule="evenodd" clip-rule="evenodd" d="M46.8984 58.3398C45.9922 58.7363 45.1992 59.1328 44.4062 59.5293C46.6719 64.2871 50.8066 69.0449 59.1328 70.9141C66.3262 68.7617 70.1211 64.3438 72.2734 59.8691C71.5938 59.5293 70.9141 59.1895 70.1211 58.8496C70.0645 58.9062 69.9512 58.9629 69.9512 59.0195C67.5723 64.1738 63.4375 67.1191 59.1328 68.5918C53.1289 67.4023 48.0312 62.7578 47.2383 58.7363C47.125 58.623 47.0684 58.4531 46.9551 58.3398H46.8984Z" fill="#FB8C00"/>
<path fill-rule="evenodd" clip-rule="evenodd" d="M28.3203 97.1387H87.2832C87.5098 97.1387 87.7363 97.4785 87.7363 97.875V101.613C87.7363 102.01 87.5664 102.35 87.2832 102.35H28.3203C28.0938 102.35 27.8672 102.01 27.8672 101.613V97.875C27.8672 97.4785 28.0371 97.1387 28.3203 97.1387Z" fill="#37474F"/>
<path fill-rule="evenodd" clip-rule="evenodd" d="M86.7738 96.7988C88.7562 96.7988 89.889 94.8164 90.3422 92.4941L94.6469 69.5547C95.1 67.2324 93.0609 65.25 91.0785 65.25C71.141 65.25 44.8597 65.25 24.8656 65.25C22.8832 65.25 20.8441 67.2324 21.2973 69.5547L25.6019 92.4941C26.0551 94.8164 27.1879 96.7988 29.1703 96.7988C46.2758 96.7988 69.6683 96.7988 86.7738 96.7988Z" fill="#546E7A"/>
<path d="M44.5195 96.7422H39.0254V97.252H44.5195V96.7422Z" fill="#424242"/>
<path d="M76.9746 96.7422H71.4805V97.252H76.9746V96.7422Z" fill="#424242"/>
<path d="M37.2129 98.2148H30.8125V101.16H37.2129V98.2148Z" fill="#424242"/>
<path d="M31.9453 98.7246H31.2656V100.764H31.9453V98.7246Z" fill="#BDBDBD"/>
<path d="M33.0781 98.7246H32.3984V100.764H33.0781V98.7246Z" fill="#BDBDBD"/>
<path d="M34.1543 98.7246H33.4746V100.764H34.1543V98.7246Z" fill="#BDBDBD"/>
<path d="M35.2871 98.7246H34.6074V100.764H35.2871V98.7246Z" fill="#BDBDBD"/>
<path d="M36.4199 98.7246H35.7402V100.764H36.4199V98.7246Z" fill="#BDBDBD"/>
<path d="M84.8477 98.5547H78.4473V100.82H84.8477V98.5547Z" fill="#424242"/>
<path d="M83.998 98.9512H79.2969V100.48H83.998V98.9512Z" fill="#BDBDBD"/>
<path fill-rule="evenodd" clip-rule="evenodd" d="M78.8438 99.4609C78.9004 99.4609 78.957 99.5742 78.957 99.6875C78.957 99.8008 78.9004 99.9141 78.8438 99.9141C78.7871 99.9141 78.7305 99.8008 78.7305 99.6875C78.7305 99.5742 78.7871 99.4609 78.8438 99.4609Z" fill="#BDBDBD"/>
<path fill-rule="evenodd" clip-rule="evenodd" d="M84.3945 99.4609C84.4512 99.4609 84.5078 99.5742 84.5078 99.6875C84.5078 99.8008 84.4512 99.9141 84.3945 99.9141C84.3379 99.9141 84.2812 99.8008 84.2812 99.6875C84.2812 99.5742 84.3379 99.4609 84.3945 99.4609Z" fill="#BDBDBD"/>
<path d="M78.8438 99.4043C78.9004 99.4043 78.957 99.4609 78.957 99.4609C79.0137 99.5176 79.0137 99.5742 79.0137 99.6875C79.0137 99.7441 79.0137 99.8574 78.957 99.9141C78.9004 99.9707 78.9004 99.9707 78.8438 99.9707C78.7871 99.9707 78.7305 99.9141 78.7305 99.9141C78.6738 99.8574 78.6738 99.8008 78.6738 99.6875C78.6738 99.6309 78.6738 99.5176 78.7305 99.4609C78.7871 99.4043 78.7871 99.4043 78.8438 99.4043ZM78.9004 99.5742C78.9004 99.5176 78.8438 99.5176 78.8438 99.5176C78.7871 99.5176 78.7871 99.5176 78.7871 99.5742C78.7871 99.6309 78.7305 99.6309 78.7305 99.6875C78.7305 99.7441 78.7305 99.8008 78.7871 99.8008C78.7871 99.8574 78.8438 99.8574 78.8438 99.8574C78.9004 99.8574 78.9004 99.8574 78.9004 99.8008C78.9004 99.7441 78.957 99.7441 78.957 99.6875C78.957 99.6309 78.957 99.5742 78.9004 99.5742Z" fill="#212121"/>
<path d="M84.3945 99.4043C84.4512 99.4043 84.5078 99.4609 84.5078 99.4609C84.5645 99.5176 84.5645 99.5742 84.5645 99.6875C84.5645 99.7441 84.5645 99.8574 84.5078 99.9141C84.4512 99.9707 84.4512 99.9707 84.3945 99.9707C84.3379 99.9707 84.2812 99.9141 84.2812 99.9141C84.2246 99.8574 84.2246 99.8008 84.2246 99.6875C84.2246 99.6309 84.2246 99.5176 84.2812 99.4609C84.3379 99.4043 84.3379 99.4043 84.3945 99.4043ZM84.4512 99.5742C84.4512 99.5176 84.3945 99.5176 84.3945 99.5176C84.3379 99.5176 84.3379 99.5176 84.3379 99.5742C84.3379 99.6309 84.2812 99.6309 84.2812 99.6875C84.2812 99.7441 84.2812 99.8008 84.3379 99.8008C84.3379 99.8574 84.3945 99.8574 84.3945 99.8574C84.4512 99.8574 84.4512 99.8574 84.4512 99.8008C84.4512 99.7441 84.5078 99.7441 84.5078 99.6875C84.5078 99.6309 84.5078 99.5742 84.4512 99.5742Z" fill="#212121"/>
<path d="M49.2207 98.8379H39.875V99.1777H49.2207V98.8379Z" fill="#263238"/>
<path d="M49.2207 99.5176H39.875V99.8574H49.2207V99.5176Z" fill="#263238"/>
<path d="M49.2207 100.197H39.875V100.537H49.2207V100.197Z" fill="#263238"/>
<path d="M75.7285 98.8379H66.3828V99.1777H75.7285V98.8379Z" fill="#263238"/>
<path d="M75.7285 99.5176H66.3828V99.8574H75.7285V99.5176Z" fill="#263238"/>
<path d="M75.7285 100.197H66.3828V100.537H75.7285V100.197Z" fill="#263238"/>
</g>
<defs>
<clipPath id="clip0_1349_28982">
<rect width="116" height="116" fill="white"/>
</clipPath>
</defs>
</svg>
