<svg width="185" height="27" viewBox="0 0 185 27" fill="none" xmlns="http://www.w3.org/2000/svg">
<path d="M19.2002 5.13599H4.8002C3.91582 5.13599 3.2002 5.85161 3.2002 6.73599V21.136C3.2002 22.0204 3.91582 22.736 4.8002 22.736H12.8002V15.536H10.4002V13.136H12.8002V11.8469C12.8002 9.40786 13.9893 8.33599 16.0174 8.33599C16.9877 8.33599 17.5018 8.40786 17.7455 8.44067V10.736H16.3611C15.5018 10.736 15.2002 11.1907 15.2002 12.111V13.136H17.7236L17.3814 15.536H15.2002V22.736H19.2002C20.0846 22.736 20.8002 22.0204 20.8002 21.136V6.73599C20.8002 5.85161 20.083 5.13599 19.2002 5.13599Z" fill="#7479A6"/>
<path d="M48.3321 5.13599C45.5022 5.13599 43.2002 7.44009 43.2002 10.2708V17.6041C43.2002 20.434 45.5043 22.736 48.335 22.736H55.6683C58.4982 22.736 60.8002 20.4319 60.8002 17.6012V10.2679C60.8002 7.43795 58.4961 5.13599 55.6654 5.13599H48.3321ZM57.1335 8.06932C57.5383 8.06932 57.8669 8.39785 57.8669 8.80265C57.8669 9.20745 57.5383 9.53599 57.1335 9.53599C56.7287 9.53599 56.4002 9.20745 56.4002 8.80265C56.4002 8.39785 56.7287 8.06932 57.1335 8.06932ZM52.0002 9.53599C54.4268 9.53599 56.4002 11.5094 56.4002 13.936C56.4002 16.3626 54.4268 18.336 52.0002 18.336C49.5736 18.336 47.6002 16.3626 47.6002 13.936C47.6002 11.5094 49.5736 9.53599 52.0002 9.53599ZM52.0002 11.0027C51.2222 11.0027 50.4761 11.3117 49.926 11.8618C49.3759 12.4119 49.0669 13.158 49.0669 13.936C49.0669 14.714 49.3759 15.4601 49.926 16.0102C50.4761 16.5603 51.2222 16.8693 52.0002 16.8693C52.7782 16.8693 53.5243 16.5603 54.0744 16.0102C54.6245 15.4601 54.9335 14.714 54.9335 13.936C54.9335 13.158 54.6245 12.4119 54.0744 11.8618C53.5243 11.3117 52.7782 11.0027 52.0002 11.0027Z" fill="#7479A6"/>
<path d="M182.346 8.47597C182.139 7.33237 181.151 6.49956 180.006 6.23956C178.291 5.87597 175.119 5.61597 171.686 5.61597C168.255 5.61597 165.031 5.87597 163.315 6.23956C162.171 6.49956 161.182 7.27956 160.975 8.47597C160.766 9.77597 160.559 11.596 160.559 13.936C160.559 16.276 160.766 18.096 161.026 19.396C161.235 20.5396 162.222 21.3724 163.366 21.6324C165.186 21.996 168.306 22.256 171.739 22.256C175.171 22.256 178.291 21.996 180.111 21.6324C181.255 21.3724 182.242 20.5924 182.451 19.396C182.659 18.096 182.919 16.2232 182.971 13.936C182.866 11.596 182.606 9.77597 182.346 8.47597ZM168.879 17.576V10.296L175.222 13.936L168.879 17.576Z" fill="#7479A6"/>
<path d="M98.2002 5.13599H83.8002C82.9162 5.13599 82.2002 5.85199 82.2002 6.73599V21.136C82.2002 22.02 82.9162 22.736 83.8002 22.736H98.2002C99.0842 22.736 99.8002 22.02 99.8002 21.136V6.73599C99.8002 5.85199 99.0842 5.13599 98.2002 5.13599ZM87.7634 19.536H85.4034V11.9424H87.7634V19.536ZM86.5594 10.8568C85.7986 10.8568 85.1834 10.24 85.1834 9.48079C85.1834 8.72159 85.7994 8.10559 86.5594 8.10559C87.3178 8.10559 87.9346 8.72239 87.9346 9.48079C87.9346 10.24 87.3178 10.8568 86.5594 10.8568ZM96.6034 19.536H94.245V15.8432C94.245 14.9624 94.229 13.8296 93.0186 13.8296C91.7906 13.8296 91.6018 14.7888 91.6018 15.7792V19.536H89.2434V11.9424H91.5074V12.98H91.5394C91.8546 12.3832 92.6242 11.7536 93.7722 11.7536C96.1618 11.7536 96.6034 13.3264 96.6034 15.3712V19.536Z" fill="#7479A6"/>
<path d="M141.398 7.48566C140.633 7.82566 139.81 8.05446 138.947 8.15766C139.829 7.62966 140.505 6.79366 140.823 5.79686C139.999 6.28566 139.086 6.64086 138.113 6.83286C137.334 6.00326 136.226 5.48486 134.998 5.48486C132.642 5.48486 130.731 7.39606 130.731 9.75206C130.731 10.0865 130.77 10.4129 130.842 10.7241C127.295 10.5465 124.151 8.84726 122.046 6.26486C121.679 6.89526 121.469 7.62806 121.469 8.41126C121.469 9.89126 122.222 11.1977 123.366 11.9625C122.667 11.9401 122.009 11.7481 121.434 11.4289C121.434 11.4473 121.434 11.4641 121.434 11.4825C121.434 13.5505 122.904 15.2753 124.857 15.6665C124.499 15.7641 124.122 15.8161 123.732 15.8161C123.458 15.8161 123.19 15.7889 122.93 15.7401C123.473 17.4353 125.049 18.6697 126.916 18.7041C125.456 19.8489 123.616 20.5313 121.616 20.5313C121.272 20.5313 120.932 20.5113 120.598 20.4713C122.486 21.6817 124.729 22.3881 127.139 22.3881C134.989 22.3881 139.28 15.8857 139.28 10.2465C139.28 10.0617 139.276 9.87766 139.268 9.69446C140.102 9.09206 140.826 8.34086 141.398 7.48566Z" fill="#7479A6"/>
</svg>
