<svg width="120" height="120" viewBox="0 0 120 120" fill="none" xmlns="http://www.w3.org/2000/svg">
<g clip-path="url(#clip0_1349_29203)">
<path d="M43.125 63.6328V73.5352C43.125 74.3555 47.4023 75.0586 52.6758 75.0586C57.9492 75.0586 62.2266 74.3555 62.2266 73.5352V63.6328H43.0664H43.125Z" fill="#455A64"/>
<path d="M38.7891 73.4766C37.8516 73.7109 37.3828 74.4141 37.4414 75.0586H67.793C67.9102 74.4141 67.3828 73.7109 66.5039 73.4766C61.9922 72.1875 57.3633 71.4844 52.7344 71.4844C48.1055 71.4844 43.418 72.1289 38.7305 73.4766H38.7891Z" fill="#546E7A"/>
<path d="M88.0664 22.6758H17.1094V58.8281H88.0664V22.6758Z" fill="#0277BD"/>
<path d="M16.6992 20.5664H88.6523C89.4727 20.5664 90.1758 21.2695 90.1758 22.0898V64.9219C90.1758 65.7422 89.4727 66.4453 88.6523 66.4453H16.6992C15.8789 66.4453 15.1758 65.7422 15.1758 64.9219V22.0898C15.1758 21.2695 15.8789 20.5664 16.6992 20.5664ZM87.1289 23.6133H18.1641V58.3008H87.1289V23.6133Z" fill="#78909C"/>
<path d="M87.1289 23.5547C87.1875 23.5547 87.2461 23.4961 87.2461 23.4375C87.2461 23.3789 87.1875 23.3203 87.1289 23.3203H18.1641C18.1055 23.3203 18.0469 23.3789 18.0469 23.4375V58.2422C18.0469 58.3008 18.1055 58.3594 18.1641 58.3594C18.2227 58.3594 18.2812 58.3008 18.2812 58.2422V23.5547H87.1289Z" fill="#455A64"/>
<path fill-rule="evenodd" clip-rule="evenodd" d="M45.7617 38.6133H49.3945L48.2812 35.625C47.9297 34.7461 47.6953 33.9844 47.5195 33.3984C47.4023 34.1016 47.168 34.7461 46.9336 35.4492L45.7617 38.6133ZM42.6562 43.0078L46.7578 32.2852H48.2812L52.6758 43.0078H51.0352L49.8047 39.7852H45.3516L44.1797 43.0078H42.6562Z" fill="#01579B"/>
<path fill-rule="evenodd" clip-rule="evenodd" d="M52.6758 31.9922H65.6836V33.6914H52.6758V31.9922Z" fill="#01579B"/>
<path fill-rule="evenodd" clip-rule="evenodd" d="M52.6758 34.8633H75.3516V36.5625H52.6758V34.8633Z" fill="#01579B"/>
<path fill-rule="evenodd" clip-rule="evenodd" d="M52.6758 37.7344H75.3516V39.4336H52.6758V37.7344Z" fill="#01579B"/>
<path fill-rule="evenodd" clip-rule="evenodd" d="M52.6758 40.6055H75.3516V42.3047H52.6758V40.6055Z" fill="#01579B"/>
<path d="M75.4688 45.4102H29.707V51.6797H75.4688V45.4102Z" fill="#01579B"/>
<path d="M52.6758 49.5703C56.9797 49.5703 60.4688 46.0813 60.4688 41.7773C60.4688 37.4734 56.9797 33.9844 52.6758 33.9844C48.3718 33.9844 44.8828 37.4734 44.8828 41.7773C44.8828 46.0813 48.3718 49.5703 52.6758 49.5703Z" fill="#29B6F6"/>
<path fill-rule="evenodd" clip-rule="evenodd" d="M50.9766 37.4414L55.8984 41.7773L50.9766 46.0547V37.4414Z" fill="#0277BD"/>
<path d="M40.7228 42.832H31.0549C30.9377 42.2461 31.1135 41.1328 31.3478 40.3711C31.6408 39.4336 34.6291 37.793 35.8596 37.7344C36.9728 37.7344 40.1369 39.375 40.4299 40.1953C40.6643 40.957 40.8986 42.1875 40.7814 42.7734L40.7228 42.832Z" fill="#FFECB3"/>
<path fill-rule="evenodd" clip-rule="evenodd" d="M36.7969 37.0898H34.9805V38.3789L35.918 38.8477L36.7969 38.3789V37.0898Z" fill="#D2A979"/>
<path fill-rule="evenodd" clip-rule="evenodd" d="M33.1055 34.2773C33.1055 36.1523 34.5703 37.8515 36.0352 37.7929C37.3828 37.7344 38.6719 36.0351 38.6719 34.2773C38.6719 31.1133 37.2656 30.9375 35.9766 30.8789C34.5703 30.8789 33.1055 30.9375 33.1055 34.2773Z" fill="#E5B680"/>
<path fill-rule="evenodd" clip-rule="evenodd" d="M32.8125 32.8129C32.8125 33.516 32.9883 34.6293 33.3398 34.9223C34.2188 33.516 32.8711 32.5199 33.8086 32.1098C34.2188 31.934 34.9805 31.8168 36.0352 31.8168C39.7852 31.9926 37.4414 33.0473 38.4961 34.9223C38.8477 34.6293 39.0234 33.516 39.0234 32.8129C39.0234 30.8793 36.5039 30.4691 34.9805 30.8207C33.75 31.0551 32.8711 31.9926 32.8711 32.8129H32.8125Z" fill="#333333"/>
<path fill-rule="evenodd" clip-rule="evenodd" d="M38.7305 34.2188C38.5547 34.2188 38.3789 34.5117 38.3789 34.9219C38.3789 35.332 38.4961 35.625 38.6719 35.625C38.8477 35.625 38.9063 35.332 38.9063 34.9219C38.9063 34.5117 38.9649 34.2188 38.7891 34.2188H38.7305Z" fill="#E5B680"/>
<path fill-rule="evenodd" clip-rule="evenodd" d="M33.0475 34.2188C33.2233 34.2188 33.399 34.5117 33.399 34.9219C33.399 35.332 33.2819 35.625 33.1061 35.625C32.9303 35.625 32.8717 35.332 32.8717 34.9219C32.8717 34.5117 32.8131 34.2188 32.9889 34.2188H33.0475Z" fill="#E5B680"/>
<path fill-rule="evenodd" clip-rule="evenodd" d="M35.9177 38.7891L35.3903 39.082C35.2731 39.4336 35.6247 39.6094 35.9177 39.6094C35.9763 39.6094 35.9763 39.6094 36.0348 39.6094C36.3278 39.6094 36.5622 39.375 36.445 39.082L35.9177 38.7891Z" fill="#37474F"/>
<path fill-rule="evenodd" clip-rule="evenodd" d="M36.4453 42.832H35.332L35.7422 39.1992L35.918 38.9648L36.0352 39.1406L36.4453 42.832Z" fill="#37474F"/>
<path fill-rule="evenodd" clip-rule="evenodd" d="M37.1484 37.6758L35.918 38.7891L36.7969 39.375L37.3828 38.0859L37.1484 37.6758Z" fill="#EBD17D"/>
<path fill-rule="evenodd" clip-rule="evenodd" d="M34.6289 37.6758L35.918 38.7891L34.9805 39.375L34.3945 38.0859L34.6289 37.6758Z" fill="#EBD17D"/>
<path d="M82.5586 60.7031H68.9648V77.3438H82.5586V60.7031Z" fill="#E8C198"/>
<path d="M84.1406 65.0977C90.1172 66.6797 95.2734 69.9023 98.9648 74.1211C102.656 78.3398 104.824 83.6133 104.824 89.2383V99.1406C104.824 99.2578 104.824 99.375 104.824 99.4336H46.8164C46.8164 99.3164 46.8164 99.2578 46.8164 99.1406V89.2383C46.8164 83.5547 48.9844 78.3398 52.6758 74.1211C56.0156 70.2539 63.0469 65.625 68.0859 64.9805L75.8789 70.4297L84.1992 65.1562L84.1406 65.0977Z" fill="#AB47BC"/>
<path fill-rule="evenodd" clip-rule="evenodd" d="M62.2852 40.4297H88.6523V51.9727C88.6523 59.2383 82.7344 65.1562 75.4688 65.1562C68.2031 65.1562 62.2852 59.2383 62.2852 51.9727V40.4297Z" fill="#FFE0B2"/>
<path fill-rule="evenodd" clip-rule="evenodd" d="M62.2852 46.7578C64.5117 60.1758 73.0664 61.8751 77.6367 61.5235C81.3867 61.2305 85.1367 57.9493 87.9492 52.5586L88.6523 49.2774C89.2383 47.3438 89.5898 45.3516 89.5898 43.418C89.5898 38.7305 87.9492 35.6836 85.2539 33.75C82.7344 31.9336 79.3945 31.2305 75.7617 31.2305C72.1289 31.2305 68.7891 31.9336 66.2695 33.75C63.6328 35.6836 61.9336 38.7305 61.9336 43.418L62.2266 46.8164L62.2852 46.7578Z" fill="#424242"/>
<path fill-rule="evenodd" clip-rule="evenodd" d="M75.9961 65.7422C80.3906 65.7422 84.1406 64.3359 85.7812 62.3438L85.8984 67.207C84.1992 69.1992 80.4492 70.6055 76.1133 70.6055C71.7188 70.6055 67.9688 69.1992 66.3281 67.207L66.2109 62.3438C67.9102 64.3359 71.6602 65.7422 75.9961 65.7422Z" fill="#8E24AA"/>
<path fill-rule="evenodd" clip-rule="evenodd" d="M50.2148 99.4335H101.367C101.484 87.9491 88.4179 84.4335 75.4687 84.5507C62.8125 84.6679 50.2734 88.2421 50.1562 99.4335H50.2148Z" fill="#263238"/>
</g>
<defs>
<clipPath id="clip0_1349_29203">
<rect width="120" height="120" fill="white"/>
</clipPath>
</defs>
</svg>
