<svg width="120" height="120" viewBox="0 0 120 120" fill="none" xmlns="http://www.w3.org/2000/svg">
<g clip-path="url(#clip0_1349_29240)">
<path d="M86.1328 79.3945H77.1094V90.4102H86.1328V79.3945Z" fill="#E8C198"/>
<path d="M87.1875 82.3242C91.1719 83.3789 94.5703 85.4883 96.9727 88.3008C99.375 91.1133 100.84 94.5703 100.84 98.3203V104.883C100.84 104.941 100.84 105 100.84 105.059H62.4609C62.4609 105 62.4609 104.941 62.4609 104.883V98.3203C62.4609 94.5703 63.9258 91.1133 66.3281 88.3008C68.5547 85.7812 73.1836 82.6758 76.5234 82.2656L81.6797 85.8398L87.1875 82.3242Z" fill="#8BC34A"/>
<path fill-rule="evenodd" clip-rule="evenodd" d="M72.7148 65.9766H90.1758V73.6523C90.1758 78.457 86.25 82.3828 81.4453 82.3828C76.6406 82.3828 72.7148 78.457 72.7148 73.6523V65.9766Z" fill="#FFE0B2"/>
<path fill-rule="evenodd" clip-rule="evenodd" d="M72.7148 70.1367C74.1797 78.9844 79.8633 80.0977 82.8516 79.9219C85.3125 79.7461 87.832 77.5781 89.6484 74.0039L90.1172 71.8359C90.5273 70.5469 90.7617 69.2578 90.7617 67.9687C90.7617 64.8633 89.6484 62.8711 87.8906 61.582C86.1914 60.3516 84.0234 59.9414 81.6211 59.9414C79.2188 59.9414 76.9922 60.4102 75.3516 61.582C73.5938 62.8711 72.4805 64.8633 72.4805 67.9687L72.7148 70.1953V70.1367Z" fill="#424242"/>
<path fill-rule="evenodd" clip-rule="evenodd" d="M81.7969 82.7344C84.668 82.7344 87.1875 81.7969 88.3008 80.4492L88.418 83.6719C87.3047 85.0195 84.8438 85.957 81.9141 85.957C79.043 85.957 76.5234 85.0195 75.4102 83.6719L75.293 80.4492C76.4062 81.7969 78.8672 82.7344 81.7969 82.7344Z" fill="#689F38"/>
<path fill-rule="evenodd" clip-rule="evenodd" d="M64.6875 105H98.5546C98.6132 97.3829 90 95.0978 81.4453 95.1564C73.0664 95.215 64.8047 97.6173 64.6875 105Z" fill="#263238"/>
<path d="M42.8906 79.3945H33.8672V90.4102H42.8906V79.3945Z" fill="#E8C198"/>
<path d="M43.8867 82.3242C47.8711 83.3789 51.2695 85.4883 53.6719 88.3008C56.0742 91.1133 57.5391 94.5703 57.5391 98.3203V104.883C57.5391 104.941 57.5391 105 57.5391 105.059H19.1602C19.1602 105 19.1602 104.941 19.1602 104.883V98.3203C19.1602 94.5703 20.625 91.1133 23.0273 88.3008C25.2539 85.7812 29.8828 82.6758 33.2227 82.2656L38.3789 85.8398L43.8867 82.3242Z" fill="#00ACC1"/>
<path fill-rule="evenodd" clip-rule="evenodd" d="M29.4141 65.9766H46.875V73.6523C46.875 78.457 42.9492 82.3828 38.1445 82.3828C33.3398 82.3828 29.4141 78.457 29.4141 73.6523V65.9766Z" fill="#FFE0B2"/>
<path fill-rule="evenodd" clip-rule="evenodd" d="M29.4141 70.1367C30.8789 78.9844 36.5625 80.0977 39.5508 79.9219C42.0117 79.7461 44.5312 77.5781 46.3477 74.0039L46.8164 71.8359C47.2266 70.5469 47.4609 69.2578 47.4609 67.9687C47.4609 64.8633 46.3477 62.8711 44.5898 61.582C42.8906 60.3516 40.7227 59.9414 38.3203 59.9414C35.918 59.9414 33.6914 60.4102 32.0508 61.582C30.293 62.8711 29.1797 64.8633 29.1797 67.9687L29.4141 70.1953V70.1367Z" fill="#424242"/>
<path fill-rule="evenodd" clip-rule="evenodd" d="M38.4961 82.7344C41.3672 82.7344 43.8867 81.7969 45 80.4492L45.1172 83.6719C44.0039 85.0195 41.543 85.957 38.6133 85.957C35.7422 85.957 33.2227 85.0195 32.1094 83.6719L31.9922 80.4492C33.1055 81.7969 35.5664 82.7344 38.4961 82.7344Z" fill="#00838F"/>
<path fill-rule="evenodd" clip-rule="evenodd" d="M21.4453 105H55.3125C55.3711 97.3829 46.7578 95.0978 38.2031 95.1564C29.8242 95.215 21.5625 97.6173 21.4453 105Z" fill="#263238"/>
<path d="M77.3435 58.4765H42.7147C42.3045 56.4257 42.8319 52.4999 43.7108 49.6874C44.7655 46.289 55.4881 40.371 59.824 40.3124C63.7498 40.2538 75.1756 46.2304 76.1131 49.1015C77.0506 51.914 77.7537 56.1913 77.3435 58.4179V58.4765Z" fill="#FFA000"/>
<path fill-rule="evenodd" clip-rule="evenodd" d="M63.2812 37.8516H56.7188V42.5977L60 44.1797L63.2812 42.5977V37.8516Z" fill="#D2A979"/>
<path fill-rule="evenodd" clip-rule="evenodd" d="M50.0391 27.8901C50.0391 34.687 55.3711 40.6636 60.4688 40.4292C65.2734 40.1948 69.9023 34.2183 69.9023 27.8901C69.9023 16.5816 64.9219 15.8784 60.293 15.8198C55.1953 15.7026 50.0391 16.1128 50.0391 27.8901Z" fill="#E5B680"/>
<path fill-rule="evenodd" clip-rule="evenodd" d="M70.2539 27.5977C69.7266 27.5977 68.9062 28.6523 68.9062 30.0586C68.9062 31.4648 69.3164 32.5781 69.8438 32.5781C70.3711 32.5781 70.6055 31.4648 70.6055 30.0586C70.6055 28.6523 70.7812 27.5977 70.1953 27.5977H70.2539Z" fill="#E5B680"/>
<path fill-rule="evenodd" clip-rule="evenodd" d="M49.7464 27.5977C50.2737 27.5977 51.0941 28.6523 51.0941 30.0586C51.0941 31.4648 50.6839 32.5781 50.1566 32.5781C49.6292 32.5781 49.3948 31.4648 49.3948 30.0586C49.3948 28.6523 49.2191 27.5977 49.805 27.5977H49.7464Z" fill="#E5B680"/>
<path fill-rule="evenodd" clip-rule="evenodd" d="M59.9996 43.8867L58.1247 44.9414C57.7731 46.1133 58.8864 46.7578 59.9996 46.7578C60.1168 46.7578 60.234 46.7578 60.3512 46.7578C61.3473 46.6406 62.2262 45.9961 61.8746 44.9414L59.9996 43.8867Z" fill="#DE8D04"/>
<path fill-rule="evenodd" clip-rule="evenodd" d="M64.4531 39.9023L60 43.8867L63.1641 45.9961L65.2734 41.4844L64.4531 39.9023Z" fill="#C07A0A"/>
<path fill-rule="evenodd" clip-rule="evenodd" d="M55.5469 39.9023L60 43.8867L56.8359 45.9961L54.7266 41.4844L55.5469 39.9023Z" fill="#C07A0A"/>
<path d="M60.9375 45.9375H59.0625V58.418H60.9375V45.9375Z" fill="#DE8D04"/>
<path fill-rule="evenodd" clip-rule="evenodd" d="M57.1294 21.2105C54.8442 19.6871 51.8559 25.4293 51.0942 30.1168C48.7505 23.7301 48.8677 18.1637 55.2544 15.9371C56.5435 15.4684 58.3599 15.1754 60.2349 15.1168C70.7232 14.5895 72.0122 19.9215 69.4341 29.4722C68.6138 25.6637 65.6255 19.6871 63.3403 21.2691C61.4653 22.5582 59.0044 22.4996 57.1294 21.2691V21.2105Z" fill="#333333"/>
<path d="M51.9141 62.3437C51.3867 64.1602 50.8594 65.9766 50.332 67.793C49.8047 69.6094 49.2773 71.4258 48.75 73.2422C50.5078 73.7109 52.3828 73.8867 54.3164 73.8867C56.1914 73.8867 58.125 73.6523 60.0586 73.3593C61.875 73.8867 64.2773 74.1211 66.4453 74.0625C68.6133 74.0039 70.4883 73.7109 71.3086 73.3008C70.7812 71.4844 70.2539 69.6679 69.7266 67.8515C69.1992 66.0351 68.6719 64.2187 68.1445 62.4023C65.625 63.1641 63.9844 63.1055 62.8125 62.8125C61.6406 62.5195 60.9375 62.0508 60.1758 61.9922C60.1172 61.9922 60.0586 61.9922 59.9414 61.9922C59.1211 62.0508 58.4766 62.5195 57.3047 62.8125C56.1328 63.1055 54.4922 63.1641 51.9727 62.4023L51.9141 62.3437Z" fill="#795548"/>
<path d="M54.668 73.0078C52.9102 73.0078 51.2109 72.832 49.6289 72.3633C50.0977 70.6055 50.5078 68.9062 50.9766 67.1484C51.4453 65.3906 51.8555 63.6328 52.3242 61.9336C53.4375 62.4023 54.7266 62.5781 56.0156 62.5781C57.3047 62.5781 58.6523 62.2852 59.9414 61.9336C59.9414 63.6914 59.9414 65.4492 59.9414 67.1484C59.9414 68.9062 59.9414 70.6641 59.9414 72.3633C58.1836 72.7734 56.3672 73.0078 54.6094 73.0078H54.668Z" fill="#FFD598"/>
<path fill-rule="evenodd" clip-rule="evenodd" d="M50.9766 71.6602C51.3281 70.2539 51.6211 68.8477 51.9727 67.3828C52.3242 65.9766 52.6172 64.5703 52.9688 63.1055C53.9062 63.3398 54.9609 63.457 55.957 63.457C57.0117 63.457 58.0664 63.2812 59.1211 63.0469C59.0625 64.4531 59.0625 65.8594 59.0039 67.3242C58.9453 68.7305 58.9453 70.1367 58.8867 71.6016C57.5391 71.8945 56.1914 72.0117 54.8438 72.0703C53.4961 72.0703 52.207 71.9531 51.0352 71.6602H50.9766Z" fill="#EDBD78"/>
<path d="M65.332 73.0078C67.0898 73.0078 68.7891 72.832 70.3711 72.3633C69.9023 70.6055 69.4922 68.8477 69.0234 67.1484C68.5547 65.3906 68.1445 63.6328 67.6758 61.9336C66.5625 62.4023 65.2734 62.5781 63.9844 62.5781C62.6953 62.5781 61.3477 62.2852 60.0586 61.9336C60.0586 63.6914 60.0586 65.4492 60.0586 67.1484C60.0586 68.9062 60.0586 70.6641 60.0586 72.3633C61.8164 72.7734 63.6328 73.0078 65.3906 73.0078H65.332Z" fill="#FFCC80"/>
<path fill-rule="evenodd" clip-rule="evenodd" d="M61.1133 71.6016C61.0547 70.1953 61.0547 68.7891 60.9961 67.3242C60.9375 65.918 60.9375 64.5117 60.8789 63.0469C61.9336 63.2812 62.9883 63.457 64.043 63.457C65.0977 63.457 66.0938 63.3398 67.0312 63.1055C67.3828 64.5117 67.6758 65.918 68.0273 67.3828C68.3789 68.7891 68.6719 70.1953 69.0234 71.6602C67.8516 71.9531 66.5625 72.0703 65.2148 72.0703C63.8672 72.0703 62.4609 71.8945 61.1719 71.6016H61.1133Z" fill="#EDBD78"/>
</g>
<defs>
<clipPath id="clip0_1349_29240">
<rect width="120" height="120" fill="white"/>
</clipPath>
</defs>
</svg>
