<svg width="120" height="120" viewBox="0 0 120 120" fill="none" xmlns="http://www.w3.org/2000/svg">
<g clip-path="url(#clip0_1349_28938)">
<path d="M65.8597 77.8711C65.6253 77.8125 65.6839 77.8125 65.8597 77.8711V77.8711Z" fill="#8BC34A"/>
<path fill-rule="evenodd" clip-rule="evenodd" d="M93.75 60C93.75 78.6328 78.6328 93.75 60 93.75C41.3672 93.75 26.25 78.6328 26.25 60C26.25 41.3672 41.3672 26.25 60 26.25C78.6328 26.25 93.75 41.3672 93.75 60Z" fill="#00BCD4"/>
<path fill-rule="evenodd" clip-rule="evenodd" d="M62.7538 53.6719H62.9296H63.0468H62.8124H62.7538ZM87.3632 60.5273C87.3632 60.5273 87.1288 60.6445 87.0117 60.7617C86.8945 60.8789 86.7187 60.8203 86.3671 60.8203C86.0156 60.8203 86.1327 60.8789 85.8398 60.8789C85.6054 60.8789 85.664 61.0547 85.4296 61.0547C85.1952 61.0547 85.0195 61.1133 84.9023 61.1133C84.7851 61.1133 84.7851 60.9375 84.6679 60.9375L84.5507 60.8203V60.7617C84.5507 60.7031 84.5507 60.5859 84.5507 60.4688C84.5507 60.3516 84.4335 60.2344 84.3163 60.1758C84.1992 60.0586 84.1992 60 84.0234 59.8242C83.8476 59.6484 83.6132 59.4141 83.3788 59.3555C83.1445 59.2969 83.3788 59.2383 83.0273 58.8281C82.7343 58.418 82.9101 58.6523 82.8515 58.3594C82.7929 58.2422 82.7929 58.1836 82.7343 58.1836C82.6757 58.125 82.5585 58.125 82.4413 57.9492C82.207 57.7148 82.2656 57.7734 82.207 57.7148C82.1484 57.5977 82.207 57.3633 82.1484 57.3047C82.1484 57.2461 81.8554 56.7188 81.7382 56.4258C81.621 56.1914 81.4452 56.3086 81.5624 56.25C81.621 56.1914 81.5624 56.1914 81.5038 56.0742C81.4452 56.0156 81.3867 55.8984 81.3867 55.7227C81.3281 55.3711 81.0937 55.0781 80.9179 54.7852C80.6835 54.5508 80.7421 54.5508 80.7421 54.375C80.7421 54.1992 80.332 53.8477 80.332 53.7305C80.332 53.6133 80.2148 53.3789 80.2734 53.4961C80.332 53.5547 80.5077 53.8477 80.5663 53.9648C80.6249 54.082 80.5663 54.082 80.9179 54.3164C81.2695 54.6094 81.0351 54.2578 81.0351 53.9648C81.0351 53.9063 81.0351 53.7305 80.9765 53.6133C80.9179 53.3203 80.8007 52.9102 80.7421 52.9102C80.6835 52.9102 80.6249 52.9102 80.3906 52.8516C80.2148 52.8516 80.2148 52.793 80.039 52.793C79.8632 52.793 79.8632 52.6172 79.5702 52.6172C79.2187 52.6172 79.2187 52.793 78.9843 52.9102C78.7499 53.0273 78.2812 52.6172 78.164 52.5586C78.0468 52.5586 77.6367 52.5586 77.5195 52.5586C77.4609 52.5586 77.4023 52.5 77.2851 52.4414L77.1679 52.3828C76.9921 52.3828 76.6406 52.207 76.6406 52.207C76.6406 52.207 76.5234 52.1484 76.3476 51.9727C76.1718 51.7969 75.9374 51.9141 75.7617 51.9141C75.5859 51.9141 75.5273 52.1484 75.4101 52.207C75.2929 52.3242 75.4101 52.6172 75.4101 52.793C75.4101 52.9688 75.2929 52.8516 75.1757 52.9102C75.0585 53.0273 74.707 52.9102 74.5312 52.793C74.3554 52.6758 74.4726 52.6758 74.3554 52.5586C74.2382 52.4414 73.8281 52.5 73.7109 52.5C73.5937 52.5 73.5351 52.5 73.5351 52.2656C73.4765 52.0313 73.3007 51.9727 73.3007 51.9727C73.3007 51.9727 72.832 51.9141 72.6562 51.9141C72.4804 51.9141 72.3046 51.8555 72.1288 51.8555L71.8945 51.6797L71.7187 51.5625C71.5429 51.5625 71.4843 51.3867 71.4843 51.3867C71.4843 51.3867 71.3671 51.2695 71.3671 51.0938C71.3671 50.918 71.5429 50.8594 71.6015 50.7422C71.6601 50.625 71.5429 50.3906 71.4843 50.332L71.6601 50.0391C71.6601 50.0391 71.4257 50.1563 71.4257 50.0391C71.4257 49.9219 71.0742 49.8633 71.0742 49.8633C70.957 49.8633 70.8398 49.9219 70.7226 49.9219C70.7226 49.9219 70.4296 49.9219 70.371 49.9219C70.3124 49.9219 70.0195 49.9219 70.0195 49.9219C69.8437 49.9219 69.6679 49.9219 69.5507 49.9219C69.5507 49.9219 69.3163 49.9805 68.7304 49.9805C68.2031 50.0391 68.1445 49.9805 68.0273 49.9805C67.9101 49.9805 67.7343 50.0391 67.7343 50.0391C67.7343 50.0391 67.3827 50.0977 67.2656 50.1563C67.1484 50.2148 67.1484 50.2734 66.9726 50.2734C66.8554 50.2734 66.7382 50.2734 66.5038 50.3906C66.2695 50.5078 66.5038 50.3906 66.4452 50.5078L66.2695 50.625H66.1523C65.9765 50.5664 65.9765 50.5664 65.9179 50.5078C65.8007 50.4492 65.7421 50.5078 65.6249 50.5078C65.5077 50.5078 65.332 50.5078 65.2148 50.5078C65.0976 50.5078 64.9218 50.3906 64.9218 50.3906C64.9218 50.3906 64.8046 50.2148 64.5702 50.1563C64.3359 50.0977 64.3945 50.2734 64.3945 50.2734C64.3945 50.2734 64.3945 50.3906 64.3359 50.5078C64.3359 50.625 64.1601 50.7422 64.2187 50.8594C64.2187 50.9766 63.9843 50.9766 63.9257 51.0938C63.8671 51.2109 63.6913 51.2109 63.5156 51.2695C63.3398 51.3281 63.164 51.3281 63.0468 51.5039C62.9296 51.6797 62.7538 51.7969 62.7538 51.9141C62.7538 52.0313 62.5781 52.0898 62.5781 52.2656C62.5781 52.4414 62.6367 52.6172 62.6367 52.6172V52.8516C62.6367 52.8516 62.4023 53.0273 62.4023 53.2031C62.4023 53.3789 61.9335 53.3203 61.9335 53.3203C61.9335 53.3203 61.582 53.4375 61.4648 53.5547C61.3476 53.6719 61.1132 53.6719 60.996 53.7305C60.8788 53.7891 61.0546 54.082 60.5273 54.3164C59.9999 54.5508 59.9999 54.9609 59.9413 55.0781C59.8827 55.1953 59.8242 55.2539 59.707 55.3711C59.5898 55.4883 59.5312 55.7813 59.5312 55.7813C59.5312 55.7813 59.1796 56.0742 59.0624 56.3086C58.9452 56.543 58.9452 56.4258 58.9452 56.6016C58.8867 56.7773 59.0038 56.7773 59.0624 56.8945C59.121 57.0117 59.121 57.0117 59.2968 57.0703C59.4726 57.1289 59.2968 57.4219 59.2968 57.6563C59.2968 57.8906 59.3554 57.7734 59.3554 58.0078C59.3554 58.2422 59.2968 58.3008 59.2968 58.5938C59.2968 58.7109 59.2968 58.7695 59.2968 58.7695C59.2968 58.8867 59.2968 58.8867 59.2382 58.9453L58.9452 59.4141C58.9452 59.4141 58.8867 59.5898 58.8867 59.707C58.8867 59.8242 58.8867 59.8828 58.8867 60C58.8867 60.1758 58.8867 60 58.8281 60.2344C58.7695 60.4688 58.8281 60.2344 58.7695 60.4102C58.7109 60.5859 59.0038 60.7031 59.0038 60.7031L59.121 60.8203C59.2382 60.9961 59.5898 60.8789 59.5898 60.8789C59.5312 61.0547 59.707 61.1133 59.8242 61.1719H59.8827C59.8827 61.1719 59.9999 61.4063 60.1757 61.4648C60.2929 61.5234 60.2929 61.582 60.4687 61.6992C60.5859 61.7578 60.7031 61.9336 60.7031 61.9922L60.7617 62.1094V62.4023C60.7617 62.4609 60.996 62.5781 61.1132 62.6953C61.2304 62.7539 61.289 62.8125 61.5234 62.8711L61.6406 62.9297C61.7577 62.9883 61.7577 63.1055 61.8749 63.1641C61.9921 63.2813 62.5781 63.6328 62.5781 63.6328C62.5781 63.6328 62.9296 63.8086 63.164 63.9844C63.3984 64.1602 63.5156 64.043 63.5156 64.043H63.5742C63.6913 64.043 63.7499 63.9844 63.8671 63.9844C63.8671 63.9844 64.2187 63.8086 64.2773 63.8086C64.3945 63.8086 64.5117 63.6914 64.8632 63.6914C65.2148 63.6914 65.332 63.6914 65.5663 63.6914C65.8593 63.6914 65.6835 63.75 65.8593 63.8086C65.9765 63.8672 66.0937 63.8672 66.1523 63.8086H66.2109C66.3281 63.75 66.4452 63.75 66.5038 63.6914C66.5038 63.6914 66.7382 63.6328 66.8554 63.5742C66.9726 63.5156 67.1484 63.3984 67.2656 63.3984C67.4413 63.3984 67.4413 63.2813 67.6171 63.2813C67.7929 63.2813 67.7929 63.1055 67.7929 63.1055H67.9101C68.0273 63.1055 68.2031 63.0469 68.3788 63.0469C68.5546 63.0469 68.7304 63.0469 68.9648 63.0469C69.1992 63.0469 69.1992 63.1641 69.4921 63.3398C69.7851 63.5156 69.5507 63.5156 69.4921 63.75C69.4335 63.9844 69.5507 63.9258 69.7851 63.9258C70.0195 63.9258 70.1952 63.8086 70.371 63.8086C70.5468 63.8086 70.957 63.6328 70.957 63.6328L71.1327 63.8672C71.1327 63.8672 71.2499 63.9844 71.4843 64.2773C71.6015 64.5117 71.5429 64.6289 71.4843 64.7461L71.4257 64.8633C71.3671 64.9805 71.3085 65.0977 71.3085 65.2734L71.2499 65.4492C71.2499 65.625 71.0156 65.7422 70.957 66.0938C70.8984 66.3867 71.3671 66.9727 71.7773 67.3242L72.0117 67.5C72.1288 67.5586 72.1874 67.6758 72.246 67.793C72.3046 67.9102 72.3632 68.0274 72.3632 68.2031C72.4218 68.4375 72.4218 68.6719 72.4804 68.8477C72.5976 69.2578 72.8906 69.2578 72.7148 69.2578C72.539 69.2578 72.5976 69.8438 72.7734 69.9609C72.9492 70.0781 72.9492 70.6641 72.5976 71.1328C72.3046 71.543 71.9531 72.4805 71.7773 73.0664C71.7773 73.1836 71.7187 73.2422 71.7187 73.3008C71.6015 73.8281 72.5976 75.5274 72.539 75.5274C72.539 75.5274 72.7148 76.6406 72.6562 77.1094C72.5976 77.5195 73.0077 77.9883 73.1249 78.2227L73.1835 78.3399C73.2421 78.5156 73.1835 78.9258 73.4765 79.4531C73.7695 79.9219 73.2421 80.3906 73.5937 80.9766C73.8867 81.6211 74.1796 81.3281 74.6484 81.0352C75.1171 80.7422 75.3515 81.0352 75.5273 80.9766C75.7617 80.9766 76.2304 80.6836 76.582 80.625C76.8749 80.625 76.8749 80.0977 77.5195 79.8633C78.164 79.6289 78.2812 79.4531 78.457 78.8672C78.6327 78.2813 78.9843 78.1055 79.3945 77.8125C79.746 77.5781 79.746 77.4609 79.6288 77.1094L79.5702 76.9336C79.3945 76.4649 80.4492 76.1133 80.4492 76.1133C80.6249 76.1133 80.8007 75.8789 80.8593 75.293C80.9765 74.7656 80.9179 74.4141 80.6835 74.1211C80.3906 73.8281 80.8007 73.7109 80.9765 73.5938C81.1523 73.4766 81.3281 73.3594 81.5038 73.1836C81.6796 73.0078 81.7382 72.832 81.8554 72.7149C81.9726 72.5977 82.3827 72.4805 82.5585 72.3633C82.6757 72.2461 82.9687 72.0703 83.1445 71.8359C83.3202 71.6016 83.3788 71.543 83.3202 71.25C83.2617 70.957 83.3202 70.957 83.3788 70.4297C83.4374 69.9024 83.496 69.7852 83.496 69.7852C83.496 69.7852 83.4374 69.668 83.3788 69.4922C83.3202 69.3164 83.2617 69.0234 83.2031 68.8477C83.1445 68.4961 83.2031 68.3789 83.1445 68.2031C83.0273 68.0859 83.0273 67.9102 83.0273 67.5586C83.0273 67.207 83.2617 67.4414 83.2617 67.207C83.2617 66.9141 83.3202 66.8555 83.4374 66.7383C83.6132 66.6211 83.4374 66.3281 83.6132 66.2695C83.789 66.2109 83.9648 65.9766 84.0234 65.8594L84.3749 65.5664C84.4335 65.5078 84.7265 65.0977 84.8437 64.9805C84.9023 64.8633 85.3124 64.5703 85.371 64.5117C85.4296 64.4531 85.664 64.3945 85.7226 64.3359C85.7812 64.2188 86.1327 63.8086 86.2499 63.75C86.3671 63.6914 86.6015 63.3398 86.7187 63.1641C86.8359 62.9297 86.8945 62.7539 87.1288 62.2266C87.4218 61.7578 87.4804 60.7617 87.6562 60.5859C87.832 60.4102 87.539 60.4688 87.539 60.4688L87.3632 60.5273Z" fill="#95CC56"/>
<path fill-rule="evenodd" clip-rule="evenodd" d="M36.1523 41.6602C36.1523 41.6602 36.3281 41.6016 36.4453 41.543C36.5625 41.4844 36.7969 41.0156 36.8555 40.957L36.1523 41.0156C36.0352 41.1328 35.8008 41.543 35.6836 41.6016C35.625 41.7188 35.625 42.0703 35.5664 42.1289C35.4492 42.1875 35.2734 42.5391 35.1562 42.6562C35.0391 42.7734 34.8633 43.0664 34.8633 43.0664L35.0391 43.3008C35.1562 43.2422 35.2148 43.2422 35.332 43.1836C35.3906 43.0664 35.4492 42.9492 35.5664 42.832C35.6836 42.7734 35.8008 42.7148 35.918 42.7148C35.918 42.5977 35.8594 42.5391 35.8594 42.4219C35.8594 42.3047 35.8594 42.1875 35.8594 42.0703C35.9766 41.9531 36.0352 41.7773 36.1523 41.6602Z" fill="#9DD45D"/>
<path fill-rule="evenodd" clip-rule="evenodd" d="M41.25 42.0704C41.3672 42.0118 41.7188 42.129 41.7773 42.3047C41.8359 42.4219 41.8945 42.4805 42.0703 42.2461C42.2461 42.0118 42.0703 41.8946 42.4805 41.7188C42.8906 41.4844 43.0664 41.3086 42.5391 41.25C42.0703 41.1915 42.1289 41.1329 41.7773 41.1329C41.4258 41.0743 41.1914 41.3672 41.1328 41.1915C41.0742 41.0157 41.6602 40.8399 41.6602 40.8399C41.6602 40.8399 42.0703 40.4297 41.7188 40.5469C41.3672 40.6641 40.7813 40.7227 41.0742 40.6055C41.3672 40.4883 40.8398 40.4883 40.8398 40.4883L40.7227 40.254C40.7227 40.254 40.2539 40.3125 40.3711 40.1954C40.4297 40.0782 39.9609 40.1954 40.0781 40.0782C40.1953 40.0196 40.2539 39.7852 40.1953 39.8438C40.1367 39.9024 39.668 39.7852 39.3164 39.961C39.0234 40.1368 39.2578 40.4297 39.375 40.3711C39.4922 40.3125 39.668 40.3711 39.668 40.3711L39.3164 40.5469L38.7891 40.8399C38.8477 40.7813 38.9063 40.6641 38.9648 40.6055C39.0234 40.4883 39.082 40.4297 39.1406 40.3125L39.082 40.1368C38.9063 40.1954 38.7891 40.254 38.6133 40.3711C38.4961 40.4297 38.3789 40.4883 38.2617 40.5469L38.0273 40.7813C38.0859 40.6641 38.1445 40.4883 38.2031 40.3711C38.1445 40.4883 38.0273 40.6055 37.9688 40.7227C37.9102 40.8399 38.0273 41.6602 37.9688 41.6602C37.8516 41.7188 37.6758 41.3672 37.6758 41.3672C37.6758 41.3672 37.8516 41.1329 37.8516 41.0157C37.9102 40.8985 37.5586 40.7813 37.5586 40.7813C37.3828 40.9571 37.207 41.1915 37.0898 41.3672C36.9727 41.4844 36.9141 41.6016 36.7969 41.7188C36.7969 41.836 36.7969 41.9532 36.8555 42.0704C36.9727 42.0118 37.1484 41.9532 37.2656 41.9532C37.1484 42.0704 36.9727 42.1875 36.8555 42.2461L36.9141 42.4219C37.0313 42.3633 37.1484 42.3047 37.2656 42.3047C37.2656 42.3047 37.793 42.1875 38.2031 42.0704C38.6133 41.8946 38.9648 41.7774 38.9648 41.7774C39.0234 41.6602 39.082 41.6016 39.1406 41.4844C39.1406 41.4844 39.668 41.4844 39.7266 41.6602C39.7852 41.836 40.1367 41.836 40.1953 42.0118C40.2539 42.1875 40.1367 42.4219 39.9023 42.5391C39.668 42.6563 39.6094 43.125 39.6094 43.125C39.6094 43.125 39.6094 43.3008 39.4336 43.3594C39.2578 43.418 38.9648 43.418 38.8477 43.5352C38.7305 43.6524 38.5547 43.8282 38.5547 43.8282C38.5547 43.8282 38.2031 44.4141 38.4375 44.2969C38.6719 44.1797 38.6133 44.1211 38.7891 44.0625C38.9648 44.004 39.5508 43.5352 39.7266 43.9454C39.8438 44.3555 40.1953 44.2383 40.3125 44.2383C40.4297 44.1797 40.8984 44.2969 40.8984 44.1797C40.8984 44.1211 41.25 44.004 40.8984 43.7696C40.5469 43.5352 40.7227 43.3594 40.8984 43.5352C41.1328 43.711 41.3672 43.7696 41.4258 43.418C41.543 43.0665 41.8359 43.0079 41.4844 42.7735C41.1328 42.5391 41.1328 42.4219 41.1328 42.4219C41.1328 42.4219 41.25 42.129 41.3672 42.0704H41.25Z" fill="#9DD45D"/>
<path fill-rule="evenodd" clip-rule="evenodd" d="M42.7734 47.5781C42.3633 47.7539 42.3633 47.7539 42.3633 47.7539L42.4219 47.8125C42.4219 47.8125 42.1289 48.1055 42.0117 48.3984C41.8945 48.6328 41.7773 48.8672 41.6602 48.9844C41.4844 49.1016 41.4258 49.6875 41.4258 49.6875C41.4258 49.6875 41.4258 49.6875 42.0117 49.4531C42.5977 49.2188 42.832 48.9844 42.832 48.9844L42.9492 49.1602C43.0664 49.1602 43.125 49.1602 43.2422 49.2188C43.2422 49.2188 43.418 49.1602 43.4766 49.043C43.5352 48.9258 43.5352 48.8086 43.5352 48.8086L43.4766 48.6914C43.4766 48.6328 43.418 48.5156 43.418 48.457C43.418 48.3984 43.418 48.2812 43.3594 48.2227C43.3594 48.2227 43.0664 48.2227 42.8906 48.3398C42.7148 48.457 42.6562 48.3984 42.6562 48.3984C42.7148 48.3398 42.7148 48.2227 42.7734 48.1641C42.7734 48.1641 42.4805 48.1641 42.4219 48.2227C42.5391 48.1055 43.1836 47.4609 42.832 47.6367L42.7734 47.5781Z" fill="#9DD45D"/>
<path fill-rule="evenodd" clip-rule="evenodd" d="M35.625 39.668C35.7422 39.6094 35.8594 39.5508 35.918 39.4922L36.0352 39.6094L36.2695 39.5508C36.2695 39.4336 36.2695 39.3164 36.2109 39.1992C36.1523 39.1992 36.0352 39.1406 35.9766 39.1406C35.918 39.1992 35.8008 39.1992 35.7422 39.2578C35.625 39.375 35.4492 39.4336 35.332 39.5508C35.4492 39.5508 35.5078 39.5508 35.625 39.5508L35.6836 39.668H35.625Z" fill="#9DD45D"/>
<path fill-rule="evenodd" clip-rule="evenodd" d="M35.4492 41.0156C35.5664 40.957 35.7422 41.0156 35.8008 40.8398C35.8008 40.7227 35.8594 40.5469 35.8594 40.5469C35.8594 40.4297 35.8594 40.3711 35.918 40.2539C35.8008 40.2539 35.6836 40.3125 35.5078 40.3125V40.5469C35.5078 40.5469 35.4492 40.8984 35.3906 40.7812C35.332 40.6641 35.2734 40.3711 35.2148 40.4297C35.1562 40.4883 34.9805 40.8398 34.9805 40.8398C35.0391 40.957 35.0391 41.0156 35.0977 41.1328C35.0977 41.1328 35.2734 41.0742 35.3906 41.0156H35.4492Z" fill="#9DD45D"/>
<path fill-rule="evenodd" clip-rule="evenodd" d="M34.1602 42.5389C34.2773 42.5389 34.3359 42.5975 34.4531 42.5975C34.4531 42.5975 34.3945 42.949 34.6289 42.8319C34.9219 42.7147 34.8633 42.5389 34.8633 42.5389C34.8633 42.5389 35.1563 42.3631 35.2734 42.3045C35.3906 42.2459 35.2148 41.8358 35.2148 41.8358L35.3906 41.7772C35.3906 41.7772 35.625 41.367 35.5078 41.2498C35.4492 41.1326 35.2148 41.4842 35.0977 41.5428C34.9805 41.6014 34.7461 41.66 34.7461 41.66L34.5703 41.8944C34.5703 42.0115 34.5703 42.1287 34.5703 42.2459C34.5703 42.2459 34.5703 42.2459 34.3359 42.1873C34.1016 42.1287 34.1016 42.5389 34.1016 42.5389H34.1602Z" fill="#9DD45D"/>
<path fill-rule="evenodd" clip-rule="evenodd" d="M56.602 30.1172C56.0747 30.293 55.6645 30.4688 55.5474 30.5273C55.4302 30.5859 54.9028 30.7617 54.8442 30.8203C54.7856 30.8203 55.1372 30.5859 54.8442 30.5273H54.7856L54.6099 30.3516H54.4341L54.2583 30.2344L53.9653 30.3516H53.6724H53.3794L53.145 30.5273L53.0864 30.4102L52.9106 30.4688C52.7934 30.4688 52.7349 30.5273 52.6177 30.5273L52.4419 30.6445L52.2661 30.7031L52.0317 30.8203C51.9145 30.8789 51.8559 30.8789 51.7388 30.9375L51.6802 30.8789C51.6216 30.8789 51.5044 30.8789 51.4458 30.9375C51.3872 30.9961 51.27 31.0547 51.2114 31.1133L51.0356 31.2305L50.9184 31.1719C50.8013 31.2305 50.6841 31.2305 50.5669 31.2891L50.4497 31.4648L50.3911 31.4063C50.2739 31.4063 50.2153 31.4648 50.0981 31.4648L49.981 31.6406L49.8052 31.8164H49.688C49.5708 31.875 49.5122 31.9336 49.395 31.9336H49.2778C49.2192 32.0508 49.1606 32.1094 49.0435 32.2266L48.9263 32.2852L48.7505 32.4023L48.5747 32.4609L48.5161 32.4023L48.3403 32.5781C48.2231 32.6367 48.1645 32.6953 48.0474 32.7539C47.9888 32.8711 47.9302 32.9883 47.8716 33.0469C47.7544 33.1055 47.6958 33.1641 47.5786 33.2227C47.5786 33.2227 47.813 32.9883 47.2856 33.2227C46.7583 33.457 46.4067 33.5742 46.231 33.6328C46.0552 33.6914 45.645 34.043 45.645 34.1016C45.645 34.1602 45.2349 34.3945 45.2349 34.3945C45.2349 34.3945 43.7114 35.3906 44.063 35.332C44.356 35.2734 44.5317 35.4492 44.1216 35.625C43.7114 35.8008 43.3599 36.2695 42.8325 36.5039C42.3052 36.7383 42.0122 37.207 42.481 36.9727C42.9497 36.7969 43.5356 36.5625 43.5356 36.5625C43.5356 36.5625 42.2466 37.4414 42.8325 37.3242C43.3599 37.207 43.3013 37.3242 43.7114 37.1484C44.1216 36.9727 44.1802 36.6211 44.6489 36.6211C45.1177 36.6797 45.2349 36.5625 45.2935 36.8555C45.352 37.1484 45.5864 37.3828 45.4692 37.6172C45.2935 37.9102 45.0005 38.0859 45.0005 38.0859C45.0005 38.0859 44.9419 38.4375 45.2935 38.2031C45.645 38.0273 45.8208 37.6758 45.8794 37.793C45.938 37.9102 46.1724 38.2031 46.1724 38.2031C46.1724 38.2031 45.8208 38.2031 45.5864 38.2617C45.4106 38.3203 45.1177 38.5547 45.352 38.6133C45.5864 38.6133 45.9966 38.5547 46.0552 38.4961C46.1138 38.4961 45.9966 38.7891 45.8794 38.9062C45.7622 38.9648 45.2349 39.4336 45.2349 39.4336C45.2349 39.4336 44.8247 39.9023 44.9419 40.3711C45.0591 40.8398 45.1177 40.8984 45.1763 41.1914C45.2349 41.4258 45.1763 42.0117 45.4106 42.0703C45.5864 42.1289 45.645 42.3047 45.938 42.2461C46.231 42.1875 46.4067 42.0703 46.4653 42.0703C46.5239 42.0703 46.5825 42.1289 46.6997 42.2461C46.8169 42.3047 46.9341 42.2461 47.227 42.1289C47.2856 42.0117 47.4028 41.8945 47.4614 41.7773C47.5786 41.6016 47.7544 41.1328 47.7544 41.1328C47.7544 41.1328 47.9302 40.8398 47.8716 40.7227C47.813 40.6055 47.8716 40.8398 48.2231 40.4297C48.5747 40.0195 48.6333 39.9609 48.5747 39.7852C48.5161 39.6094 48.4575 39.4922 48.5161 39.4922C48.5747 39.4336 48.6919 39.1992 48.9849 39.082C49.2778 38.9648 49.1606 39.1992 49.8052 38.6719C50.3911 38.1445 50.3911 38.1445 50.6841 37.8516C50.977 37.5586 50.6841 37.5586 51.0942 37.3242C51.5044 37.0898 51.4458 37.1484 51.8559 36.8555C52.2661 36.5625 52.4419 36.3867 52.6177 36.2695C52.7934 36.2109 53.438 35.6836 54.0239 35.2734C54.6099 34.9219 54.4927 34.9805 54.3755 35.0391C54.2583 35.0977 53.438 35.2734 53.2036 35.332C52.9692 35.3906 53.3794 34.9805 53.3794 34.9805C53.3794 34.9805 53.6724 34.6875 53.7309 34.8047C53.7895 34.9219 53.9067 35.0391 54.2583 34.8633C54.6099 34.7461 54.8442 34.5703 54.6099 34.4531C54.3755 34.3359 54.3755 34.3359 54.1997 34.2188C54.0239 34.1602 54.0239 34.1602 53.7309 34.1602C53.4966 34.1602 53.2622 34.1016 53.3208 34.043C53.438 33.9844 53.6138 33.8672 53.9653 33.75C54.2583 33.6328 54.3755 33.5742 54.5513 33.5156C54.727 33.457 54.9614 33.457 54.9614 33.3398C54.9614 33.2813 54.8442 33.2227 54.727 33.2813C54.8442 33.2227 55.0786 33.1641 55.1958 33.0469C55.3716 32.8125 55.6059 32.6367 55.313 32.7539C55.02 32.8711 55.4888 32.4609 55.4888 32.4609C55.4888 32.4609 55.6645 32.1094 55.2544 32.2852C54.8442 32.4609 54.4927 32.2852 54.9614 32.168C55.4302 31.9922 55.7231 31.8164 55.6059 31.8164C55.4888 31.8164 54.9028 31.8164 54.9028 31.8164C54.9028 31.8164 54.8442 31.6992 55.4888 31.2891C56.1333 30.8789 56.1919 30.5273 56.3677 30.4688C56.5434 30.4102 56.6606 30.293 56.895 30.2344C57.1294 30.1172 57.2466 30 57.2466 30C57.2466 30 57.2466 29.8242 56.7192 30L56.602 30.1172Z" fill="#9DD45D"/>
<path fill-rule="evenodd" clip-rule="evenodd" d="M55.8979 35.9178C55.6636 36.0936 55.6636 36.035 55.4292 36.1521C55.1948 36.2693 55.0776 36.2693 54.9604 36.4451C54.8432 36.5623 54.6675 36.6795 54.4917 36.7381C54.3159 36.7967 54.3745 36.6209 54.1987 36.5623C54.0229 36.5037 53.3784 37.0896 53.4956 37.1482C53.6128 37.2068 53.8471 36.9725 54.1401 36.8553C54.4331 36.7381 54.1401 36.9725 54.0815 37.0311L53.6714 37.4412C53.8471 37.3826 54.0229 37.3826 54.1987 37.324C54.1401 37.4412 54.0815 37.5584 53.9643 37.617C53.9643 37.617 54.3745 37.4412 54.4917 37.4412C54.6089 37.4998 54.9018 37.4412 55.1362 37.3826C55.312 37.324 55.5464 37.2068 55.5464 37.1482C55.5464 37.0896 56.0151 36.7381 56.3667 36.5623C56.7182 36.3865 56.9526 35.9178 56.9526 35.9178C56.8354 35.6834 56.1909 35.742 55.9565 35.9178H55.8979Z" fill="#9DD45D"/>
<path fill-rule="evenodd" clip-rule="evenodd" d="M36.0352 40.8396C36.0352 40.8396 36.3281 40.7224 36.3867 40.7224C36.5039 40.7224 36.6797 40.5466 36.6797 40.5466C36.6797 40.5466 36.6797 40.1951 36.5625 40.2537C36.4453 40.3123 36.2109 40.488 36.2109 40.488C36.1523 40.6052 36.0938 40.7224 36.0352 40.8982V40.8396Z" fill="#9DD45D"/>
<path fill-rule="evenodd" clip-rule="evenodd" d="M37.3825 60.7034C37.3825 60.7034 36.9137 60.469 36.2692 60.3518C35.6247 60.1761 35.6247 60.3518 35.4489 60.2346C35.2731 60.1761 35.2731 60.1175 35.0387 60.2346C34.8044 60.3518 34.57 60.5276 34.5114 60.6448C34.4528 60.762 34.5114 60.8206 34.5114 60.8206C34.57 60.8206 34.9215 60.469 35.0387 60.469C35.1559 60.469 35.1559 60.6448 35.2731 60.5862C35.4489 60.5276 35.6247 60.5276 35.7419 60.5862C35.859 60.6448 36.0348 60.469 36.0348 60.469L36.152 60.7034H36.3864V60.8792C36.3278 60.9378 37.0309 60.8792 37.3239 60.6448L37.3825 60.7034Z" fill="#9DD45D"/>
<path fill-rule="evenodd" clip-rule="evenodd" d="M54.6094 67.5C54.375 67.2656 54.668 67.0312 54.3164 67.0312C53.9648 67.0898 54.082 67.207 53.5547 67.0312C53.0273 66.8555 52.7344 66.6797 52.6172 66.6211C52.5 66.5625 51.9727 66.2695 51.7969 66.3281C51.5625 66.3281 51.5039 66.3281 51.2695 66.3867C51.0352 66.3867 50.8594 66.5039 50.6836 66.4453C50.5078 66.3867 50.1562 66.2109 49.8633 66.5625L49.7461 66.6797C49.7461 66.5625 49.6875 66.3867 49.6289 66.3281C49.5703 66.1523 49.5117 66.1523 49.1602 66.0938C48.75 66.0352 48.5156 65.918 48.3398 65.918C48.1641 65.918 47.9883 65.9766 47.9297 66.0938L47.8711 66.2109C47.9297 66.1523 47.9297 66.0352 47.8711 65.918C47.7539 65.7422 47.5781 65.8008 47.4609 65.8008C47.3437 65.8008 46.9922 65.8594 46.9922 65.8594C46.9922 65.8594 46.7578 65.7422 46.9336 65.625C47.1094 65.5078 47.168 65.4492 47.0508 65.332C46.9922 65.1562 47.1094 65.2734 46.7578 65.1562C46.4062 65.0391 46.5234 64.9805 46.4062 64.8047C46.2891 64.6289 46.0547 64.3945 46.0547 64.3945L45.8789 64.3359H45.8203C45.8203 64.3359 45.0586 64.043 44.8828 64.1016H44.8242C44.6484 64.1016 44.4141 64.043 44.2383 64.1016C44.0039 64.1602 43.8281 64.1602 43.8281 64.1602H43.7695C43.6523 64.1016 43.3594 63.9258 43.2422 63.9844C43.125 64.043 42.832 63.457 42.5977 63.5742C42.3633 63.6328 42.1289 63.5742 42.1289 63.5742C42.1289 63.5742 42.3633 63.3398 42.2461 63.2812C42.1289 63.2227 42.1289 63.2812 41.8945 63.2227C41.6602 63.1641 41.3086 63.1055 41.543 63.0469C41.8359 62.9883 41.7187 62.9297 41.7187 62.9297C41.4844 62.9297 41.25 62.9883 41.0156 62.9883C41.0156 62.9883 40.8984 63.2227 40.8398 63.2812C40.7227 63.3398 40.5469 63.1641 40.3711 63.2227C40.1367 63.2812 40.1953 63.3984 39.9609 63.3984C39.7852 63.457 39.7266 63.2812 39.7266 63.2812C39.7266 63.2812 39.6094 63.1641 39.5508 63.1641C39.4336 63.1641 39.1992 63.2227 39.082 63.2812C38.9648 63.2812 38.6719 63.6328 38.8477 63.75C39.0234 63.8672 39.1992 64.043 39.0234 64.1016C38.9062 64.1602 38.7305 64.1602 38.6719 63.9258C38.6133 63.75 38.7891 63.5742 38.6719 63.457L38.5547 63.3398L38.6133 63.2812L38.7891 63.1641C38.7891 63.1641 38.8477 62.9883 38.6719 63.1055C38.4961 63.2227 38.4961 63.2227 38.4375 63.2812C38.3789 63.3984 38.3203 63.457 38.2031 63.5156C38.0859 63.5742 38.0273 63.6328 38.0273 63.6914L37.9687 63.8086C37.9687 63.8086 37.8516 63.5742 37.793 63.6914C37.7344 63.8086 37.5 63.8672 37.5586 64.043C37.6172 64.2188 37.6758 64.4531 37.6758 64.4531C37.6758 64.4531 37.2656 64.5703 37.3828 64.8047C37.4414 65.0391 37.2656 65.2148 37.2656 65.2148C37.2656 65.2148 37.4414 64.7461 37.1484 64.6289C36.8555 64.5117 36.8555 64.4531 36.6797 64.5703C36.4453 64.6289 36.5039 64.8633 36.3281 64.8633L36.2109 64.9219C36.1523 64.9805 36.0937 64.9805 35.8594 64.8633C35.5664 64.7461 35.5664 64.7461 35.5078 64.6289L35.2734 64.5703C35.2148 64.5703 35.2148 64.5703 35.0977 64.5703C34.9805 64.6289 34.8047 64.6289 34.7461 64.6289C34.8047 64.8047 34.9219 65.0977 35.1562 65.0977C35.5078 65.0977 35.4492 65.0977 35.5664 65.2148C35.6836 65.332 35.7422 65.332 35.918 65.2734C36.0937 65.2148 36.3281 65.2734 36.3281 65.3906C36.3867 65.5078 36.6797 65.5078 36.5625 65.332C36.5039 65.2148 36.4453 65.2148 36.4453 65.2148L36.5039 65.1562C36.6211 65.0391 36.6211 64.9805 36.6797 64.9219C36.7383 64.8633 36.9141 64.7461 37.0312 64.8633C37.1484 64.9805 37.1484 65.0977 37.207 65.2148C37.207 65.2734 37.3828 65.332 37.4414 65.3906C37.5 65.5078 37.7344 66.3281 37.7344 66.3867C37.7344 66.4453 37.8516 66.7383 37.6758 66.8555C37.5 66.9727 37.4414 66.9727 37.5 67.1484C37.5586 67.3242 37.6172 67.2656 37.5586 67.3242L37.4414 67.5586C37.3828 67.5586 37.207 67.6172 37.3242 67.793C37.4414 68.0273 37.3242 68.0859 37.3242 68.1445C37.3242 68.2031 37.2656 68.2617 37.3242 68.4961C37.3828 68.7305 37.4414 68.9648 37.6758 68.8477C37.8516 68.7305 37.793 69.0234 37.793 69.082L37.7344 69.1992C37.6758 69.2578 37.6758 69.4336 37.793 69.8438C37.793 69.9609 37.7344 70.1953 37.9687 70.2539C38.2617 70.2539 38.3789 70.3711 38.6719 70.6641C38.9062 70.957 39.1406 71.25 39.3164 71.6016C39.4922 71.9531 39.8437 72.1875 40.0195 72.3633C40.1953 72.5391 40.3125 72.7148 40.3125 72.7148C40.3125 72.7148 40.4297 73.0078 40.8398 73.1836C41.1914 73.3594 41.4258 73.4766 41.6602 73.5352C41.8945 73.5938 42.1875 73.4766 42.3633 73.6523C42.5391 73.8281 42.7734 74.0625 42.8906 74.0625H42.9492C43.0664 74.1211 43.125 74.2383 43.125 74.1797C43.125 74.1211 43.8281 75.7031 44.0039 76.2891C44.1797 76.8164 44.8828 78.5156 44.8828 78.5742C44.8828 78.5742 45.3516 79.4531 45.1758 79.3945C45 79.2773 45.3516 79.6875 45.4687 79.8633C45.5859 80.0391 45.5859 80.0391 45.7031 80.3906C45.8203 80.7422 46.0547 81.3281 46.1133 81.5039C46.1719 81.6797 46.4648 82.6172 46.4648 82.6172C46.4648 82.6172 46.2305 82.6172 46.4648 82.9102C46.7578 83.2031 47.1094 83.3203 47.168 83.6133C47.2266 83.8477 47.1094 84.1992 47.3437 84.375C47.5781 84.6094 47.6367 84.9609 47.7539 84.9609C47.8711 84.9023 47.8125 85.1367 47.9883 85.4883C48.1641 85.7812 48.2812 85.8984 48.2812 85.8398C48.3398 85.7227 48.1641 85.4883 48.0469 85.2539C47.9297 85.0195 47.8711 84.7852 47.9883 84.8438C48.1055 84.9023 48.2812 85.1953 48.3398 85.3125C48.3984 85.3711 48.5156 85.6641 48.6328 85.8984C48.75 86.1328 48.8672 86.4844 48.8672 86.4844C48.8672 86.6016 48.8672 86.6602 48.8086 86.7773C48.8086 86.7773 48.5742 86.7188 48.6328 86.8945C48.6914 87.0703 48.75 87.4219 48.75 87.4219C48.75 87.4219 49.043 87.3633 49.1602 87.3633C49.2773 87.3633 49.3945 87.2461 49.4531 87.3047C49.4531 87.3633 49.4531 87.7148 49.3945 87.7734C49.3359 87.7734 49.3359 88.2422 49.3359 88.2422C49.3359 88.2422 49.6875 88.6523 49.8047 88.7109C49.9219 88.7695 50.2734 89.0625 50.332 89.1797C50.332 89.1797 50.3906 89.2383 50.5078 89.3555C50.8008 89.707 50.9766 89.7656 50.9766 89.7656C50.9766 89.7656 51.0352 89.707 51.1523 89.8242C51.2695 89.9414 51.5039 90 51.5039 90L51.6211 90.1758L51.8555 90.2344L52.3828 90.4688C52.4414 90.4688 52.7344 90.3516 52.9102 90.4102C53.0859 90.4688 53.3789 90.4688 53.4375 90.4102C53.4961 90.3516 53.8477 90.293 53.9648 90.2344H54.0234L54.1992 90.1172C54.2578 90.1172 54.375 90.0586 54.4922 90C54.6094 90 54.7852 89.9414 54.7852 89.9414C54.9023 89.8828 54.9609 89.7656 55.0781 89.707C54.9609 89.707 54.082 90.0586 53.3789 89.5312C52.6758 88.9453 53.0273 89.1211 52.5586 88.8867C52.1484 88.6523 51.8555 88.4766 52.0898 88.3594C52.3242 88.2422 52.3242 88.3594 52.2656 88.0078C52.207 87.6562 52.0898 87.5391 52.207 87.4805C52.3242 87.4219 52.4414 87.5977 52.2656 87.1289C52.0898 86.6602 51.9727 86.7188 51.7383 86.7773C51.5625 86.8359 51.3281 86.7773 51.1523 86.543C50.9766 86.25 50.918 85.957 51.1523 85.8984C51.3867 85.7812 51.3867 85.5469 51.3281 85.4297C51.2695 85.3125 51.0352 85.3125 51.2109 85.0781C51.3867 84.7852 51.5625 84.7266 51.3281 84.6094C51.0937 84.5508 50.7422 84.6094 50.6836 84.4336C50.625 84.2578 49.9805 83.9648 50.4492 83.9062C50.918 83.8477 51.1523 84.082 51.2109 83.8477C51.2695 83.6133 51.3867 83.6133 51.1523 83.3789C50.918 83.2031 50.5078 82.8516 50.6836 82.8516C50.8594 82.793 51.8555 82.8516 52.0312 82.4414C52.207 82.0898 52.1484 81.9141 52.0898 81.6797C52.0312 81.4453 51.9141 81.5039 51.6797 81.2695C51.4453 81.0352 51.9141 80.9766 51.5625 80.8594C51.2109 80.7422 50.918 80.8008 50.8594 80.625V80.5078C50.918 80.5078 51.0937 80.5078 51.3867 80.5664C51.7969 80.5664 51.9141 80.8594 52.2656 80.6836C52.5586 80.5078 52.793 80.5078 52.8516 80.332C52.9102 80.0977 52.793 79.5117 52.7344 79.2188C52.6758 78.9258 52.7344 78.5742 52.7344 78.5742C52.7344 78.5742 52.9102 78.6328 52.9102 78.9258C52.9102 79.1602 53.0273 78.9844 53.0273 78.5742C53.0859 78.2227 52.9687 78.1055 53.2031 77.8711C53.4375 77.6367 53.4375 77.5781 53.1445 77.2852C52.8516 76.9922 52.4414 76.7578 52.6172 76.5234C52.793 76.2891 53.0273 75.8789 53.1445 75.7617C53.2617 75.6445 53.6719 75.1758 54.0234 75.1758C54.3164 75.1758 55.0195 75.1758 55.0195 75.1172C55.0195 75.0586 54.7266 74.8242 55.0195 74.8242C55.3125 74.8242 55.3125 74.707 55.3125 74.707C55.3125 74.5312 55.2539 74.3555 55.2539 74.1797C55.2539 74.1797 55.3711 73.8281 55.3125 73.7109C55.2539 73.5352 55.1953 73.418 55.1367 73.1836C55.0781 72.9492 55.2539 73.0078 55.1953 72.7148C55.1367 72.4219 54.668 71.3086 54.5508 70.8984C54.375 70.4883 54.7266 70.7227 54.8437 70.7812C54.9609 70.8398 54.7852 70.7227 54.9023 70.4297C54.9609 70.1367 54.9023 70.0781 54.9023 69.9609C54.9609 69.8438 55.0781 69.7266 55.3125 69.5508C55.5469 69.3164 55.7227 69.082 55.5469 68.6719C55.3711 68.2031 55.2539 68.0273 55.0195 67.793L54.6094 67.5Z" fill="#9DD45D"/>
<path fill-rule="evenodd" clip-rule="evenodd" d="M86.5427 70.3711C86.2498 70.0195 86.3084 70.1953 86.3084 70.1953C86.3084 70.1953 86.1912 70.5469 86.1912 70.7227C86.1912 70.8984 86.1326 70.8984 85.9568 71.0742C85.781 71.3086 85.7224 71.3672 85.5467 71.543C85.4295 71.7773 85.0779 71.7188 84.9607 71.8945C84.8435 72.0703 84.492 72.1875 84.3748 72.3633C84.2576 72.5391 84.2576 72.5977 84.2576 72.9492C84.2576 73.3008 84.3162 73.3594 84.4334 73.6523C84.5506 73.9453 84.3162 73.8281 84.0818 74.1797C83.906 74.5313 83.8474 74.4727 83.6717 74.7656C83.4959 75.1172 83.7303 75.1172 83.7888 75.2344C83.906 75.3516 83.7888 75.5274 83.6717 75.7617C83.6131 75.9961 83.6717 75.9375 83.906 76.2891C84.199 76.582 84.4334 76.2891 84.6092 76.2891C84.7849 76.2891 85.0193 76.0547 85.0193 76.0547C85.4295 74.9414 85.8396 73.8867 86.1912 72.8906L86.2498 72.832C86.1912 72.5391 86.1912 72.3633 86.4256 72.3633C86.6599 72.3633 86.4841 72.1289 86.4841 72.1289C86.4841 72.1289 86.367 72.0703 86.367 71.7773C86.367 71.4844 86.6013 71.8945 86.6599 71.8359C86.7185 71.7773 86.7185 71.4844 86.7185 71.0742C86.7185 70.6641 86.6599 70.7813 86.367 70.4297L86.5427 70.3711Z" fill="#8BC34A"/>
<path fill-rule="evenodd" clip-rule="evenodd" d="M31.8168 42.1875C31.9926 42.1289 32.6371 42.0117 32.4027 42.1289C32.1684 42.2461 31.9926 42.4219 32.0512 42.4219C32.1098 42.4219 32.4613 42.2461 32.6957 42.1875C32.9301 42.1289 33.0473 42.0117 33.1644 41.8945C33.2816 41.8359 33.809 41.6602 33.809 41.6602C33.9848 41.4844 34.1019 41.25 34.2777 41.0742C34.1019 41.1328 33.9262 41.1328 33.809 41.1914C33.809 41.1914 33.809 40.957 33.6918 40.957C33.5746 41.0156 33.4574 41.3086 33.3988 41.4844C33.3988 41.6602 32.8715 41.6602 32.8715 41.6602C32.9887 41.6016 33.0473 41.543 33.1644 41.4844C32.9887 41.4844 32.7543 41.4844 32.5785 41.4844L32.8129 41.25L32.5199 41.4258L32.5785 41.0742C32.5785 41.0742 32.3441 41.25 32.1684 41.3086C32.0512 41.3086 31.934 41.3672 31.8168 41.4258C31.6996 41.6016 31.641 41.7188 31.5238 41.8945L31.5824 41.8359C31.6996 41.7773 31.934 41.7773 31.8168 41.8945C31.6996 42.0117 31.5824 42.0703 31.5238 42.1289C31.4652 42.1875 31.6996 42.2461 31.8754 42.1289L31.8168 42.1875Z" fill="#9DD45D"/>
<path fill-rule="evenodd" clip-rule="evenodd" d="M31.5234 42.9492L31.2305 42.6562C31.1719 42.6562 31.0547 42.7148 30.9375 42.832C30.7617 43.125 30.5859 43.4766 30.4102 43.7695C30.8203 43.4766 31.2891 43.2422 31.3477 43.1836L31.5234 42.9492Z" fill="#9DD45D"/>
<path fill-rule="evenodd" clip-rule="evenodd" d="M93.5742 56.3672C93.5156 56.4258 93.3984 56.4258 93.2812 56.4258C93.3984 56.6016 93.5156 56.7188 93.6328 56.8945C93.6328 56.7188 93.5742 56.543 93.5742 56.3086V56.3672Z" fill="#8BC34A"/>
<path fill-rule="evenodd" clip-rule="evenodd" d="M34.6875 64.3946L34.5703 64.1602C34.6289 64.1602 34.6289 64.1602 34.7461 64.2188C34.8633 64.2774 34.8633 64.336 34.9805 64.3946C35.0977 64.4532 35.2148 64.4532 35.1562 64.336C35.0977 64.2188 35.0977 64.1602 35.1562 63.9844C35.2148 63.8086 35.0977 63.5743 35.0977 63.5157C35.0977 63.3985 35.0977 63.2813 35.0977 63.2813C35.0977 63.2227 35.0391 63.1055 34.9805 63.0469C34.9219 62.9883 34.8633 62.8711 34.8633 62.8711C34.8633 62.8711 34.7461 62.754 34.3359 62.8711C33.9844 62.9883 33.9258 63.1055 33.8086 63.1055H33.75C33.6328 63.1055 33.5156 63.2227 33.5742 63.1641V63.1055C33.6914 62.8711 33.6328 63.0469 33.6914 62.8125C33.75 62.5782 33.6914 62.6368 33.75 62.4024C33.8086 62.2852 33.8086 62.2266 33.8086 62.168C33.8086 62.1094 33.8086 62.1094 33.75 61.9922C33.6914 61.7579 33.6914 61.6993 33.75 61.5821C33.8086 61.4649 33.9258 61.1719 33.5742 61.2891C33.2227 61.4063 32.6953 61.5235 32.7539 61.7579C32.8125 61.9922 32.8125 62.168 32.6953 62.2852C32.5781 62.4024 32.5781 62.5196 32.5781 62.5782C32.6367 62.6368 32.6367 62.754 32.4609 62.6368C32.2852 62.5196 32.2266 62.8125 31.9336 62.8711C31.6406 62.9297 31.7578 62.6954 31.582 62.754C31.4062 62.8125 31.4648 62.8125 31.2891 62.6368C31.1719 62.461 30.9375 62.461 30.8789 62.168C30.8203 61.875 30.7617 61.3477 30.7031 61.1133C30.6445 60.8204 30.7617 60.8204 30.7617 60.7032V60.586C30.7617 60.4688 30.7617 60.3516 30.7031 60.2344C30.6445 60.0586 30.6445 59.9415 30.8789 59.7657C31.1133 59.5899 31.0547 59.7071 31.1719 59.4727C31.2891 59.2383 30.9961 59.2969 31.4062 59.1797C31.8164 59.0625 31.8164 59.0625 31.9336 59.0039C32.1094 58.9454 32.168 58.8282 32.2852 58.8868C32.4023 58.9454 32.5195 59.0625 32.6367 58.8868C32.7539 58.711 32.6953 58.5938 32.6953 58.5938C32.6953 58.5938 32.5195 58.418 33.0469 58.418C33.5742 58.3594 33.457 58.0664 33.6328 58.2422C33.8086 58.418 33.8672 58.5352 33.9844 58.3594C34.1016 58.2422 34.043 58.0664 34.1602 58.1836C34.3359 58.3008 34.5703 58.3008 34.5117 58.418C34.5117 58.5352 34.5117 58.5352 34.5703 58.711C34.6289 58.8868 34.6875 59.1211 34.8633 59.2969C35.0391 59.4727 35.1562 59.7071 35.2734 59.4141C35.3906 59.0625 35.3906 59.2383 35.2734 58.8282C35.1562 58.418 34.9805 58.0664 34.9805 58.0079C34.9805 57.9493 34.6875 57.5977 35.0391 57.1875C35.3906 56.7188 35.3906 56.6016 35.625 56.4844C35.8594 56.3086 35.8594 56.4258 35.918 56.1914C36.0352 56.0157 35.9766 55.8985 36.0352 55.8985C36.0938 55.8985 36.0938 55.7813 36.1523 55.7813L36.3281 55.6641L36.2695 55.4883L36.0938 55.5469L36.3281 55.3711L36.2695 55.1954H36.0938C36.1523 55.1368 36.3281 55.0782 36.2695 54.961C36.2695 54.8438 36.1523 54.6094 36.1523 54.6094C36.1523 54.6094 36.0938 54.0235 36.2109 54.4922C36.3281 54.961 36.3281 55.1368 36.4453 54.8438C36.5625 54.4922 36.5039 54.375 36.5039 54.375H36.6797C36.6797 54.375 36.9141 53.9063 36.9141 53.7305C36.8555 53.5547 36.8555 53.6133 37.1484 53.4375C37.4414 53.3204 37.5586 53.1446 37.6758 53.086C37.7344 53.0274 37.9102 53.0274 37.9688 52.9688C37.9102 52.9688 37.8516 52.9688 37.9102 52.6172C38.0273 52.1485 38.0859 52.0313 38.3203 51.9141C38.4961 51.7969 38.5547 51.6211 38.7305 51.5625L38.9062 51.5039C39.0234 51.4454 39.082 51.4454 39.082 51.3868L39.1406 51.211L39.3164 51.0938C39.4336 51.0352 39.5508 50.8594 39.668 50.8008C39.7852 50.7422 39.3164 51.0352 39.1992 51.3282C39.082 51.6211 39.2578 51.9141 39.4336 51.6211C39.6094 51.3282 39.5508 51.3282 39.7852 51.2696C39.9609 51.211 40.1367 51.0352 40.2539 50.9766C40.3711 50.918 40.6641 50.625 40.7227 50.625C40.7812 50.625 40.8984 50.4493 41.0742 50.2149C41.1914 49.9805 41.1328 49.9219 40.957 50.0391C40.7812 50.0977 40.957 49.7461 40.8984 49.7461C40.8398 49.7461 40.6641 49.9805 40.6641 50.0977C40.6641 50.2149 40.4883 50.2735 40.4883 50.3321C40.4297 50.3907 40.3125 50.4493 40.1367 50.4493C39.9609 50.4493 39.7266 50.5079 39.7266 50.3907C39.7266 50.2735 39.668 50.0977 39.7852 49.9805C39.9023 49.8633 39.9023 49.8633 39.9609 49.7461C40.0195 49.6289 40.3125 49.2188 39.9609 49.336C39.668 49.4532 39.5508 49.3946 39.2578 49.5704C39.0234 49.7461 38.8477 50.0391 38.7305 50.0391C38.6719 50.0391 38.4961 50.2735 38.3789 50.5079C38.3203 50.625 38.2031 50.7422 38.2031 50.8008L38.1445 50.8594C38.0273 50.918 37.9688 50.8008 37.9688 50.8008C37.9688 50.8008 38.0273 50.6836 38.2031 50.5079C38.3789 50.3907 38.3789 50.2149 38.5547 50.0391C38.7305 49.8633 38.7305 49.8633 38.7891 49.7461C38.9062 49.6875 39.0234 49.5118 39.0234 49.5118L39.1992 49.336C39.2578 49.2774 39.1992 49.1016 39.3164 49.043C39.4336 48.9844 39.9023 48.8086 40.0781 48.75C40.2539 48.6914 40.6055 48.5157 40.7227 48.4571C40.8398 48.4571 41.0742 48.2813 41.1914 48.2813C41.25 48.2227 41.3086 48.2227 41.4844 47.9883C41.6602 47.7539 41.6016 47.6954 42.0703 47.461C42.5391 47.2266 42.6562 47.168 42.6562 46.9336C42.6562 46.6993 42.7148 46.5821 42.5977 46.5235C42.5391 46.4649 42.3633 46.6407 42.3047 46.4649C42.2461 46.2891 42.1289 46.4063 41.9531 46.5821C41.7773 46.7579 41.6602 46.9336 41.4844 46.9922C41.3086 47.0508 41.0742 46.9922 41.3672 46.8164C41.6602 46.6407 41.7188 46.5821 41.8945 46.4649C42.0703 46.3477 42.0117 46.3477 42.1875 46.2305C42.3633 46.1133 42.3633 46.1133 42.0703 46.1133C41.7773 46.1719 41.8945 46.2305 41.6602 46.1719C41.4258 46.1133 41.1914 46.1133 41.1914 45.9375C41.1914 45.7618 41.3086 45.9375 41.3086 45.586C41.3672 45.2344 40.8984 44.2383 40.8984 44.2383C40.8984 44.2383 40.7227 44.7071 40.4297 45C40.1367 45.293 39.9609 45.4102 39.9023 45.586C39.8438 45.7032 39.7852 45.8204 39.7266 45.6446C39.668 45.4688 39.6094 45.4688 39.5508 45.5274C39.4922 45.5274 39.0234 45.7032 39.4922 45.2344C39.9609 44.7657 39.7266 44.9414 39.668 44.7657C39.6094 44.5899 39.4922 44.6485 39.375 44.7071C39.2578 44.7657 39.1406 44.7071 39.1406 44.5313C39.082 44.3555 38.9062 44.3555 38.6719 44.4727C38.4375 44.5899 38.2617 44.7657 38.1445 44.7657C38.0273 44.7657 37.6172 44.7071 37.6172 45.0586C37.6172 45.4688 37.4414 45.5274 37.5 45.6446C37.5586 45.8204 37.5586 45.9375 37.4414 45.9961C37.2656 46.0547 36.9141 46.4649 37.1484 46.6407C37.4414 46.8164 37.4414 46.8164 37.4414 47.0508C37.4414 47.2852 37.3242 47.8125 36.3867 48.3985C36.3867 48.3985 36.3281 48.8672 36.3867 49.043C36.4453 49.2188 36.4453 49.2774 36.2695 49.3946C36.1523 49.5704 36.2109 49.6875 36.0352 49.7461C35.8594 49.8047 35.8594 49.9219 35.7422 49.7461C35.6836 49.5704 35.625 49.7461 35.625 49.5118C35.625 49.2774 35.5078 49.3946 35.6836 49.1016C35.8594 48.8086 35.6836 48.9844 35.8008 48.75C35.918 48.5157 35.918 48.3985 35.8594 48.3985L35.1562 48.5743C35.1562 48.5743 35.0391 48.3985 34.8047 48.4571C34.5703 48.5157 34.3359 48.1641 34.043 48.2813C33.75 48.3985 33.5156 48.5157 33.5156 48.5157C33.5156 48.5157 33.6914 48.1641 33.6328 47.9297C33.5742 47.7539 33.2812 47.8711 33.2812 47.8711C33.2812 47.8711 33.8086 46.2305 34.6875 45.9375C34.8047 45.8789 35.0977 45.4688 34.8047 45.586C34.5117 45.7032 34.9805 45.4102 35.1562 45.3516C35.332 45.293 35.2734 45.2344 35.4492 45.1758C35.6836 45.1172 35.332 45.3516 35.7422 45C36.1523 44.6485 36.2109 44.5899 36.2109 44.5313C36.2109 44.4141 35.918 44.6485 35.8008 44.5899C35.625 44.5313 35.5664 44.4727 35.5664 44.4727C35.5664 44.4727 35.7422 44.4141 35.918 44.3555C36.0352 44.3555 36.1523 44.2969 36.2695 44.2383C36.3867 44.1797 36.3281 44.2383 36.3867 44.0625C36.3867 43.8868 36.3867 43.8282 36.5625 43.7696C36.7383 43.711 36.7383 43.5938 36.9141 43.6524C37.0898 43.6524 36.9141 43.5938 37.207 43.5352C37.5 43.4766 37.207 43.5352 37.5586 43.3008C37.9102 43.0079 38.0859 43.0079 38.0273 42.8321C37.9688 42.6563 37.6172 42.8321 37.8516 42.5391C38.1445 42.2461 38.2617 42.3047 38.2031 42.1875C38.1445 42.0703 37.8516 42.0118 37.793 42.0703C37.7344 42.1289 37.6172 42.0118 37.4414 42.1875C37.2656 42.3633 37.3242 42.5977 37.207 42.7149C37.1484 42.8321 37.0312 42.7735 36.9141 43.0079C36.7969 43.2422 36.6797 43.2422 36.6211 43.3594C36.5039 43.4766 36.6211 43.4766 36.5039 43.4766C36.3867 43.4766 36.2695 43.3594 36.4453 43.2422C36.6211 43.125 36.8555 43.0664 36.6797 42.8907C36.5039 42.7149 36.3281 42.6563 36.2109 42.8907C36.0938 43.125 35.9766 43.2422 35.9766 43.1836C35.918 43.125 35.8594 42.6563 35.8008 42.8321C35.7422 43.0079 35.5078 43.125 35.332 43.3008C35.2148 43.4766 34.9805 43.5352 34.9219 43.711C34.8633 43.8282 34.7461 44.0039 34.6875 44.1211C34.6289 44.2383 34.6875 44.4141 34.6289 44.4141C34.5703 44.4141 34.5117 44.6485 34.4531 44.4141C34.3945 44.1797 34.3359 44.1211 34.2188 44.1797C34.043 44.2383 33.8672 44.2969 33.75 44.3555C33.6914 44.3555 33.6328 44.4141 33.457 44.4727C33.2812 44.5899 33.0469 44.7071 33.0469 44.7071C33.0469 44.7071 32.8711 44.4141 32.6367 44.5313C32.3438 44.6485 32.168 44.6485 32.0508 44.7657C31.9336 44.8829 31.8164 45 31.8164 45.1758C31.8164 45.293 31.8164 45.4688 31.7578 45.4688C31.6406 45.4102 31.6992 45.3516 31.582 45.2344C31.4648 45.1172 31.5234 45.0586 31.2891 45.1758C31.0547 45.2344 30.3516 45.586 30.3516 45.586C30.3516 45.586 30.2344 45.5274 30.5273 45.4102C30.8203 45.293 30.8789 44.9414 30.4102 45.0586C29.9414 45.1758 29.8828 45.3516 29.7656 45.2344C27.6562 49.6289 26.4258 54.5508 26.4258 59.7071V59.9415C26.543 60 26.543 60.1758 26.6016 60.3516C26.7188 60.586 26.7188 60.8204 26.8359 60.9375C26.9531 60.9961 27.1289 60.9375 27.1289 61.0547C27.1875 61.1719 27.3633 61.2891 27.4805 61.3477C27.5977 61.4063 27.4805 61.4063 27.5977 61.5235C27.7148 61.6993 27.7734 61.5235 28.0078 61.7579C28.1836 61.9336 28.7109 62.0508 28.7695 62.4024C28.8867 62.6954 28.8867 62.754 28.8281 62.8711C28.7695 63.0469 28.6523 63.1641 28.8281 63.2227C29.0039 63.2813 29.4727 63.5743 29.6484 63.5743C29.8242 63.5157 30.0586 63.5157 30.0586 63.5157C30.0586 63.5157 30.6445 63.6915 30.8203 63.75C31.0547 63.8086 30.9375 63.8086 31.2305 63.8086C31.4648 63.8086 31.8164 63.9258 31.8164 63.75C31.875 63.6329 31.9922 63.4571 32.1094 63.4571C32.2852 63.4571 32.6367 63.75 32.6953 63.8086L32.8125 63.8672C32.9297 63.9258 33.0469 63.9258 33.2227 63.9844C33.3398 63.9844 33.457 63.9844 33.5742 63.9844C33.8086 63.9258 33.75 63.9844 33.9844 63.9258H34.1016L34.1602 63.9844C34.2188 64.043 34.1602 64.1602 34.2773 64.2188C34.4531 64.2774 34.6875 64.3946 34.7461 64.3946L34.8047 64.336L34.6875 64.3946Z" fill="#9DD45D"/>
<path fill-rule="evenodd" clip-rule="evenodd" d="M91.699 50.508H91.8162H91.699ZM87.5975 57.7736H87.5389H87.5975ZM75.7029 44.0041L75.7615 44.0627L75.7029 44.0041ZM93.5154 56.2502C92.6365 48.5744 89.2381 41.7189 84.1404 36.4455C84.0232 36.5041 83.906 36.6798 83.906 36.6798C83.7303 36.6213 83.4959 36.6213 83.3201 36.5627L83.2029 36.7384C83.0857 36.7384 82.91 36.7384 82.7928 36.7384C82.7928 36.7384 82.91 36.6213 82.9685 36.4455C82.9685 36.2697 82.6756 36.3283 82.617 36.3869L82.324 36.5041C82.324 36.5041 82.0896 36.5041 81.9139 36.6213C81.7967 36.6798 81.5623 37.0314 81.5623 37.0314C81.5623 37.1486 81.5037 37.2072 81.5037 37.3244C81.5037 37.3244 80.9764 37.383 80.8592 37.2658C80.742 37.1486 80.5662 36.9142 80.9178 36.9142C81.2693 36.9142 80.8006 36.5627 80.5076 36.5627C80.2146 36.5627 80.0975 36.5627 80.2146 36.9142C80.3318 37.2658 80.6248 37.4416 80.6248 37.6173C80.6248 37.7931 80.5076 37.6759 80.5076 37.6759C80.5076 37.6759 80.3318 37.5002 80.156 37.5002C79.9803 37.5002 79.5115 37.7345 79.4529 37.9103C79.3943 38.0275 79.8045 38.3205 79.6287 38.3791C79.5115 38.4377 79.0428 38.3791 78.8084 38.2033C78.574 38.0275 78.2225 38.2619 78.6912 38.4963C79.1014 38.7306 78.9842 38.965 78.8084 38.7892C78.6326 38.6134 78.4568 38.4963 78.3396 38.4963C78.2225 38.4963 78.0467 38.4377 78.0467 38.4377C78.0467 38.4377 78.1053 38.3205 77.9295 38.0861C77.7537 37.8517 77.8123 37.6759 77.8123 37.6759C77.8123 37.6759 77.5193 37.6173 77.285 37.4416C77.0506 37.2658 77.3435 37.383 77.4607 37.383C77.5779 37.383 78.0467 37.6173 78.5154 37.6759C78.9842 37.7345 79.5701 37.6173 79.5701 37.383C79.5115 37.09 79.2771 36.8556 78.9842 36.797C78.6912 36.7384 78.5154 36.7384 78.2225 36.5041C77.9881 36.2697 77.5779 36.2111 77.2264 36.1525C76.8748 36.1525 76.7576 36.0939 76.6404 35.9767C76.5232 35.8595 76.0545 36.0353 76.0545 36.0353C76.0545 36.0353 75.8201 35.7424 75.9373 35.7424C76.0545 35.7424 76.0545 35.7424 76.0545 35.7424C76.0545 35.7424 75.9373 35.6838 75.8201 35.6252C75.7029 35.508 75.41 35.4494 75.41 35.4494L75.3514 35.6252C75.3514 35.508 75.2928 35.3908 75.2928 35.2736C75.2342 35.3322 75.117 35.3908 75.0584 35.4494C74.9998 35.508 74.9412 35.6252 74.824 35.6838C74.824 35.5666 74.824 35.508 74.824 35.3908C74.7654 35.4494 74.6482 35.5666 74.5896 35.6252C74.5896 35.508 74.6482 35.3908 74.6482 35.215C74.6482 35.215 74.531 35.1564 74.2967 35.215C74.0623 35.2736 74.0037 35.4494 74.0037 35.508C74.0037 35.6252 73.8279 35.508 73.7693 35.508L73.4764 35.5666C73.4764 35.5666 73.4764 35.6252 73.242 35.6252C73.0076 35.6252 72.8904 35.4494 72.8904 35.6252C72.8904 35.8009 72.656 35.8009 72.5975 35.8595L72.4803 36.2111C72.4803 36.2111 72.0701 36.2697 72.0115 36.2111C71.9529 36.1525 71.8357 36.2697 71.8357 36.5041C71.8357 36.6798 71.66 36.7384 71.6014 36.7384L71.3084 37.0314C71.3084 37.1486 71.2498 37.2658 71.2498 37.3244C71.2498 37.3244 71.1912 37.6173 71.074 37.6759C70.9568 37.6759 70.781 38.0275 70.6639 37.9689C70.5467 37.9689 70.4881 38.3205 70.3709 38.2619C70.2537 38.2619 70.1951 38.2619 70.1365 38.2619H69.6678L69.5506 38.672C69.492 38.7306 69.4334 38.7306 69.2576 38.7892C69.0818 38.8478 68.906 38.8478 68.9646 38.965C68.9646 39.0236 69.0818 39.1994 69.0818 39.1994C69.2576 39.1994 69.4334 39.258 69.6092 39.258C69.3748 39.258 69.1404 39.258 68.9646 39.258C69.0232 39.4338 69.0232 39.5509 69.0818 39.7267C69.199 39.6681 69.3748 39.6095 69.492 39.5509C69.3748 39.7267 69.2576 39.8439 69.199 40.0197C69.2576 40.1369 69.3748 40.3127 69.4334 40.4298C69.4334 40.4298 69.4334 40.6642 69.9607 40.6056C70.4881 40.547 70.5467 40.3127 70.6639 40.3127C70.781 40.3127 70.8982 39.8439 70.9568 40.0783C71.0154 40.2541 71.0154 40.3127 71.1912 40.3127H71.2498C71.5428 40.3127 70.8982 40.4298 71.2498 40.6056C71.5428 40.7814 71.4842 40.7814 71.66 41.133C71.8357 41.5431 71.7771 41.5431 71.7771 41.6603C71.7771 41.7775 71.8943 41.9533 72.0701 41.9533C72.2459 41.9533 72.3045 41.8947 72.3045 41.7775C72.3045 41.6603 72.5389 41.6603 72.7146 41.7189C72.8904 41.7189 73.0662 41.6603 73.0076 41.3088C72.949 40.9572 73.0076 40.6056 73.0076 40.6056C73.0076 40.6056 73.7107 40.3713 73.5935 40.0783C73.4764 39.7853 73.0076 39.8439 72.8904 39.258C72.7146 38.672 73.3006 38.6134 73.5935 38.4377C73.8865 38.2033 74.0623 38.0275 74.0623 38.0275C74.0623 38.0275 73.7693 37.9103 73.8865 37.7931C74.0623 37.6759 74.0623 37.5588 74.1795 37.5588C74.2967 37.5588 74.5896 37.5002 74.6482 37.5002H74.7654C74.9412 37.5002 75.2342 37.5588 75.1756 37.6759C75.0584 37.7931 75.1756 37.9103 75.0584 37.9103L74.4139 38.4377C74.4139 38.4377 74.0037 38.6134 74.1209 38.9064C74.2381 39.258 74.3553 39.6681 74.3553 39.6681C74.3553 39.6681 74.3553 39.7853 74.531 39.8439C74.7068 39.9025 74.824 40.0783 74.9412 40.0783C75.0584 40.0783 75.3514 40.0783 75.41 40.0783L75.8201 40.0197H76.0545L76.2303 39.8439H76.3475H76.5232C76.6404 39.9025 76.699 39.9025 76.8162 39.9611C76.699 40.0197 76.6404 40.0783 76.5232 40.1369L76.406 40.2541C76.0545 40.2541 75.7615 40.2541 75.41 40.2541C75.41 40.2541 74.7068 40.547 75.1756 40.84L75.3514 41.0158C75.5857 41.2502 75.5857 41.4845 75.41 41.4845C75.1756 41.4845 75.117 41.3088 75.117 41.3088C75.117 41.3088 74.824 40.8986 74.531 41.0158C74.1795 41.133 74.2381 41.1916 74.4139 41.4259C74.6482 41.7189 74.4139 41.6017 74.531 41.7189C74.6482 41.8361 74.4725 41.9533 74.5896 42.0705C74.6482 42.1291 74.5896 42.1877 74.4725 42.1877C74.3553 42.2463 74.2381 42.3048 74.3553 42.3634C74.5896 42.4806 73.8279 42.422 73.8279 42.422L73.5935 42.1877C73.5935 42.1877 73.1834 42.2463 73.0076 42.3634C72.7732 42.422 72.3631 42.5392 72.3631 42.5392L72.2459 42.4806L72.0115 42.422L71.66 42.2463C71.6014 42.3048 71.367 42.3634 71.2498 42.3634C71.1326 42.3634 70.9568 42.3048 70.8982 42.1877C70.781 42.1291 70.6053 42.1877 70.6053 41.9533C70.6639 41.6603 70.6639 41.7189 70.8982 41.6017C71.1326 41.4845 71.1912 41.4845 71.074 41.3673C70.9568 41.2502 70.7225 41.3673 70.8396 41.1916C70.8982 41.0158 71.074 40.84 70.8982 40.84C70.781 40.84 70.6053 40.84 70.5467 40.9572C70.4295 41.0744 70.3709 41.133 70.3709 41.133C70.3709 41.133 70.0193 41.133 70.0779 41.2502C70.0779 41.3673 70.0779 41.5431 70.1365 41.6017C70.1951 41.7189 70.4881 42.0705 70.4881 42.0705C70.4881 42.0705 70.4295 42.422 70.3123 42.422C70.1951 42.422 70.3709 42.422 69.8435 42.5978H69.785C69.199 42.7736 69.1404 42.4806 68.9646 42.8322C68.7889 43.1838 68.9646 43.2423 68.5545 43.3009H68.4959C68.1443 43.3595 68.2615 43.4181 68.2029 43.5353C68.1443 43.5939 68.0271 43.5939 67.91 43.6525C67.91 43.6525 67.91 43.5939 67.8514 43.5353C67.5584 43.3595 67.4412 43.5939 67.5584 43.3595C67.7342 43.1252 67.7928 43.2423 67.8514 43.008C67.91 42.8322 68.0271 42.7736 67.8514 42.715C67.6756 42.6564 67.4998 42.8908 67.324 42.715C67.1482 42.5978 67.3826 42.6564 67.2654 42.3634C67.1482 42.0705 67.2654 42.0705 67.031 41.8947C66.7967 41.7189 66.6795 41.8361 66.6795 41.8361C66.6795 41.8361 66.8553 41.4259 66.4451 41.3088C66.035 41.133 65.8592 41.2502 65.8592 41.2502C65.8592 41.2502 65.8592 41.1916 66.2107 41.0744C66.5623 40.9572 66.5623 40.6642 66.5623 40.6642C66.5623 40.6642 66.1521 40.547 65.9764 40.547C65.8006 40.547 65.6834 40.7228 65.6248 40.6642C65.6248 40.6056 65.6248 40.4298 65.8006 40.3713C65.9178 40.3127 66.0935 40.1955 66.0935 40.1955C65.8592 40.1369 65.6248 40.1369 65.3904 40.0783C65.3904 40.0783 65.2732 40.3127 65.0975 40.4884C64.9217 40.6642 64.8631 40.7228 64.8631 40.8986C64.8631 41.0158 65.2146 41.133 65.2146 41.133C65.2146 41.133 64.9217 41.3088 65.0389 41.3673C65.156 41.3673 65.5662 41.3673 65.449 41.3673C65.3318 41.4259 65.156 41.4845 65.156 41.4845C65.2732 41.4845 65.3318 41.4845 65.3904 41.4845C65.3904 41.4845 65.0389 41.7189 65.0975 41.7189C65.2146 41.7189 65.6248 41.6603 65.6248 41.6603C65.6248 41.6603 65.8006 41.6017 65.8006 41.7775C65.8006 42.0119 65.9764 42.1877 65.9764 42.1877C65.9764 42.1877 66.3279 42.2463 65.9178 42.422C65.5076 42.5978 65.5662 42.5978 65.449 42.5392C65.3318 42.5392 65.742 42.8322 65.6248 42.8908C65.5076 42.9494 65.156 42.8322 65.156 42.8908C65.156 42.9494 65.3318 43.1252 65.449 43.1252C65.5662 43.1252 65.8592 43.4181 66.0935 43.0666C66.0935 43.0666 65.9764 43.3595 65.6834 43.3595C65.3904 43.3009 65.0975 43.4181 65.0975 43.7697C65.0975 43.7697 65.2732 43.7111 65.6834 43.7111C66.035 43.7111 66.035 43.6525 66.2107 43.7111C66.4451 43.7111 66.4451 43.7111 66.6795 43.7111C66.9139 43.7111 67.1482 43.7111 67.324 43.7111C67.3826 43.7111 67.5584 43.7111 67.6756 43.6525L67.617 43.7111C67.617 43.8283 67.617 44.0627 67.4412 44.0627C67.324 44.0627 67.2654 44.2384 67.2654 44.2384C67.2654 44.2384 66.9139 44.3556 66.6795 44.1213C66.4451 43.9455 66.4451 43.9455 66.5037 44.1798C66.5623 44.4142 66.6795 44.4728 66.4451 44.4142C66.2107 44.4142 66.035 44.4142 66.035 44.4142C66.035 44.4142 65.5662 44.297 65.449 44.297C65.2732 44.297 65.3318 44.59 65.3318 44.7072C65.3318 44.8244 65.5076 44.59 65.8592 44.8244C66.2107 45.1173 66.4451 45.3517 66.5037 45.4103C66.5623 45.4689 66.6209 45.7033 66.6209 45.8791C66.6209 46.1134 66.7381 46.6408 66.5623 46.6408H66.3279C66.2107 46.6408 66.0935 46.6994 66.0935 46.6994C65.3904 46.5822 64.6287 46.465 63.867 46.3478C63.867 46.3478 62.9295 46.465 63.281 46.8752C63.281 46.8752 63.281 46.9338 63.281 46.9923C63.281 47.1095 63.3396 47.2853 63.3396 47.5197C63.3396 47.9298 63.0467 48.047 62.9881 48.1642C62.8709 48.2814 62.7537 48.5158 62.9295 48.5744C63.1053 48.5744 63.1639 49.2189 63.1639 49.2189C63.1639 49.2189 63.1053 49.2775 63.4568 49.3361C63.8084 49.3361 63.7498 49.3947 63.8084 49.3947H63.867C63.9842 49.3361 64.2771 49.2775 64.3943 49.5705C64.5115 49.8634 64.5115 49.922 64.6873 49.922C64.8631 49.922 64.7459 49.6291 65.0389 49.6291C65.3318 49.6291 65.3904 49.5705 65.742 49.5705C66.0935 49.5705 66.2693 49.5705 66.2693 49.5705C66.2693 49.5705 66.4451 49.2775 66.6209 49.3361C66.7967 49.3947 66.7967 48.8673 66.9725 48.8673C67.2068 48.8673 66.7967 48.3986 67.0896 48.1642C67.3826 47.9298 67.4412 47.6955 67.6756 47.6955C67.91 47.6955 68.1443 47.6369 68.1443 47.6369C68.2029 47.4611 68.2615 47.2853 68.2615 47.1095C68.2615 47.1095 68.1443 46.758 68.5545 46.758C68.906 46.758 69.3162 47.0509 69.5506 47.0509C69.785 46.9923 69.9021 46.8752 69.9607 46.758L70.0193 46.6994C70.0779 46.5822 70.0193 46.465 70.4295 46.5822C70.8982 46.6994 71.074 46.6994 71.1326 47.0509C71.1326 47.3439 71.1326 47.2267 71.4256 47.5197C71.7771 47.7541 72.0115 47.9884 72.2459 48.047C72.4803 48.1642 72.7146 48.047 73.0662 48.5158C73.3592 48.9845 73.7107 49.1017 73.4764 49.1603C73.242 49.2189 73.535 49.3947 73.1248 49.3947C72.656 49.3947 72.7146 49.3947 72.4217 49.3947C72.1287 49.3947 72.0115 49.5119 72.1287 49.6291C72.2459 49.7463 73.1248 50.0978 73.1248 50.0978C73.1834 49.922 73.242 49.8048 73.3006 49.6291C73.3006 49.6291 73.5935 49.6291 73.7107 49.4533C73.8279 49.2775 73.8865 49.1603 74.0623 49.1603C74.2381 49.1603 73.8865 48.8088 73.7693 48.6916C73.6521 48.633 73.8865 48.34 74.1795 48.633C74.4725 48.9845 74.7654 48.7502 74.2381 48.34C73.7107 47.9884 73.535 47.9884 73.4178 47.9298C73.3592 47.8713 73.3006 47.6955 73.3006 47.6955C73.1834 47.6369 73.0076 47.5783 72.8904 47.5197C72.8318 47.4025 72.7732 47.3439 72.7146 47.2267C72.7146 47.2267 72.656 47.1095 72.3631 46.8752C72.0701 46.6994 71.8943 46.5236 71.8943 46.5236C71.8943 46.5236 71.7185 46.0548 71.9529 46.0548C72.1287 46.0548 72.1287 45.9377 72.2459 45.9963L72.4217 46.1134C72.656 46.4064 72.8318 46.5236 72.8904 46.5236C72.949 46.5822 73.1248 46.8166 73.3592 46.9338C73.5935 47.0509 73.6521 47.1681 73.7693 47.1681C73.8865 47.2267 74.1209 47.2267 74.1209 47.2267L74.1795 47.2853C74.3553 47.4025 74.531 47.5783 74.7068 47.6955L74.7654 48.2814C74.824 48.34 74.9412 48.8088 75.117 48.7502H75.1756C75.2928 48.7502 75.2928 48.8088 75.3514 48.9845C75.41 49.1603 75.4685 49.3947 75.4685 49.3947C75.5271 49.5119 75.5857 49.5705 75.6443 49.6877C75.6443 49.6877 75.8201 49.8048 75.9373 49.8634C76.0545 49.922 76.3475 49.922 76.3475 49.922C76.3475 49.8634 76.3475 49.7463 76.2889 49.6877H76.406C76.3475 49.6291 76.2303 49.5119 76.1717 49.4533C76.2889 49.5119 76.406 49.5705 76.5232 49.6291L76.699 49.5119C76.5818 49.3947 76.406 49.2189 76.2889 49.0431C76.2303 48.9259 76.1131 48.8088 76.0545 48.6916C76.0545 48.6916 75.9959 48.3986 76.1131 48.5744C76.2303 48.7502 76.2889 48.6916 76.406 48.5158C76.5232 48.3986 76.2889 48.3986 76.5232 48.3986C76.7576 48.34 76.8162 48.2814 76.9334 48.34L76.992 48.3986C77.1092 48.5158 77.3435 48.5744 77.4021 48.633C77.4021 48.633 77.3435 48.6916 77.4021 48.8673C77.4021 49.2189 77.4607 49.3361 77.5193 49.4533C77.5779 49.5705 77.6951 49.8048 77.8123 49.8048C77.9295 49.8048 78.0467 49.8634 78.1053 49.9806C78.1639 50.0978 78.281 50.3322 78.281 50.3322C78.4568 50.3322 78.6326 50.3908 78.7498 50.3908L78.9842 50.4494L79.16 50.2736C79.16 50.2736 79.3357 50.1564 79.5701 50.3322C79.8045 50.508 79.8045 50.5666 80.0975 50.5666C80.3904 50.5666 80.2732 50.2736 80.449 50.3322C80.6248 50.3908 80.8592 50.3908 80.9764 50.3908L81.0935 50.4494V50.5666C81.0935 50.6838 81.1521 51.2697 81.1521 51.3869C81.1521 51.5041 81.1521 51.6213 81.035 51.6798C80.9178 51.797 80.742 51.797 80.8006 52.0314C80.8006 52.2072 80.8592 52.3244 80.8592 52.5002C80.8592 52.6173 80.9178 53.0275 80.9764 53.3791C81.035 53.6134 81.0935 53.7892 81.1521 53.9064C81.3865 54.258 81.2693 54.0236 81.6795 54.5509C82.0896 55.0197 81.9139 55.2541 82.1482 55.4884C82.3826 55.7228 82.617 55.6056 82.7342 56.133C82.7342 56.133 82.6756 56.8361 82.9685 57.0705C83.2615 57.3048 83.3787 57.1877 83.6131 57.6564C83.7889 58.0666 84.0232 58.1252 84.199 58.3009L84.3162 58.4767C84.3162 58.5353 84.3162 58.5939 84.3162 58.7111C84.3162 58.9455 84.2576 59.0627 84.3162 59.3556C84.3748 59.6486 84.3748 59.7658 84.492 59.883C84.6092 60.0002 84.6092 60.1173 84.9607 60.0002C85.3123 59.883 85.0193 59.7658 85.4295 59.7658C85.8396 59.7658 86.3084 59.59 86.3084 59.59C86.3084 59.59 86.3084 59.297 86.66 59.297C86.9529 59.297 87.0115 59.1213 87.2459 59.0041C87.4803 58.8869 87.6561 58.8869 87.6561 58.7111C87.6561 58.5353 87.7732 58.3595 87.8904 58.3595C87.949 58.3595 88.0076 58.3595 88.1248 58.3595C88.3006 58.3595 88.4764 58.3595 88.5936 58.3595C88.7107 58.3595 88.3592 58.008 88.6521 58.008C88.9451 58.008 89.0623 58.0666 89.0623 57.8322C89.0623 57.6564 89.3553 57.5392 89.3553 57.5392V57.3048C89.3553 57.2463 89.2381 56.9533 89.4139 56.9533C89.6482 56.9533 89.5311 56.9533 89.7654 56.7189C90.0584 56.4845 89.9998 56.2502 89.9412 56.133C89.8826 56.0158 89.8826 56.0158 89.7654 55.9572C89.6482 55.84 89.5311 55.6642 89.4725 55.6642C89.4139 55.6642 89.1795 55.6642 89.0623 55.6056C88.9451 55.4884 88.7693 55.4298 88.7107 55.2541L88.6521 55.1369C88.5936 54.9611 88.5936 54.7267 88.5936 54.7267C88.5936 54.7267 88.1248 55.3127 87.949 55.4298C87.7732 55.547 87.3045 55.4298 87.1873 55.4884H87.1287C86.9529 55.4298 86.66 55.0783 86.5428 54.8439C86.367 54.5509 86.6014 54.5509 86.3084 54.3166C86.1326 54.1408 85.8982 53.8478 85.7811 53.672C85.7225 53.6134 85.7225 53.4963 85.7225 53.4963C85.7225 53.3205 86.1326 52.7345 86.3084 53.0861C86.4842 53.4377 86.7186 53.8478 87.1873 54.0236C87.1873 54.0236 87.4217 54.3752 87.7732 54.4923C88.1248 54.5509 88.535 54.1408 88.6521 54.3166C88.7693 54.4338 88.7693 54.8439 89.2381 54.9611C89.6482 55.0197 89.9998 55.1955 90.2342 55.1955C90.2928 55.1955 90.41 55.1955 90.4686 55.1955C90.6443 55.1955 90.8787 55.1369 91.2889 55.1955C91.9334 55.1955 91.992 55.0197 92.1092 55.2541C92.2264 55.4884 92.1678 55.7228 92.5779 55.7228H92.6951C92.8709 55.84 92.8123 56.133 93.3396 56.0158L93.5154 56.2502Z" fill="#8BC34A"/>
<path fill-rule="evenodd" clip-rule="evenodd" d="M70.7223 48.0472C70.9567 48.0472 70.9567 47.93 70.9567 47.7542C70.9567 47.5784 70.6051 47.4612 70.5465 47.5784C70.5465 47.5784 70.488 48.0472 70.7223 48.0472Z" fill="#8BC34A"/>
<path fill-rule="evenodd" clip-rule="evenodd" d="M27.1875 62.2266C27.0117 62.168 26.9531 61.875 26.8359 61.582C26.7188 61.3477 26.4844 61.3477 26.4258 61.1133C26.3672 61.0547 26.3672 60.9375 26.3086 60.8789C26.3086 61.1133 26.3086 61.3477 26.3672 61.582L26.4844 61.6406C26.6016 61.8164 26.6016 61.8164 26.6016 61.875C26.6016 61.9336 26.6602 62.168 26.6602 62.168C26.8359 62.2266 27.0117 62.3437 27.1875 62.4023C27.1875 62.4023 27.4805 62.8125 27.5391 62.5781C27.5391 62.2851 27.4219 62.2266 27.2461 62.168L27.1875 62.2266Z" fill="#9DD45D"/>
<path fill-rule="evenodd" clip-rule="evenodd" d="M37.0312 40.0784C36.9141 40.137 37.0898 40.5471 37.1484 40.4885C37.207 40.4885 37.4414 40.3713 37.6172 40.3127C37.8516 40.2541 38.0273 40.137 38.2617 40.0198C38.4961 39.9026 38.6719 39.9026 38.8477 39.7854C39.0234 39.7268 39.1406 39.551 39.4922 39.3752C39.8438 39.1409 39.8438 38.8479 39.8438 38.8479L39.1406 39.0823C39.082 39.1409 38.4375 39.4924 37.7344 39.7268C37.0312 40.0198 37.9102 39.3752 37.9102 39.3752L38.7305 38.9651L39.2578 38.6721C39.5508 38.5549 39.8438 38.4377 40.1367 38.3206C40.1367 38.3206 40.4297 38.2034 40.3711 38.1448C40.3125 38.0862 40.1953 37.9104 40.4297 37.7932C40.6641 37.676 40.8984 37.5002 40.8984 37.5002L40.957 37.3245L41.7773 36.8557C41.8359 36.7971 41.4844 36.9729 41.3672 37.0315C41.25 37.0901 41.4258 36.5627 41.543 36.4456C41.6602 36.3284 42.5391 36.0354 42.7734 35.9182C43.0078 35.801 43.1836 35.7424 43.3594 35.6252C43.5352 35.5081 43.7109 35.0979 43.8867 34.9807C44.1211 34.9221 44.4727 34.6292 44.6484 34.512C44.8242 34.3948 45.4102 34.0432 45.4102 34.0432C45.5859 33.926 45.7617 33.8674 45.8789 33.7502C45.8789 33.7502 45.5859 33.5745 45.2344 33.6917C44.8828 33.8088 44.7656 33.8674 44.4727 33.9846C44.1797 34.1018 44.1211 34.1604 43.7695 34.2776C43.418 34.4534 43.2422 34.512 42.832 34.6877C42.4219 34.8635 42.4805 34.8049 41.8359 35.0979C41.1914 35.3909 41.25 35.3909 40.6055 35.801C39.9609 36.2112 39.668 36.2698 39.4336 36.387C39.1406 36.5041 39.082 36.7971 39.082 36.7971C39.082 36.9143 39.082 36.9729 39.1406 37.0901L39.1992 37.2659C39.1992 37.2659 39.0234 37.3245 38.9062 37.2659C38.7891 37.2073 38.6133 37.2659 38.6133 37.2659C38.6133 37.2659 38.4375 37.3831 38.3203 37.4416C38.2031 37.5002 37.9102 37.6174 37.7344 37.676C37.6172 37.7346 37.4414 38.1448 37.4414 38.1448C37.5 38.262 37.5 38.3791 37.5 38.4963C37.5 38.4963 37.7344 38.6721 37.8516 38.6135C37.9688 38.5549 38.2031 38.4963 38.3203 38.3791C38.4375 38.262 38.7891 38.1448 38.8477 38.0862L39.1406 38.1448L39.082 38.3206H38.8477C38.8477 38.3206 38.6133 38.4377 38.4961 38.4377C38.3789 38.4963 38.2617 38.7307 38.1445 38.7893C38.0273 38.8479 37.8516 38.9065 37.793 38.9651C37.6758 39.0237 37.6172 39.1409 37.4414 39.2581C37.2656 39.3166 36.9141 39.3166 36.7383 39.3166C36.5625 39.3166 36.4453 39.7268 36.4453 39.7268C36.6211 39.6682 36.7383 39.6096 36.9141 39.551C36.9141 39.551 36.9727 39.9026 36.7969 40.0198L37.0312 40.0784Z" fill="#9DD45D"/>
<path fill-rule="evenodd" clip-rule="evenodd" d="M70.5469 48.5156C70.5469 48.6914 70.5469 48.9258 70.6055 49.1016H70.8398L70.8984 48.9258H71.0742L71.1328 48.2812L70.957 48.1055H70.7812L70.6055 48.1641L70.4297 48.2227L70.5469 48.457V48.5156Z" fill="#8BC34A"/>
<path fill-rule="evenodd" clip-rule="evenodd" d="M30.7027 44.8828L30.7613 45.1172C30.7613 45.1172 30.9371 45.0586 31.3473 44.8828C31.7574 44.7656 32.109 44.4141 32.2262 44.2969C32.2848 44.1797 32.3434 44.3555 32.6949 44.3555C33.0465 44.3555 32.9879 44.2383 33.3394 44.1211C33.691 44.0039 33.3394 43.8867 33.398 43.8867C33.4566 43.8867 33.8082 43.7695 33.984 43.5938C34.1598 43.418 33.398 43.6523 33.398 43.3008C33.398 42.8906 33.7496 42.2461 33.7496 42.2461C33.8082 42.1875 33.8668 42.0703 33.8668 42.0703C33.691 42.1289 33.5152 42.1875 33.398 42.2461C33.398 42.3633 33.4566 42.5391 33.4566 42.6562C33.4566 42.6562 33.3394 42.5391 33.1637 42.5391C32.9879 42.5391 32.6949 42.8906 32.7535 43.2422C32.6949 43.1836 32.6363 43.0078 32.5777 43.125C32.4605 43.2422 32.5777 42.8906 32.5191 43.0078C32.4605 43.125 32.2262 43.1836 32.0504 43.125C31.8746 43.0664 31.8746 43.1836 31.5816 43.2422C31.2887 43.3008 31.2301 43.3594 30.9371 43.4766C30.6441 43.5938 30.5855 43.5938 30.5269 43.8281C30.4684 44.0625 30.8199 44.0625 30.6441 44.1211C30.4098 44.1797 30.2926 44.2969 30.3512 44.2969C30.4684 44.2969 31.4059 44.1797 31.4059 44.1797C31.4059 44.1797 31.1129 44.2969 30.8199 44.3555C30.4684 44.4727 30.1168 44.5898 30.1754 44.8242C30.234 45.1172 30.7613 44.8242 30.7613 44.8242L30.7027 44.8828Z" fill="#9DD45D"/>
<path fill-rule="evenodd" clip-rule="evenodd" d="M63.5156 43.125C63.8086 43.2422 63.8086 43.125 64.043 43.0664C64.3359 43.0078 64.2773 43.0078 64.6875 42.9492C65.0391 42.8906 64.8047 42.3633 64.8633 42.3047C64.8633 42.3047 65.0391 42.4219 64.8047 42.2461C64.5703 42.0703 64.4531 42.0117 64.9805 42.0117C65.5078 42.0703 64.9805 41.7773 64.8633 41.7188C64.7461 41.6016 64.6875 41.6602 64.3359 41.6602C63.9844 41.6602 64.1602 42.0117 64.1602 42.0117C64.1602 42.0117 64.043 42.0703 63.75 41.9531C63.5156 41.7773 63.457 41.8945 63.3984 42.2461C63.3398 42.5391 63.457 42.4219 63.6914 42.4805C63.8672 42.4805 63.6914 42.5977 63.5156 42.6562C63.3398 42.6562 63.2227 42.832 63.2227 43.0078C63.2227 43.125 63.2813 43.125 63.5742 43.2422L63.5156 43.125Z" fill="#8BC34A"/>
<path fill-rule="evenodd" clip-rule="evenodd" d="M70.3714 32.3438C70.6058 32.3438 70.723 32.1094 70.8988 32.1094C71.1332 32.1094 70.8988 32.3438 70.8988 32.3438C70.3128 32.4609 70.2542 32.4023 70.723 32.7539C71.1917 33.1055 71.0746 32.7539 71.3675 32.9297C71.6605 33.0469 71.4847 32.9297 71.7191 32.5195C71.8949 32.1094 71.8363 32.2266 72.1292 32.168C72.4808 32.1094 72.4222 32.4609 72.598 32.5195C72.598 32.5195 72.9496 32.6367 73.2425 32.6953C73.5355 32.6953 73.5941 32.5781 73.4769 32.5781C73.3597 32.5781 73.0667 32.5781 72.8324 32.2852C72.5394 31.9922 71.7777 31.875 71.7777 31.875C71.7777 31.875 72.0121 31.875 72.1292 31.9336C72.2464 31.9922 72.6566 32.0508 72.9496 32.0508C73.2425 32.0508 73.3011 32.0508 73.6527 31.875C74.0042 31.7578 73.8285 31.5234 73.8285 31.5234C73.8285 31.5234 73.1839 31.5234 72.891 31.5234C72.598 31.5234 72.3636 31.5234 71.9535 31.5234C71.6019 31.5234 71.4847 31.6406 70.8988 31.6406C70.3714 31.6406 70.2542 31.6406 69.9613 31.6406C69.6683 31.6406 69.6683 31.875 69.7269 32.1094C69.7855 32.4023 70.0785 32.4023 70.3128 32.4023L70.3714 32.3438Z" fill="#8BC34A"/>
<path fill-rule="evenodd" clip-rule="evenodd" d="M62.7539 53.6719H62.9297H63.0469H62.8125H62.7539ZM60 54.5508V61.4648C60.0586 61.5234 60.0586 61.582 60.2344 61.6992C60.3516 61.7578 60.4687 61.9336 60.4687 61.9922L60.5273 62.1094V62.4023C60.5273 62.4609 60.7617 62.5781 60.8789 62.6953C60.9961 62.7539 61.0547 62.8125 61.2891 62.8711L61.4062 62.9297C61.5234 62.9883 61.5234 63.1055 61.6406 63.1641C61.7578 63.2813 62.3437 63.6328 62.3437 63.6328C62.3437 63.6328 62.6953 63.8086 62.9297 63.9844C63.1641 64.1602 63.2812 64.043 63.2812 64.043H63.3398C63.457 64.043 63.5156 63.9844 63.6328 63.9844C63.6328 63.9844 63.9844 63.8086 64.043 63.8086C64.1602 63.8086 64.2773 63.6914 64.6289 63.6914C64.9805 63.6914 65.0977 63.6914 65.332 63.6914C65.625 63.6914 65.4492 63.75 65.625 63.8086C65.7422 63.8672 65.8594 63.8672 65.918 63.8086H65.9766C66.0937 63.75 66.2109 63.75 66.2695 63.6914C66.2695 63.6914 66.5039 63.6328 66.6211 63.5742C66.7383 63.5156 66.9141 63.3984 67.0312 63.3984C67.207 63.3984 67.207 63.2813 67.3828 63.2813C67.5586 63.2813 67.5586 63.1055 67.5586 63.1055H67.6758C67.793 63.1055 67.9687 63.0469 68.1445 63.0469C68.3203 63.0469 68.4961 63.0469 68.7305 63.0469C68.9648 63.0469 68.9648 63.1641 69.2578 63.3398C69.5508 63.5156 69.3164 63.5156 69.2578 63.75C69.1992 63.9844 69.3164 63.9258 69.5508 63.9258C69.7852 63.9258 69.9609 63.8086 70.1367 63.8086C70.3125 63.8086 70.7227 63.6328 70.7227 63.6328L70.8984 63.8672C70.8984 63.8672 71.0156 63.9844 71.25 64.2773C71.3672 64.5117 71.3086 64.6289 71.25 64.7461L71.1914 64.8633C71.1328 64.9805 71.0742 65.0977 71.0742 65.2734L71.0156 65.4492C71.0156 65.625 70.7812 65.7422 70.7227 66.0938C70.6641 66.3867 71.1328 66.9727 71.543 67.3242L71.7773 67.5C71.8945 67.5586 71.9531 67.6758 72.0117 67.793C72.0703 67.9102 72.1289 68.0859 72.1289 68.2031C72.1875 68.4375 72.1875 68.6719 72.2461 68.8477C72.3633 69.2578 72.6562 69.2578 72.4805 69.2578C72.3047 69.2578 72.3633 69.8438 72.5391 69.9609C72.7148 70.0781 72.7148 70.6641 72.3633 71.1328C72.0703 71.543 71.7187 72.4805 71.543 73.0664C71.543 73.1836 71.4844 73.2422 71.4844 73.3008C71.3672 73.8281 72.3633 75.5274 72.3047 75.5274C72.3047 75.5274 72.4805 76.6406 72.4219 77.1094C72.3633 77.5195 72.7734 77.9883 72.8906 78.2227L72.9492 78.3399C73.0078 78.5156 72.9492 78.9258 73.2422 79.4531C73.5352 79.9219 73.0078 80.3906 73.3594 80.9766C73.6523 81.6211 73.9453 81.3281 74.4141 81.0352C74.8828 80.7422 75.1172 81.0352 75.293 80.9766C75.5273 80.9766 75.9961 80.6836 76.3477 80.625C76.6406 80.625 76.6406 80.0977 77.2852 79.8633C77.9297 79.6289 78.0469 79.4531 78.2227 78.8672C78.3984 78.2813 78.75 78.1055 79.1602 77.8125C79.5117 77.5781 79.5117 77.4609 79.3945 77.1094L79.3359 76.9336C79.1602 76.4649 80.2148 76.1133 80.2148 76.1133C80.3906 76.1133 80.5664 75.8789 80.625 75.293C80.7422 74.7656 80.6836 74.4141 80.4492 74.1211C80.1562 73.8281 80.5664 73.7109 80.7422 73.5938C80.918 73.4766 81.0937 73.3594 81.2695 73.1836C81.4453 73.0078 81.5039 72.832 81.6211 72.7149C81.7383 72.5977 82.1484 72.4805 82.3242 72.3633C82.4414 72.2461 82.7344 72.0703 82.9102 71.8359C83.0859 71.6016 83.1445 71.543 83.0859 71.25C83.0273 70.957 83.0859 70.957 83.1445 70.4297C83.2031 69.9024 83.2617 69.7852 83.2617 69.7852C83.2617 69.7852 83.2031 69.668 83.1445 69.4922C83.0859 69.3164 83.0273 69.0234 82.9687 68.8477C82.9102 68.4961 82.9687 68.3789 82.9102 68.2031C82.793 68.0859 82.793 67.9102 82.793 67.5586C82.793 67.207 83.0273 67.4414 83.0273 67.207C83.0273 66.9141 83.0859 66.8555 83.2031 66.7383C83.3789 66.6211 83.2031 66.3281 83.3789 66.2695C83.5547 66.2109 83.7305 65.9766 83.7891 65.8594L84.1406 65.5664C84.1992 65.5078 84.4922 65.0977 84.6094 64.9805C84.668 64.8633 85.0781 64.5703 85.1367 64.5117C85.1953 64.4531 85.4297 64.3945 85.4883 64.3359C85.5469 64.2188 85.8984 63.8086 86.0156 63.75C86.1328 63.6914 86.3672 63.3398 86.4844 63.1641C86.6016 62.9297 86.6601 62.7539 86.8945 62.2266C87.1875 61.7578 87.2461 60.7617 87.4219 60.5859C87.5976 60.4102 87.3047 60.4688 87.3047 60.4688C87.3047 60.4688 87.0703 60.5859 86.9531 60.7031C86.8359 60.8203 86.6601 60.7617 86.3086 60.7617C85.957 60.7617 86.0742 60.8203 85.7812 60.8203C85.5469 60.8203 85.6055 60.9961 85.3711 60.9961C85.1367 60.9961 84.9609 61.0547 84.8437 61.0547C84.7266 61.0547 84.7266 60.8789 84.6094 60.8789L84.4922 60.7617V60.7031C84.4922 60.6445 84.4922 60.5273 84.4922 60.4102C84.4922 60.293 84.375 60.1758 84.2578 60.1172C84.1406 60 84.1406 59.9414 83.9648 59.7656C83.7891 59.5898 83.5547 59.3555 83.3203 59.2969C83.0859 59.2383 83.3203 59.1797 82.9687 58.7695C82.6758 58.3594 82.8516 58.5938 82.793 58.3008C82.7344 58.1836 82.7344 58.125 82.6758 58.125C82.6172 58.0664 82.5 58.0664 82.3828 57.8906C82.1484 57.6563 82.207 57.7148 82.1484 57.6563C82.0898 57.5391 82.1484 57.3047 82.0898 57.2461C82.0898 57.1875 81.7969 56.6602 81.6797 56.3672C81.5625 56.1328 81.3867 56.25 81.5039 56.1914C81.5625 56.1328 81.5039 56.1328 81.4453 56.0156C81.3867 55.957 81.3281 55.8398 81.3281 55.6641C81.2695 55.3125 81.0352 55.0195 80.8008 54.7266C80.5664 54.4336 80.625 54.4922 80.625 54.3164C80.625 54.1406 80.2148 53.7891 80.2148 53.6719C80.2148 53.5547 80.0977 53.3203 80.1562 53.4375C80.2148 53.4961 80.3906 53.7891 80.4492 53.9063C80.5078 54.0234 80.4492 54.0234 80.8008 54.2578C81.1523 54.5508 80.918 54.1992 80.918 53.9063C80.918 53.8477 80.918 53.6719 80.8594 53.5547C80.8008 53.2617 80.6836 52.8516 80.625 52.8516C80.5664 52.8516 80.5078 52.8516 80.2734 52.793C80.0977 52.793 80.0977 52.7344 79.9219 52.7344C79.7461 52.7344 79.7461 52.5586 79.4531 52.5586C79.1016 52.5586 79.1016 52.7344 78.8672 52.8516C78.6328 52.9688 78.1641 52.5586 78.0469 52.5C77.9297 52.5 77.5195 52.5 77.4023 52.5C77.3437 52.5 77.2852 52.4414 77.168 52.3828L77.0508 52.3242C76.875 52.3242 76.5234 52.1484 76.5234 52.1484C76.5234 52.1484 76.4062 52.0898 76.2305 51.9141C76.0547 51.7383 75.8203 51.8555 75.6445 51.8555C75.4687 51.8555 75.4102 52.0898 75.293 52.1484C75.1758 52.2656 75.293 52.5586 75.293 52.7344C75.293 52.9102 75.1758 52.793 75.0586 52.8516C74.9414 52.9688 74.5898 52.8516 74.4141 52.7344C74.2383 52.6172 74.3555 52.6172 74.2383 52.5C74.1211 52.3828 73.7109 52.4414 73.5937 52.4414C73.4766 52.4414 73.418 52.4414 73.418 52.207C73.3594 51.9727 73.1836 51.9141 73.1836 51.9141C73.1836 51.9141 72.7148 51.8555 72.5391 51.8555C72.3633 51.8555 72.1875 51.7969 72.0117 51.7969L71.7773 51.6211L71.6016 51.5039C71.4258 51.5039 71.3672 51.3281 71.3672 51.3281C71.3672 51.3281 71.25 51.2109 71.25 51.0352C71.25 50.8594 71.4258 50.8008 71.4844 50.6836C71.543 50.5664 71.4258 50.332 71.3672 50.2734L71.543 49.9805C71.543 49.9805 71.3086 50.0977 71.3086 49.9805C71.3086 49.8633 70.957 49.8047 70.957 49.8047C70.8398 49.8047 70.7227 49.8633 70.6055 49.8633C70.6055 49.8633 70.3125 49.8633 70.2539 49.8633C70.1953 49.8633 69.9023 49.8633 69.9023 49.8633C69.7266 49.8633 69.5508 49.8633 69.4336 49.8633C69.4336 49.8633 69.1992 49.9219 68.6133 49.9219C68.0859 49.9805 68.0273 49.9219 67.9102 49.9219C67.793 49.9219 67.6172 49.9805 67.6172 49.9805C67.6172 49.9805 67.2656 50.0391 67.1484 50.0977C67.0312 50.1563 67.0312 50.2148 66.9141 50.2148C66.7969 50.2148 66.6797 50.2148 66.4453 50.332C66.2109 50.4492 66.4453 50.332 66.3867 50.4492L66.2109 50.5664H66.0937C65.918 50.5078 65.918 50.5078 65.8594 50.4492C65.7422 50.3906 65.6836 50.4492 65.5664 50.4492C65.4492 50.4492 65.2734 50.4492 65.1562 50.4492C65.0391 50.4492 64.8633 50.332 64.8633 50.332C64.8633 50.332 64.7461 50.1563 64.5117 50.0977C64.2773 50.0391 64.3359 50.2148 64.3359 50.2148C64.3359 50.2148 64.3359 50.332 64.2773 50.4492C64.2773 50.5664 64.1016 50.6836 64.1602 50.8008C64.1602 50.918 63.9258 50.918 63.8672 51.0352C63.8086 51.1523 63.6328 51.1523 63.457 51.2109C63.2812 51.2695 63.1055 51.2695 62.9883 51.4453C62.8711 51.6211 62.6953 51.7383 62.6953 51.8555C62.6953 51.9727 62.5195 52.0313 62.5195 52.207C62.5195 52.3828 62.5781 52.5586 62.5781 52.5586V52.793C62.5781 52.793 62.3437 52.9688 62.3437 53.1445C62.3437 53.3203 61.875 53.2617 61.875 53.2617C61.875 53.2617 61.5234 53.3789 61.4062 53.4961C61.2891 53.6133 61.0547 53.6133 60.9375 53.6719C60.8203 53.7305 60.9961 54.0234 60.4687 54.2578C60.2344 54.375 60.0586 54.4922 60 54.668V54.5508Z" fill="#8BC34A"/>
<path fill-rule="evenodd" clip-rule="evenodd" d="M86.5427 70.3711C86.2498 70.0195 86.3084 70.1953 86.3084 70.1953C86.3084 70.1953 86.1912 70.5469 86.1912 70.7227C86.1912 70.8984 86.1326 70.8984 85.9568 71.0742C85.781 71.3086 85.7224 71.3672 85.5467 71.543C85.4295 71.7773 85.0779 71.7188 84.9607 71.8945C84.8435 72.0703 84.492 72.1875 84.3748 72.3633C84.2576 72.5391 84.2576 72.5977 84.2576 72.9492C84.2576 73.3008 84.3162 73.3594 84.4334 73.6523C84.5506 73.9453 84.3162 73.8281 84.0818 74.1797C83.906 74.5313 83.8474 74.4727 83.6717 74.7656C83.4959 75.1172 83.7303 75.1172 83.7888 75.2344C83.906 75.3516 83.7888 75.5274 83.6717 75.7617C83.6131 75.9961 83.6717 75.9375 83.906 76.2891C84.199 76.582 84.4334 76.2891 84.6092 76.2891C84.7849 76.2891 85.0193 76.0547 85.0193 76.0547C85.4295 74.9414 85.8396 73.8867 86.1912 72.8906L86.2498 72.832C86.1912 72.5391 86.1912 72.3633 86.4256 72.3633C86.6599 72.3633 86.4841 72.1289 86.4841 72.1289C86.4841 72.1289 86.367 72.0703 86.367 71.7773C86.367 71.4844 86.6013 71.8945 86.6599 71.8359C86.7185 71.7773 86.7185 71.4844 86.7185 71.0742C86.7185 70.6641 86.6599 70.7813 86.367 70.4297L86.5427 70.3711Z" fill="#8BC34A"/>
<path fill-rule="evenodd" clip-rule="evenodd" d="M93.5742 56.3672C93.5156 56.4258 93.3984 56.4258 93.2812 56.4258C93.3984 56.6016 93.5156 56.7188 93.6328 56.8945C93.6328 56.7188 93.5742 56.543 93.5742 56.3086V56.3672Z" fill="#8BC34A"/>
<path fill-rule="evenodd" clip-rule="evenodd" d="M91.699 50.508H91.8162H91.699ZM87.5975 57.7736H87.5389H87.5975ZM75.7029 44.0041L75.7615 44.0627L75.7029 44.0041ZM93.5154 56.2502C92.6365 48.5744 89.2381 41.7189 84.1404 36.4455C84.0232 36.5041 83.906 36.6798 83.906 36.6798C83.7303 36.6213 83.4959 36.6213 83.3201 36.5627L83.2029 36.7384C83.0857 36.7384 82.91 36.7384 82.7928 36.7384C82.7928 36.7384 82.91 36.6213 82.9685 36.4455C82.9685 36.2697 82.6756 36.3283 82.617 36.3869L82.324 36.5041C82.324 36.5041 82.0896 36.5041 81.9139 36.6213C81.7967 36.6798 81.5623 37.0314 81.5623 37.0314C81.5623 37.1486 81.5037 37.2072 81.5037 37.3244C81.5037 37.3244 80.9764 37.383 80.8592 37.2658C80.742 37.1486 80.5662 36.9142 80.9178 36.9142C81.2693 36.9142 80.8006 36.5627 80.5076 36.5627C80.2146 36.5627 80.0975 36.5627 80.2146 36.9142C80.3318 37.2658 80.6248 37.4416 80.6248 37.6173C80.6248 37.7931 80.5076 37.6759 80.5076 37.6759C80.5076 37.6759 80.3318 37.5002 80.156 37.5002C79.9803 37.5002 79.5115 37.7345 79.4529 37.9103C79.3943 38.0275 79.8045 38.3205 79.6287 38.3791C79.5115 38.4377 79.0428 38.3791 78.8084 38.2033C78.574 38.0275 78.2225 38.2619 78.6912 38.4963C79.1014 38.7306 78.9842 38.965 78.8084 38.7892C78.6326 38.6134 78.4568 38.4963 78.3396 38.4963C78.2225 38.4963 78.0467 38.4377 78.0467 38.4377C78.0467 38.4377 78.1053 38.3205 77.9295 38.0861C77.7537 37.8517 77.8123 37.6759 77.8123 37.6759C77.8123 37.6759 77.5193 37.6173 77.285 37.4416C77.0506 37.2658 77.3435 37.383 77.4607 37.383C77.5779 37.383 78.0467 37.6173 78.5154 37.6759C78.9842 37.7345 79.5701 37.6173 79.5701 37.383C79.5115 37.09 79.2771 36.8556 78.9842 36.797C78.6912 36.7384 78.4568 36.7384 78.2225 36.5041C77.9881 36.2697 77.5779 36.2111 77.2264 36.1525C76.8748 36.1525 76.7576 36.0939 76.6404 35.9767C76.5232 35.8595 76.0545 36.0353 76.0545 36.0353C76.0545 36.0353 75.8201 35.7424 75.9373 35.7424C76.0545 35.7424 76.0545 35.7424 76.0545 35.7424C76.0545 35.7424 75.9373 35.6838 75.8201 35.6252C75.7029 35.508 75.41 35.4494 75.41 35.4494L75.3514 35.6252C75.3514 35.508 75.2928 35.3908 75.2928 35.2736C75.2342 35.3322 75.117 35.3908 75.0584 35.4494C74.9998 35.508 74.9412 35.6252 74.824 35.6838C74.824 35.5666 74.824 35.508 74.824 35.3908C74.7654 35.4494 74.6482 35.5666 74.5896 35.6252C74.5896 35.508 74.6482 35.3908 74.6482 35.215C74.6482 35.215 74.531 35.1564 74.2967 35.215C74.0623 35.2736 74.0037 35.4494 74.0037 35.508C74.0037 35.6252 73.8279 35.508 73.7693 35.508L73.4764 35.5666C73.4764 35.5666 73.4764 35.6252 73.242 35.6252C73.0076 35.6252 72.8904 35.4494 72.8904 35.6252C72.8904 35.8009 72.656 35.8009 72.5975 35.8595L72.4803 36.2111C72.4803 36.2111 72.0701 36.2697 72.0115 36.2111C71.9529 36.1525 71.8357 36.2697 71.8357 36.5041C71.8357 36.6798 71.66 36.7384 71.6014 36.7384L71.3084 37.0314C71.3084 37.1486 71.2498 37.2658 71.2498 37.3244C71.2498 37.3244 71.1912 37.6173 71.074 37.6759C70.9568 37.6759 70.781 38.0275 70.6639 37.9689C70.5467 37.9689 70.4881 38.3205 70.3709 38.2619C70.2537 38.2619 70.1951 38.2619 70.1365 38.2619H69.6678L69.5506 38.672C69.492 38.7306 69.4334 38.7306 69.2576 38.7892C69.0818 38.8478 68.906 38.8478 68.9646 38.965C68.9646 39.0236 69.0818 39.1994 69.0818 39.1994C69.2576 39.1994 69.4334 39.258 69.6092 39.258C69.3748 39.258 69.1404 39.258 68.9646 39.258C69.0232 39.4338 69.0232 39.5509 69.0818 39.7267C69.199 39.6681 69.3748 39.6095 69.492 39.5509C69.3748 39.7267 69.2576 39.8439 69.199 40.0197C69.2576 40.1369 69.3748 40.3127 69.4334 40.4298C69.4334 40.4298 69.4334 40.6642 69.9607 40.6056C70.4881 40.547 70.5467 40.3127 70.6639 40.3127C70.781 40.3127 70.8982 39.8439 70.9568 40.0783C71.0154 40.2541 71.0154 40.3127 71.1912 40.3127H71.2498C71.5428 40.3127 70.8982 40.4298 71.2498 40.6056C71.5428 40.7814 71.4842 40.7814 71.66 41.133C71.8357 41.5431 71.7771 41.5431 71.7771 41.6603C71.7771 41.7775 71.8943 41.9533 72.0701 41.9533C72.2459 41.9533 72.3045 41.8947 72.3045 41.7775C72.3045 41.6603 72.5389 41.6603 72.7146 41.7189C72.8904 41.7189 73.0662 41.6603 73.0076 41.3088C72.949 40.9572 73.0076 40.6056 73.0076 40.6056C73.0076 40.6056 73.7107 40.3713 73.5935 40.0783C73.4764 39.7853 73.0076 39.8439 72.8904 39.258C72.7146 38.672 73.3006 38.6134 73.5935 38.4377C73.8865 38.2033 74.0623 38.0275 74.0623 38.0275C74.0623 38.0275 73.7693 37.9103 73.8865 37.7931C74.0623 37.6759 74.0623 37.5588 74.1795 37.5588C74.2967 37.5588 74.5896 37.5002 74.6482 37.5002H74.7654C74.9412 37.5002 75.2342 37.5588 75.1756 37.6759C75.0584 37.7931 75.1756 37.9103 75.0584 37.9103L74.4139 38.4377C74.4139 38.4377 74.0037 38.6134 74.1209 38.9064C74.2381 39.258 74.3553 39.6681 74.3553 39.6681C74.3553 39.6681 74.3553 39.7853 74.531 39.8439C74.7068 39.9025 74.824 40.0783 74.9412 40.0783C75.0584 40.0783 75.3514 40.0783 75.41 40.0783L75.8201 40.0197H76.0545L76.2303 39.8439H76.3475H76.5232C76.6404 39.9025 76.699 39.9025 76.8162 39.9611C76.699 40.0197 76.6404 40.0783 76.5232 40.1369L76.406 40.2541C76.0545 40.2541 75.7615 40.2541 75.41 40.2541C75.41 40.2541 74.7068 40.547 75.1756 40.84L75.3514 41.0158C75.5857 41.2502 75.5857 41.4845 75.41 41.4845C75.1756 41.4845 75.117 41.3088 75.117 41.3088C75.117 41.3088 74.824 40.8986 74.531 41.0158C74.1795 41.133 74.2381 41.1916 74.4139 41.4259C74.6482 41.7189 74.4139 41.6017 74.531 41.7189C74.6482 41.8361 74.4725 41.9533 74.5896 42.0705C74.6482 42.1291 74.5896 42.1877 74.4725 42.1877C74.3553 42.2463 74.2381 42.3048 74.3553 42.3634C74.5896 42.4806 73.8279 42.422 73.8279 42.422L73.5935 42.1877C73.5935 42.1877 73.1834 42.2463 73.0076 42.3634C72.7732 42.422 72.3631 42.5392 72.3631 42.5392L72.2459 42.4806L72.0115 42.422L71.66 42.2463C71.6014 42.3048 71.367 42.3634 71.2498 42.3634C71.1326 42.3634 70.9568 42.3048 70.8982 42.1877C70.781 42.1291 70.6053 42.1877 70.6053 41.9533C70.6639 41.6603 70.6639 41.7189 70.8982 41.6017C71.1326 41.4845 71.1326 41.4845 71.074 41.3673C70.9568 41.2502 70.7225 41.3673 70.8396 41.1916C70.8982 41.0158 71.074 40.84 70.8982 40.84C70.781 40.84 70.6053 40.84 70.5467 40.9572C70.4295 41.0744 70.3709 41.133 70.3709 41.133C70.3709 41.133 70.0193 41.133 70.0779 41.2502C70.0779 41.3673 70.0779 41.5431 70.1365 41.6017C70.1951 41.7189 70.4881 42.0705 70.4881 42.0705C70.4881 42.0705 70.4295 42.422 70.3123 42.422C70.1951 42.422 70.3709 42.422 69.8435 42.5978H69.785C69.199 42.7736 69.1404 42.4806 68.9646 42.8322C68.7889 43.1838 68.9646 43.2423 68.5545 43.3009H68.4959C68.1443 43.3595 68.2615 43.4181 68.2029 43.5353C68.1443 43.5939 68.0271 43.5939 67.91 43.6525C67.91 43.6525 67.91 43.5939 67.8514 43.5353C67.5584 43.3595 67.4412 43.5939 67.5584 43.3595C67.7342 43.1252 67.7928 43.2423 67.8514 43.008C67.91 42.8322 68.0271 42.7736 67.8514 42.715C67.6756 42.6564 67.4998 42.8908 67.324 42.715C67.1482 42.5978 67.3826 42.6564 67.2654 42.3634C67.1482 42.0705 67.2654 42.0705 67.031 41.8947C66.7967 41.7189 66.6795 41.8361 66.6795 41.8361C66.6795 41.8361 66.8553 41.4259 66.4451 41.3088C66.035 41.133 65.8592 41.2502 65.8592 41.2502C65.8592 41.2502 65.8592 41.1916 66.2107 41.0744C66.5623 40.9572 66.5623 40.6642 66.5623 40.6642C66.5623 40.6642 66.1521 40.547 65.9764 40.547C65.8006 40.547 65.6834 40.7228 65.6248 40.6642C65.6248 40.6056 65.6248 40.4298 65.8006 40.3713C65.9178 40.3127 66.0935 40.1955 66.0935 40.1955C65.8592 40.1369 65.6248 40.1369 65.3904 40.0783C65.3904 40.0783 65.2732 40.3127 65.0975 40.4884C64.9217 40.6642 64.8631 40.7228 64.8631 40.8986C64.8631 41.0158 65.2146 41.133 65.2146 41.133C65.2146 41.133 64.9217 41.3088 65.0389 41.3673C65.156 41.3673 65.5662 41.3673 65.449 41.3673C65.3318 41.4259 65.156 41.4845 65.156 41.4845C65.2732 41.4845 65.3318 41.4845 65.3904 41.4845C65.3904 41.4845 65.0389 41.7189 65.0975 41.7189C65.2146 41.7189 65.6248 41.6603 65.6248 41.6603C65.6248 41.6603 65.8006 41.6017 65.8006 41.7775C65.8006 42.0119 65.9764 42.1877 65.9764 42.1877C65.9764 42.1877 66.3279 42.2463 65.9178 42.422C65.5076 42.5978 65.5662 42.5978 65.449 42.5392C65.3318 42.5392 65.742 42.8322 65.6248 42.8908C65.5076 42.9494 65.156 42.8322 65.156 42.8908C65.156 42.9494 65.3318 43.1252 65.449 43.1252C65.5662 43.1252 65.8592 43.4181 66.0935 43.0666C66.0935 43.0666 65.9764 43.3595 65.6834 43.3595C65.3904 43.3009 65.0975 43.4181 65.0975 43.7697C65.0975 43.7697 65.2732 43.7111 65.6834 43.7111C66.035 43.7111 66.035 43.6525 66.2107 43.7111C66.4451 43.7111 66.4451 43.7111 66.6795 43.7111C66.9139 43.7111 67.1482 43.7111 67.324 43.7111C67.3826 43.7111 67.5584 43.7111 67.6756 43.6525L67.617 43.7111C67.617 43.8283 67.617 44.0627 67.4412 44.0627C67.324 44.0627 67.2654 44.2384 67.2654 44.2384C67.2654 44.2384 66.9139 44.3556 66.6795 44.1213C66.4451 43.9455 66.4451 43.9455 66.5037 44.1798C66.5623 44.4142 66.6795 44.4728 66.4451 44.4142C66.2107 44.4142 66.035 44.4142 66.035 44.4142C66.035 44.4142 65.5662 44.297 65.449 44.297C65.2732 44.297 65.3318 44.59 65.3318 44.7072C65.3318 44.8244 65.5076 44.59 65.8592 44.8244C66.2107 45.1173 66.4451 45.3517 66.5037 45.4103C66.5623 45.4689 66.6209 45.7033 66.6209 45.8791C66.6209 46.1134 66.7381 46.6408 66.5623 46.6408H66.3279C66.2107 46.6408 66.0935 46.6994 66.0935 46.6994C65.3904 46.5822 64.6287 46.465 63.867 46.3478C63.867 46.3478 62.9295 46.465 63.281 46.8752C63.281 46.8752 63.281 46.9338 63.281 46.9923C63.281 47.1095 63.3396 47.2853 63.3396 47.5197C63.3396 47.9298 63.0467 48.047 62.9881 48.1642C62.8709 48.2814 62.7537 48.5158 62.9295 48.5744C63.1053 48.5744 63.1639 49.2189 63.1639 49.2189C63.1639 49.2189 63.1053 49.2775 63.4568 49.3361C63.8084 49.3361 63.7498 49.3947 63.8084 49.3947H63.867C63.9842 49.3361 64.2771 49.2775 64.3943 49.5705C64.5115 49.8634 64.5115 49.922 64.6873 49.922C64.8631 49.922 64.7459 49.6291 65.0389 49.6291C65.3318 49.6291 65.3904 49.5705 65.742 49.5705C66.0935 49.5705 66.2693 49.5705 66.2693 49.5705C66.2693 49.5705 66.4451 49.2775 66.6209 49.3361C66.7967 49.3947 66.7967 48.8673 66.9725 48.8673C67.2068 48.8673 66.7967 48.3986 67.0896 48.1642C67.3826 47.9298 67.4412 47.6955 67.6756 47.6955C67.91 47.6955 68.1443 47.6369 68.1443 47.6369C68.2029 47.4611 68.2615 47.2853 68.2615 47.1095C68.2615 47.1095 68.1443 46.758 68.5545 46.758C68.906 46.758 69.3162 47.0509 69.5506 47.0509C69.785 46.9923 69.9021 46.8752 69.9607 46.758L70.0193 46.6994C70.0779 46.5822 70.0193 46.465 70.4295 46.5822C70.8982 46.6994 71.074 46.6994 71.1326 47.0509C71.1326 47.3439 71.1326 47.2267 71.4256 47.5197C71.7771 47.7541 72.0115 47.9884 72.2459 48.047C72.4803 48.1642 72.7146 48.047 73.0662 48.5158C73.3592 48.9845 73.7107 49.1017 73.4764 49.1603C73.242 49.2189 73.535 49.3947 73.1248 49.3947C72.656 49.3947 72.7146 49.3947 72.4217 49.3947C72.1287 49.3947 72.0115 49.5119 72.1287 49.6291C72.2459 49.7463 73.1248 50.0978 73.1248 50.0978C73.1834 49.922 73.242 49.8048 73.3006 49.6291C73.3006 49.6291 73.5935 49.6291 73.7107 49.4533C73.8279 49.2775 73.8865 49.1603 74.0623 49.1603C74.2381 49.1603 73.8865 48.8088 73.7693 48.6916C73.6521 48.633 73.8865 48.34 74.1795 48.633C74.4725 48.9845 74.7654 48.7502 74.2381 48.34C73.7107 47.9884 73.535 47.9884 73.4178 47.9298C73.3592 47.8713 73.3006 47.6955 73.3006 47.6955C73.1834 47.6369 73.0076 47.5783 72.8904 47.5197C72.8318 47.4025 72.7732 47.3439 72.7146 47.2267C72.7146 47.2267 72.656 47.1095 72.3631 46.8752C72.0701 46.6994 71.8943 46.5236 71.8943 46.5236C71.8943 46.5236 71.7185 46.0548 71.9529 46.0548C72.1287 46.0548 72.1287 45.9377 72.2459 45.9963L72.4217 46.1134C72.656 46.4064 72.8318 46.5236 72.8904 46.5236C72.949 46.5822 73.1248 46.8166 73.3592 46.9338C73.5935 47.0509 73.6521 47.1681 73.7693 47.1681C73.8865 47.2267 74.1209 47.2267 74.1209 47.2267L74.1795 47.2853C74.3553 47.4025 74.531 47.5783 74.7068 47.6955L74.7654 48.2814C74.824 48.34 74.9412 48.8088 75.117 48.7502H75.1756C75.2928 48.7502 75.2928 48.8088 75.3514 48.9845C75.41 49.1603 75.4685 49.3947 75.4685 49.3947C75.5271 49.5119 75.5857 49.5705 75.6443 49.6877C75.6443 49.6877 75.8201 49.8048 75.9373 49.8634C76.0545 49.922 76.3475 49.922 76.3475 49.922C76.3475 49.8634 76.3475 49.7463 76.2889 49.6877H76.406C76.3475 49.6291 76.2303 49.5119 76.1717 49.4533C76.2889 49.5119 76.406 49.5705 76.5232 49.6291L76.699 49.5119C76.5818 49.3947 76.406 49.2189 76.2889 49.0431C76.2303 48.9259 76.1131 48.8088 76.0545 48.6916C76.0545 48.6916 75.9959 48.3986 76.1131 48.5744C76.2303 48.7502 76.2889 48.6916 76.406 48.5158C76.5232 48.3986 76.2889 48.3986 76.5232 48.3986C76.7576 48.34 76.8162 48.2814 76.9334 48.34L76.992 48.3986C77.1092 48.5158 77.3435 48.5744 77.4021 48.633C77.4021 48.633 77.3435 48.6916 77.4021 48.8673C77.4021 49.2189 77.4607 49.3361 77.5193 49.4533C77.5779 49.5705 77.6951 49.8048 77.8123 49.8048C77.9295 49.8048 78.0467 49.8634 78.1053 49.9806C78.1639 50.0978 78.281 50.3322 78.281 50.3322C78.4568 50.3322 78.6326 50.3908 78.7498 50.3908L78.9842 50.4494L79.16 50.2736C79.16 50.2736 79.3357 50.1564 79.5701 50.3322C79.8045 50.508 79.8045 50.5666 80.0975 50.5666C80.3904 50.5666 80.2732 50.2736 80.449 50.3322C80.6248 50.3908 80.8592 50.3908 80.9764 50.3908L81.0935 50.4494V50.5666C81.0935 50.6838 81.1521 51.2697 81.1521 51.3869C81.1521 51.5041 81.1521 51.6213 81.035 51.6798C80.9178 51.797 80.742 51.797 80.8006 52.0314C80.8006 52.2072 80.8592 52.3244 80.8592 52.5002C80.8592 52.6173 80.9178 53.0275 80.9764 53.3791C81.035 53.6134 81.0935 53.7892 81.1521 53.9064C81.3865 54.258 81.2693 54.0236 81.6795 54.5509C82.0896 55.0197 81.9139 55.2541 82.1482 55.4884C82.3826 55.7228 82.617 55.6056 82.7342 56.133C82.7342 56.133 82.6756 56.8361 82.9685 57.0705C83.2615 57.3048 83.3787 57.1877 83.6131 57.6564C83.7889 58.0666 84.0232 58.1252 84.199 58.3009L84.3162 58.4767C84.3162 58.5353 84.3162 58.5939 84.3162 58.7111C84.3162 58.9455 84.2576 59.0627 84.3162 59.3556C84.3748 59.6486 84.3748 59.7658 84.492 59.883C84.6092 60.0002 84.6092 60.1173 84.9607 60.0002C85.3123 59.883 85.0193 59.7658 85.4295 59.7658C85.8396 59.7658 86.3084 59.59 86.3084 59.59C86.3084 59.59 86.3084 59.297 86.66 59.297C86.9529 59.297 87.0115 59.1213 87.2459 59.0041C87.4803 58.8869 87.6561 58.8869 87.6561 58.7111C87.6561 58.5353 87.7732 58.3595 87.8904 58.3595C87.949 58.3595 88.0076 58.3595 88.1248 58.3595C88.3006 58.3595 88.4764 58.3595 88.5936 58.3595C88.7107 58.3595 88.3592 58.008 88.6521 58.008C88.9451 58.008 89.0623 58.0666 89.0623 57.8322C89.0623 57.6564 89.3553 57.5392 89.3553 57.5392V57.3048C89.3553 57.2463 89.2381 56.9533 89.4139 56.9533C89.6482 56.9533 89.5311 56.9533 89.7654 56.7189C90.0584 56.4845 89.9998 56.2502 89.9412 56.133C89.8826 56.0158 89.8826 56.0158 89.7654 55.9572C89.6482 55.84 89.5311 55.6642 89.4725 55.6642C89.4139 55.6642 89.1795 55.6642 89.0623 55.6056C88.9451 55.4884 88.7693 55.4298 88.7107 55.2541L88.6521 55.1369C88.5936 54.9611 88.5936 54.7267 88.5936 54.7267C88.5936 54.7267 88.1248 55.3127 87.949 55.4298C87.7732 55.547 87.3045 55.4298 87.1873 55.4884H87.1287C86.9529 55.4298 86.66 55.0783 86.5428 54.8439C86.367 54.5509 86.6014 54.5509 86.3084 54.3166C86.1326 54.1408 85.8982 53.8478 85.7811 53.672C85.7225 53.6134 85.7225 53.4963 85.7225 53.4963C85.7225 53.3205 86.1326 52.7345 86.3084 53.0861C86.4842 53.4377 86.7186 53.8478 87.1873 54.0236C87.1873 54.0236 87.4217 54.3752 87.7732 54.4923C88.1248 54.5509 88.535 54.1408 88.6521 54.3166C88.7693 54.4338 88.7693 54.8439 89.2381 54.9611C89.6482 55.0197 89.9998 55.1955 90.2342 55.1955C90.2928 55.1955 90.41 55.1955 90.4686 55.1955C90.6443 55.1955 90.8787 55.1369 91.2889 55.1955C91.9334 55.1955 91.992 55.0197 92.1092 55.2541C92.2264 55.4884 92.1678 55.7228 92.5779 55.7228H92.6951C92.8709 55.84 92.8123 56.133 93.3396 56.0158L93.5154 56.2502Z" fill="#8BC34A"/>
<path fill-rule="evenodd" clip-rule="evenodd" d="M70.7223 48.0472C70.9567 48.0472 70.9567 47.93 70.9567 47.7542C70.9567 47.5784 70.6051 47.4612 70.5465 47.5784C70.5465 47.5784 70.488 48.0472 70.7223 48.0472Z" fill="#8BC34A"/>
<path fill-rule="evenodd" clip-rule="evenodd" d="M70.5469 48.5156C70.5469 48.6914 70.5469 48.9258 70.6055 49.1016H70.8398L70.8984 48.9258H71.0742L71.1328 48.2812L70.957 48.1055H70.7812L70.6055 48.1641L70.4297 48.2227L70.5469 48.457V48.5156Z" fill="#8BC34A"/>
<path fill-rule="evenodd" clip-rule="evenodd" d="M63.5156 43.125C63.8086 43.2422 63.8086 43.125 64.043 43.0664C64.3359 43.0078 64.2773 43.0078 64.6875 42.9492C65.0391 42.8906 64.8047 42.3633 64.8633 42.3047C64.8633 42.3047 65.0391 42.4219 64.8047 42.2461C64.5703 42.0703 64.4531 42.0117 64.9805 42.0117C65.5078 42.0703 64.9805 41.7773 64.8633 41.7188C64.7461 41.6016 64.6875 41.6602 64.3359 41.6602C63.9844 41.6602 64.1602 42.0117 64.1602 42.0117C64.1602 42.0117 64.043 42.0703 63.75 41.9531C63.5156 41.7773 63.457 41.8945 63.3984 42.2461C63.3398 42.5391 63.457 42.4219 63.6914 42.4805C63.8672 42.4805 63.6914 42.5977 63.5156 42.6562C63.3398 42.6562 63.2227 42.832 63.2227 43.0078C63.2227 43.125 63.2813 43.125 63.5742 43.2422L63.5156 43.125Z" fill="#8BC34A"/>
<path fill-rule="evenodd" clip-rule="evenodd" d="M70.3714 32.3438C70.6058 32.3438 70.723 32.1094 70.8988 32.1094C71.1332 32.1094 70.8988 32.3438 70.8988 32.3438C70.3128 32.4609 70.2542 32.4023 70.723 32.7539C71.1917 33.1055 71.0746 32.7539 71.3675 32.9297C71.6605 33.0469 71.4847 32.9297 71.7191 32.5195C71.8949 32.1094 71.8363 32.2266 72.1292 32.168C72.4808 32.1094 72.4222 32.4609 72.598 32.5195C72.598 32.5195 72.9496 32.6367 73.2425 32.6953C73.5355 32.6953 73.5941 32.5781 73.4769 32.5781C73.3597 32.5781 73.0667 32.5781 72.8324 32.2852C72.5394 31.9922 71.7777 31.875 71.7777 31.875C71.7777 31.875 72.0121 31.875 72.1292 31.9336C72.2464 31.9922 72.6566 32.0508 72.9496 32.0508C73.2425 32.0508 73.3011 32.0508 73.6527 31.875C74.0042 31.7578 73.8285 31.5234 73.8285 31.5234C73.8285 31.5234 73.1839 31.5234 72.891 31.5234C72.598 31.5234 72.3636 31.5234 71.9535 31.5234C71.6019 31.5234 71.4847 31.6406 70.8988 31.6406C70.3714 31.6406 70.2542 31.6406 69.9613 31.6406C69.6683 31.6406 69.6683 31.875 69.7269 32.1094C69.7855 32.4023 70.0785 32.4023 70.3128 32.4023L70.3714 32.3438Z" fill="#8BC34A"/>
<path d="M22.2068 83.5545C16.1131 74.1209 14.0037 63.1053 15.5857 52.6756C17.1678 42.2459 22.4412 32.4022 31.1131 25.1952C39.785 17.9881 50.449 14.5897 60.9959 14.8827C71.5428 15.2342 82.031 19.2772 90.1756 27.0116L87.5975 29.7655C80.0975 22.6756 70.5467 18.9256 60.8787 18.6327C51.2107 18.3397 41.4256 21.4452 33.4568 28.0663C25.5467 34.6874 20.742 43.7108 19.2771 53.2616C17.8123 62.8124 19.7459 72.8905 25.3123 81.5623L22.1482 83.6131L22.2068 83.5545Z" fill="#DD2C00"/>
<path d="M90.5859 20.5664L92.1094 29.4141L92.4609 31.2891L90.5859 31.582L82.2656 33.0469L90.5859 20.5664Z" fill="#B71C1C"/>
<path d="M97.5 32.9297C103.945 42.7148 106.23 54.1406 104.648 64.9805C103.066 75.8203 97.6758 86.1328 88.7695 93.75C79.8047 101.309 68.7305 105 57.7734 104.707C46.7578 104.473 35.8594 100.312 27.3047 92.3438L29.8828 89.5898C37.793 96.9141 47.8125 100.723 57.8906 100.957C67.9688 101.191 78.1641 97.8516 86.4258 90.8789C94.6289 83.9062 99.6094 74.4727 101.016 64.4531C102.48 54.4922 100.371 43.9453 94.4531 34.9805L97.5586 32.9297H97.5Z" fill="#DD2C00"/>
<path d="M26.9531 99.1992L25.2539 89.9414L24.9023 88.125L26.7773 87.7734L35.4492 86.1914L26.9531 99.1992Z" fill="#B71C1C"/>
</g>
<defs>
<clipPath id="clip0_1349_28938">
<rect width="120" height="120" fill="white"/>
</clipPath>
</defs>
</svg>
