<svg width="118" height="118" viewBox="0 0 118 118" fill="none" xmlns="http://www.w3.org/2000/svg">
<g clip-path="url(#clip0_1349_28893)">
<path d="M47.707 77.668V89.3643C47.707 90.3438 52.7773 91.1504 59 91.1504C65.2227 91.1504 70.293 90.3438 70.293 89.3643V77.668H47.707Z" fill="#455A64"/>
<path d="M42.6366 89.249C41.5418 89.5371 40.9657 90.3438 41.0809 91.1504H76.9188C77.034 90.3438 76.4579 89.5947 75.3631 89.3066C70.0047 87.751 64.5887 87.002 59.1151 87.002C53.6415 87.002 48.1678 87.751 42.579 89.3066L42.6366 89.249Z" fill="#546E7A"/>
<path d="M100.772 29.3271H17.0547V71.9639H100.772V29.3271Z" fill="#0277BD"/>
<path d="M95.875 33.7061H21.8945V67.6426H95.875V33.7061Z" fill="#FFE082"/>
<path d="M16.5361 26.8496H101.464C102.443 26.8496 103.25 27.6562 103.25 28.6357V79.166C103.25 80.1455 102.443 80.9521 101.464 80.9521H16.5361C15.5566 80.9521 14.75 80.1455 14.75 79.166V28.6357C14.75 27.6562 15.5566 26.8496 16.5361 26.8496ZM99.6777 30.4219H18.3223V71.3877H99.6777V30.4219Z" fill="#78909C"/>
<path d="M99.6777 30.3643C99.7354 30.3643 99.8506 30.3066 99.8506 30.1914C99.8506 30.1338 99.793 30.0186 99.6777 30.0186H18.2646C18.207 30.0186 18.0918 30.0762 18.0918 30.1914V71.2725C18.0918 71.3301 18.1494 71.4453 18.2646 71.4453C18.3223 71.4453 18.4375 71.3877 18.4375 71.2725V30.3643H99.6777Z" fill="#455A64"/>
<path fill-rule="evenodd" clip-rule="evenodd" d="M44.1924 59.9219L40.7354 51.3369L30.249 52.6045C30.71 54.5059 31.6895 56.2344 33.0146 57.5596C34.916 59.4609 37.5088 60.6133 40.4473 60.6133C41.1387 60.6133 41.7725 60.5557 42.4639 60.4404C42.9824 60.3252 43.6738 60.0371 44.1924 59.8643V59.9219Z" fill="#00838F"/>
<path fill-rule="evenodd" clip-rule="evenodd" d="M43.9043 59.2881L43.6738 58.7695L36.2988 59.8643C36.6445 60.0371 37.0479 60.1523 37.3936 60.2676L43.9043 59.2881ZM43.4434 58.1357L43.2129 57.6172L34.5703 58.8848C34.8008 59.0576 35.0312 59.1729 35.3193 59.3457L43.4434 58.1357ZM42.9824 57.041L42.752 56.5225L33.1875 57.8477C33.3604 58.0205 33.5332 58.1934 33.7637 58.3086L42.9824 57.041ZM42.5215 55.9463L42.291 55.4277L32.2656 56.8682C32.3809 57.041 32.5537 57.2139 32.7266 57.3867L42.5215 56.0039V55.9463ZM42.0605 54.8516L41.8301 54.333L31.5166 55.7734C31.6318 55.9463 31.7471 56.1191 31.8623 56.292L42.0605 54.8516ZM41.5996 53.7568L41.3691 53.2383L30.8828 54.6787C30.9404 54.8516 31.0557 55.0244 31.1709 55.1973L41.5996 53.7568ZM41.1963 52.6621L40.9658 52.1436L30.4795 53.6416C30.5371 53.8145 30.5947 53.9873 30.6523 54.1602L41.1387 52.6621H41.1963Z" fill="#006064"/>
<path fill-rule="evenodd" clip-rule="evenodd" d="M40.5049 50.7607L30.1338 52.1436L30.0762 51.2793C30.0762 51.0488 30.0762 50.8184 30.0762 50.5303C30.0762 47.8799 31.1133 45.4023 32.957 43.5586C34.8008 41.7148 37.3359 40.6777 39.9287 40.6777C42.5791 40.6777 45.0566 41.7148 46.9004 43.5586C48.7441 45.4023 49.7812 47.9375 49.7812 50.5303C49.7812 50.876 49.7812 51.2793 49.7236 51.625L49.666 52.2012L40.4473 50.7607H40.5049Z" fill="#C51162"/>
<path fill-rule="evenodd" clip-rule="evenodd" d="M41.3691 51.4521L44.5957 59.4609C46.1514 58.7695 47.4189 57.6748 48.3408 56.292C49.0322 55.3125 49.5508 53.9297 49.7812 52.7197L41.3691 51.4521Z" fill="#8BC34A"/>
<path d="M85.5039 40.8506H83.6602V43.0977H85.5039V40.8506Z" fill="#E8C198"/>
<path d="M85.6768 41.4844C86.4834 41.7148 87.1748 42.1182 87.6934 42.6943C88.2119 43.2705 88.5 43.9619 88.5 44.7686V45.6904C88.5 45.9209 88.2695 46.0938 88.0391 46.0938H81.125C80.8369 46.0938 80.6641 45.9209 80.6641 45.6904V44.7686C80.6641 44.0195 80.9521 43.2705 81.4707 42.6943C81.9316 42.1758 82.8535 41.542 83.5449 41.4844L84.582 42.2334L85.7344 41.542L85.6768 41.4844Z" fill="#FF6E40"/>
<path d="M84.9854 42.1758H84.1787V46.0361H84.9854V42.1758Z" fill="#FF3D00"/>
<path fill-rule="evenodd" clip-rule="evenodd" d="M82.7383 38.1426H86.3105V39.6982C86.3105 40.6777 85.5039 41.4844 84.5244 41.4844C83.5449 41.4844 82.7383 40.6777 82.7383 39.6982V38.1426Z" fill="#FFE0B2"/>
<path fill-rule="evenodd" clip-rule="evenodd" d="M82.7383 39.0068C83.0264 38.9492 83.3145 38.8916 83.5449 38.7764C83.833 38.6611 84.1211 38.4307 84.3516 38.2002C84.4668 38.3154 84.582 38.4307 84.6973 38.4883C85.1582 38.8916 85.7344 39.1797 86.2529 39.3525C86.3105 39.0645 86.3682 38.834 86.3682 38.5459C86.3682 37.9121 86.1377 37.5088 85.792 37.2207C85.4463 36.9902 84.9854 36.875 84.5244 36.875C84.0059 36.875 83.6025 36.9902 83.2568 37.2207C82.9111 37.5088 82.6807 37.9121 82.6807 38.5459C82.6807 38.7188 82.6807 38.834 82.7383 39.0068Z" fill="#37474F"/>
<path fill-rule="evenodd" clip-rule="evenodd" d="M86.3105 39.0645H86.2529V39.6406L86.3105 39.5254V39.0645Z" fill="#37474F"/>
<path fill-rule="evenodd" clip-rule="evenodd" d="M82.7383 38.9492H82.7959V39.5254L82.7383 39.4102V38.9492Z" fill="#37474F"/>
<path fill-rule="evenodd" clip-rule="evenodd" d="M83.3145 40.9658L84.582 42.1758L84.1787 42.8096L82.9111 41.5996L83.3145 40.9658Z" fill="#DD2C00"/>
<path fill-rule="evenodd" clip-rule="evenodd" d="M85.792 40.9658L84.582 42.1758L84.9277 42.8096L86.1953 41.5996L85.792 40.9658Z" fill="#DD2C00"/>
<path d="M75.3633 45.8633H73.5195V48.1104H75.3633V45.8633Z" fill="#E8C198"/>
<path d="M75.5938 46.4395C76.4004 46.6699 77.0918 47.0732 77.6104 47.6494C78.1289 48.2256 78.417 48.917 78.417 49.7236V50.6455C78.417 50.876 78.1865 51.0488 77.9561 51.0488H71.042C70.7539 51.0488 70.5811 50.876 70.5811 50.6455V49.7236C70.5811 48.9746 70.8691 48.2256 71.3877 47.6494C71.8486 47.1309 72.7705 46.4971 73.4619 46.4395L74.499 47.1885L75.6514 46.4971L75.5938 46.4395Z" fill="#8BC34A"/>
<path d="M74.8447 47.1309H74.0381V50.9912H74.8447V47.1309Z" fill="#689F38"/>
<path fill-rule="evenodd" clip-rule="evenodd" d="M72.6553 43.0977H76.2275V44.6533C76.2275 45.6328 75.4209 46.4395 74.4414 46.4395C73.4619 46.4395 72.6553 45.6328 72.6553 44.6533V43.0977Z" fill="#FFE0B2"/>
<path fill-rule="evenodd" clip-rule="evenodd" d="M72.6553 43.9619C72.9434 43.9043 73.2314 43.8467 73.4619 43.7314C73.75 43.6162 74.0381 43.3857 74.2686 43.1553C74.3838 43.2705 74.499 43.3857 74.6143 43.4434C75.0752 43.8467 75.6514 44.1348 76.1699 44.3076C76.2275 44.0195 76.2852 43.7891 76.2852 43.501C76.2852 42.8672 76.0547 42.4639 75.709 42.1758C75.3633 41.9453 74.9023 41.8301 74.4414 41.8301C73.9229 41.8301 73.5195 41.9453 73.1738 42.1758C72.8281 42.4639 72.5977 42.8672 72.5977 43.501C72.5977 43.6738 72.5977 43.7891 72.6553 43.9619Z" fill="#212121"/>
<path fill-rule="evenodd" clip-rule="evenodd" d="M76.2275 44.0195H76.1123V44.5957L76.2275 44.4805V44.0195Z" fill="#212121"/>
<path fill-rule="evenodd" clip-rule="evenodd" d="M72.6553 43.9043H72.7129V44.5381L72.6553 44.4229V43.9043Z" fill="#212121"/>
<path fill-rule="evenodd" clip-rule="evenodd" d="M73.2314 45.9785L74.4414 47.1309L74.0957 47.7646L72.8281 46.6123L73.2314 45.9785Z" fill="#7CB342"/>
<path fill-rule="evenodd" clip-rule="evenodd" d="M75.709 45.9785L74.4414 47.1309L74.8447 47.7646L76.1123 46.6123L75.709 45.9785Z" fill="#7CB342"/>
<path d="M65.7412 49.2051H63.8975V51.4521H65.7412V49.2051Z" fill="#E8C198"/>
<path d="M63.667 49.7812C62.8604 50.0117 62.1689 50.415 61.6504 50.9912C61.1318 51.5674 60.8438 52.2588 60.8438 53.0654V53.9873C60.8438 54.2178 61.0742 54.3906 61.3047 54.3906H68.2188C68.5068 54.3906 68.6797 54.2178 68.6797 53.9873V53.0654C68.6797 52.3164 68.3916 51.5674 67.873 50.9912C67.4121 50.4727 66.4902 49.8389 65.7988 49.7812L64.7617 50.5303L63.6094 49.8389L63.667 49.7812Z" fill="#FFB74D"/>
<path d="M65.2227 50.4727H64.416V54.333H65.2227V50.4727Z" fill="#FFCC80"/>
<path fill-rule="evenodd" clip-rule="evenodd" d="M66.6055 46.4395H63.0332V47.9951C63.0332 48.9746 63.8398 49.7812 64.8193 49.7812C65.7988 49.7812 66.6055 48.9746 66.6055 47.9951V46.4395Z" fill="#FFE0B2"/>
<path fill-rule="evenodd" clip-rule="evenodd" d="M66.6055 47.3037C66.3174 47.2461 66.0293 47.1885 65.7988 47.0732C65.5107 46.958 65.2227 46.7275 64.9922 46.4971C64.877 46.6123 64.7617 46.7275 64.6465 46.7852C64.1855 47.1885 63.6094 47.4766 63.0908 47.6494C63.0332 47.3613 62.9756 47.1309 62.9756 46.8428C62.9756 46.209 63.2061 45.8057 63.5518 45.5176C63.8975 45.2871 64.3584 45.1719 64.8193 45.1719C65.3379 45.1719 65.7412 45.2871 66.0869 45.5176C66.4326 45.8057 66.6631 46.209 66.6631 46.8428C66.6631 47.0156 66.6631 47.1309 66.6055 47.3037Z" fill="#3B1D14"/>
<path fill-rule="evenodd" clip-rule="evenodd" d="M63.0332 47.3613H63.1484V47.9375L63.0332 47.8799V47.3613Z" fill="#3B1D14"/>
<path fill-rule="evenodd" clip-rule="evenodd" d="M66.6055 47.2461H66.5479V47.8799L66.6055 47.7646V47.2461Z" fill="#3B1D14"/>
<path fill-rule="evenodd" clip-rule="evenodd" d="M66.0293 49.3203L64.8193 50.4727L65.165 51.1064L66.4326 49.9541L66.0293 49.3203Z" fill="#FB8C00"/>
<path fill-rule="evenodd" clip-rule="evenodd" d="M63.5518 49.3203L64.8193 50.4727L64.416 51.1064L63.1484 49.9541L63.5518 49.3203Z" fill="#FB8C00"/>
<path d="M81.2979 47.7646H87.8662C88.1543 47.7646 88.3271 47.9375 88.3271 48.168V62.0537C88.3271 62.2842 88.0967 62.457 87.8662 62.457H81.2979C81.0098 62.457 80.8369 62.2842 80.8369 62.0537V48.168C80.8369 47.9375 81.0674 47.7646 81.2979 47.7646Z" fill="#FF3D00"/>
<path d="M61.4775 56.0615H68.0459C68.334 56.0615 68.5068 56.2344 68.5068 56.5225V62.2266C68.5068 62.457 68.2764 62.6875 68.0459 62.6875H61.4775C61.1895 62.6875 61.0166 62.5146 61.0166 62.2266V56.5225C61.0166 56.292 61.2471 56.0615 61.4775 56.0615Z" fill="#FFB300"/>
<path d="M71.1572 52.6045H77.7256C78.0137 52.6045 78.1865 52.8926 78.1865 53.2959V61.9961C78.1865 62.3994 77.9561 62.6875 77.7256 62.6875H71.1572C70.8691 62.6875 70.6963 62.3994 70.6963 61.9961V53.2959C70.6963 52.8926 70.9268 52.6045 71.1572 52.6045Z" fill="#43A047"/>
</g>
<defs>
<clipPath id="clip0_1349_28893">
<rect width="118" height="118" fill="white"/>
</clipPath>
</defs>
</svg>
