<svg width="90" height="90" viewBox="0 0 90 90" fill="none" xmlns="http://www.w3.org/2000/svg">
<g clip-path="url(#clip0_1349_29149)">
<path d="M45.0004 89.9964C69.8513 89.9964 89.9969 69.8508 89.9969 44.9999C89.9969 20.149 69.8513 0.00341797 45.0004 0.00341797C20.1495 0.00341797 0.00390625 20.149 0.00390625 44.9999C0.00390625 69.8508 20.1495 89.9964 45.0004 89.9964Z" fill="#8D00AF"/>
<path d="M0 44.958C0.00191181 37.9401 1.64755 31.0203 4.80507 24.7528C7.96259 18.4854 12.5442 13.0447 18.1828 8.86659C38.141 -5.94298 66.324 -1.77169 81.1336 18.183C86.3111 25.1344 89.36 33.439 89.9103 42.0892C89.0366 42.4053 88.1978 42.8105 87.4072 43.2986C83.2166 45.8896 80.0244 50.6639 75.1183 51.1103C71.7521 51.418 68.5635 49.4861 66.1359 47.1342C63.7084 44.7822 61.7642 41.9469 59.2101 39.7303C55.2853 36.3223 50.1768 34.5962 44.9894 34.9251C39.8019 35.2541 34.9523 37.6117 31.4894 41.4881C28.9986 44.2812 26.826 48.0693 23.1082 48.5193C18.0545 49.124 14.1047 42.9594 9.0457 43.4305C7.41094 43.5834 5.93086 44.4254 4.34707 44.8367C2.9265 45.2098 1.43916 45.2513 0 44.958H0Z" fill="#AA0DD1"/>
<path d="M68.4899 41.9959V62.0121C68.5079 64.7285 67.5256 67.3565 65.7301 69.3949L61.1229 74.5049C60.1831 75.5465 59.0353 76.3794 57.7537 76.9498C56.472 77.5203 55.085 77.8156 53.6821 77.8166H33.643C32.2402 77.8151 30.8533 77.5196 29.5717 76.9492C28.2901 76.3788 27.1422 75.5461 26.2022 74.5049L21.595 69.3949C19.7995 67.3565 18.8171 64.7285 18.8352 62.0121V41.9959C18.8334 39.375 20.7424 37.2656 23.1032 37.2656H24.9155C25.0664 37.2664 25.2172 37.2752 25.3672 37.292C27.5118 37.5381 29.1799 39.5508 29.1799 41.9959V43.5428H58.1364V41.9959C58.1364 39.992 59.2631 38.2764 60.8487 37.5891C61.2007 37.434 61.574 37.3327 61.9561 37.2885C62.1044 37.273 62.2534 37.2654 62.4026 37.2656H64.2149C66.5774 37.2656 68.4899 39.375 68.4899 41.9959Z" fill="#F39E22"/>
<path d="M29.1797 75.5965V76.776C28.0496 76.2168 27.0357 75.4485 26.1915 74.5119L21.5842 69.402C19.7888 67.3635 18.8064 64.7355 18.8245 62.0191V41.9959C18.8333 39.375 20.7422 37.2656 23.103 37.2656H24.9153C25.0662 37.2664 25.217 37.2752 25.367 37.292C23.219 37.5416 21.5473 39.5543 21.5473 41.9994V62.0121C21.5473 64.19 25.1684 68.5934 27.5784 71.3285C28.6131 72.5093 29.1823 74.0265 29.1797 75.5965Z" fill="#EA792E"/>
<path d="M64.3534 37.2657C62.3829 37.6823 60.85 39.6862 60.85 41.9959V47.2395C60.8503 47.5958 60.7803 47.9487 60.6441 48.278C60.5079 48.6073 60.3081 48.9065 60.0563 49.1585C59.8044 49.4106 59.5053 49.6105 59.1761 49.7469C58.8469 49.8833 58.4941 49.9535 58.1377 49.9535V41.9977C58.1342 41.1384 58.347 40.2921 58.7565 39.5367C59.3981 38.3467 60.5916 37.4362 61.9522 37.2832C62.3723 37.2393 63.9157 37.2657 64.3534 37.2657Z" fill="#EA792E"/>
<path d="M38.8371 18.1599V43.5427H29.1797V18.1599C29.1797 15.5443 31.0887 13.4243 33.4477 13.4243H34.5604C34.8291 13.4233 35.0973 13.451 35.3602 13.507C37.343 13.9218 38.8371 15.8466 38.8371 18.1599Z" fill="#F39E22"/>
<path d="M35.3672 13.507C33.3932 13.9218 31.8973 15.8449 31.8973 18.1599V47.2412C31.8975 47.598 31.8273 47.9513 31.6908 48.2809C31.5543 48.6105 31.354 48.91 31.1016 49.1621C30.8492 49.4142 30.5495 49.614 30.2197 49.7501C29.8899 49.8862 29.5365 49.9559 29.1797 49.9552V18.1599C29.1797 15.5443 31.0887 13.4244 33.4477 13.4244H34.5603C34.8315 13.4228 35.102 13.4505 35.3672 13.507Z" fill="#EA792E"/>
<path d="M48.4855 9.59415V43.5428H38.8369V9.59415C38.8369 6.98028 40.7459 4.86036 43.1031 4.86036H44.2176C44.4864 4.85985 44.7546 4.88813 45.0174 4.94473C46.9932 5.36133 48.4855 7.28438 48.4855 9.59415Z" fill="#F39E22"/>
<path d="M45.0174 4.94473C43.0434 5.35782 41.5492 7.28087 41.5492 9.59415V36.6082C41.5492 37.3276 41.2635 38.0174 40.7548 38.5261C40.2461 39.0348 39.5563 39.3205 38.8369 39.3205V9.59415C38.8369 6.98028 40.7459 4.86036 43.1031 4.86036H44.2176C44.4864 4.85985 44.7546 4.88813 45.0174 4.94473Z" fill="#EA792E"/>
<path d="M58.1357 15.6252V43.5428H48.4854V15.6252C48.4854 13.0078 50.3996 10.8984 52.7551 10.8984H53.8695C54.139 10.8979 54.4077 10.9262 54.6711 10.9828C56.6451 11.3906 58.1357 13.3154 58.1357 15.6252Z" fill="#F39E22"/>
<path d="M54.6682 10.976C52.6889 11.389 51.1965 13.3138 51.1965 15.6254V39.7074C51.196 40.4269 50.9099 41.1168 50.4009 41.6254C49.892 42.134 49.2019 42.4197 48.4824 42.4197V15.6254C48.4859 13.008 50.4002 10.8986 52.7557 10.8986H53.8701C54.1381 10.896 54.4056 10.922 54.6682 10.976Z" fill="#EA792E"/>
<path d="M38.8371 18.1599V30.505H29.1797V18.1599C29.1797 15.5443 31.0887 13.4243 33.4477 13.4243H34.5604C34.8291 13.4233 35.0973 13.451 35.3602 13.507C37.343 13.9218 38.8371 15.8466 38.8371 18.1599Z" fill="#FA4654"/>
<path d="M35.3672 13.507C33.3932 13.9218 31.8973 15.8449 31.8973 18.1599V30.505H29.1797V18.1599C29.1797 15.5443 31.0887 13.4244 33.4477 13.4244H34.5603C34.8315 13.4228 35.102 13.4505 35.3672 13.507Z" fill="#E52E44"/>
<path d="M38.835 32.3755H29.1846V35.1862H38.835V32.3755Z" fill="#FA4654"/>
<path d="M38.835 37.603H29.1846V39.3204H38.835V37.603Z" fill="#FA4654"/>
<path d="M31.8988 32.3755H29.1865V35.1862H31.8988V32.3755Z" fill="#E52E44"/>
<path d="M31.8988 37.603H29.1865V39.3204H31.8988V37.603Z" fill="#E52E44"/>
<path d="M48.4855 9.59415V21.9445H38.8369V9.59415C38.8369 6.98028 40.7459 4.86036 43.1031 4.86036H44.2176C44.4864 4.85985 44.7546 4.88813 45.0174 4.94473C46.9932 5.36133 48.4855 7.28438 48.4855 9.59415Z" fill="#FA4654"/>
<path d="M45.0174 4.94473C43.0434 5.35782 41.5492 7.28087 41.5492 9.59415V21.9445H38.8369V9.59415C38.8369 6.98028 40.7459 4.86036 43.1031 4.86036H44.2176C44.4864 4.85985 44.7546 4.88813 45.0174 4.94473Z" fill="#E52E44"/>
<path d="M48.4873 23.8149H38.8369V26.6257H48.4873V23.8149Z" fill="#FA4654"/>
<path d="M48.4873 29.041H38.8369V30.7584H48.4873V29.041Z" fill="#FA4654"/>
<path d="M38.8375 26.624H41.5498V23.8133H38.8375V26.624Z" fill="#E52E44"/>
<path d="M38.8375 30.7598H41.5498V29.0424H38.8375V30.7598Z" fill="#E52E44"/>
<path d="M58.1357 15.6252V27.9492H48.4854V15.6252C48.4854 13.0078 50.3996 10.8984 52.7551 10.8984H53.8695C54.139 10.8979 54.4077 10.9262 54.6711 10.9828C56.6451 11.3906 58.1357 13.3154 58.1357 15.6252Z" fill="#FA4654"/>
<path d="M54.6676 10.976C52.6883 11.389 51.1959 13.3138 51.1959 15.6254V27.9494H48.4854V15.6254C48.4854 13.008 50.3996 10.8986 52.7551 10.8986H53.8695C54.1375 10.896 54.4051 10.922 54.6676 10.976Z" fill="#E52E44"/>
<path d="M58.1377 29.8193H48.4873V32.6301H58.1377V29.8193Z" fill="#FA4654"/>
<path d="M58.1377 35.0454H48.4873V36.7628H58.1377V35.0454Z" fill="#FA4654"/>
<path d="M48.4861 32.6284H51.2002V29.8177H48.4861V32.6284Z" fill="#E52E44"/>
<path d="M48.4861 36.7627H51.2002V35.0453H48.4861V36.7627Z" fill="#E52E44"/>
<path d="M38.4342 43.0454H35.3914C34.6283 43.0454 34.0098 43.664 34.0098 44.427C34.0098 45.1901 34.6283 45.8087 35.3914 45.8087H38.4342C39.1972 45.8087 39.8158 45.1901 39.8158 44.427C39.8158 43.664 39.1972 43.0454 38.4342 43.0454Z" fill="#FA4654"/>
<path d="M45.0439 41.7023V38.6595C45.0439 37.8964 44.4254 37.2778 43.6623 37.2778C42.8992 37.2778 42.2807 37.8964 42.2807 38.6595V41.7023C42.2807 42.4653 42.8992 43.0839 43.6623 43.0839C44.4254 43.0839 45.0439 42.4653 45.0439 41.7023Z" fill="#FA4654"/>
<path d="M51.9313 43.0454H48.8885C48.1254 43.0454 47.5068 43.664 47.5068 44.427C47.5068 45.1901 48.1254 45.8087 48.8885 45.8087H51.9313C52.6943 45.8087 53.3129 45.1901 53.3129 44.427C53.3129 43.664 52.6943 43.0454 51.9313 43.0454Z" fill="#FA4654"/>
<path d="M60.0897 59.7131L59.1123 60.6904L59.0912 60.7098L56.6813 63.1197C54.9716 64.8295 52.9419 66.1858 50.708 67.1111C48.4742 68.0365 46.0799 68.5127 43.662 68.5127C41.2441 68.5127 38.8499 68.0365 36.616 67.1111C34.3821 66.1858 32.3524 64.8295 30.6428 63.1197L27.2344 59.7131L29.6654 57.282L30.6428 56.3029C34.0958 52.8503 38.7789 50.9106 43.662 50.9106C48.5451 50.9106 53.2282 52.8503 56.6813 56.3029L60.0897 59.7131Z" fill="#E52E44"/>
<path d="M60.0894 59.7131L59.1121 60.6904L59.091 60.7098C55.6365 64.1533 50.9568 66.0853 46.0792 66.0817C41.2016 66.0781 36.5247 64.1391 33.0754 60.6904L29.667 57.282L30.6443 56.3029C34.0974 52.8503 38.7805 50.9106 43.6636 50.9106C48.5466 50.9106 53.2297 52.8503 56.6828 56.3029L60.0894 59.7131Z" fill="#FA4654"/>
<path d="M53.4721 58.5896L52.8867 59.175L52.8744 59.1855L51.4348 60.6252C50.4139 61.6461 49.202 62.456 47.8681 63.0085C46.5342 63.5611 45.1046 63.8455 43.6608 63.8455C42.2171 63.8455 40.7874 63.5611 39.4536 63.0085C38.1197 62.456 36.9078 61.6461 35.8869 60.6252L33.8496 58.5896L35.3016 57.1377L35.8869 56.5541C36.9076 55.5329 38.1196 54.7228 39.4534 54.1702C40.7873 53.6175 42.217 53.333 43.6608 53.333C45.1047 53.333 46.5344 53.6175 47.8682 54.1702C49.2021 54.7228 50.414 55.5329 51.4348 56.5541L53.4721 58.5896Z" fill="white"/>
<path d="M47.5069 58.4962C47.5062 59.3611 47.214 60.2005 46.6776 60.8789C46.1411 61.5573 45.3916 62.0351 44.5502 62.2351C44.2589 62.3052 43.9604 62.3406 43.6608 62.3405C42.6412 62.3405 41.6633 61.9355 40.9424 61.2146C40.2214 60.4936 39.8164 59.5158 39.8164 58.4962C39.8164 57.4766 40.2214 56.4988 40.9424 55.7778C41.6633 55.0569 42.6412 54.6519 43.6608 54.6519C43.9603 54.6512 44.2589 54.686 44.5502 54.7556C45.3918 54.9559 46.1413 55.4341 46.6777 56.1128C47.2142 56.7914 47.5063 57.6311 47.5069 58.4962Z" fill="#EA792E"/>
<path d="M47.506 58.4965C47.5054 59.3614 47.2132 60.2008 46.6768 60.8792C46.1403 61.5576 45.3908 62.0353 44.5494 62.2353C43.707 62.0364 42.9564 61.5589 42.4192 60.8802C41.8821 60.2014 41.5898 59.3612 41.5898 58.4956C41.5898 57.63 41.8821 56.7898 42.4192 56.111C42.9564 55.4323 43.707 54.9548 44.5494 54.7559C45.391 54.9562 46.1405 55.4343 46.6769 56.113C47.2134 56.7917 47.5055 57.6314 47.506 58.4965Z" fill="#F39E22"/>
<path d="M46.004 58.4968C46.0053 59.0248 45.8283 59.5377 45.5015 59.9525C45.1748 60.3673 44.7176 60.6596 44.204 60.782C44.0261 60.8245 43.8438 60.8457 43.6608 60.8452C43.0507 60.8285 42.4712 60.5744 42.0456 60.137C41.62 59.6995 41.3818 59.1133 41.3818 58.5029C41.3818 57.8926 41.62 57.3064 42.0456 56.8689C42.4712 56.4315 43.0507 56.1774 43.6608 56.1607C43.8438 56.1601 44.0261 56.1814 44.204 56.2239C44.7156 56.3458 45.1712 56.6363 45.4977 57.0485C45.8242 57.4608 46.0025 57.9709 46.004 58.4968Z" fill="#334353"/>
<path d="M23.4634 61.0331C23.3161 61.0334 23.1702 61.0045 23.0341 60.9481C22.898 60.8917 22.7745 60.8088 22.6706 60.7044L22.472 60.5057C22.2629 60.2956 22.1455 60.0112 22.1455 59.7147C22.1455 59.4183 22.2629 59.1339 22.472 58.9237L22.6706 58.7251C22.8321 58.6113 23.0178 58.5366 23.2132 58.507C23.4085 58.4774 23.608 58.4937 23.7959 58.5546C23.9839 58.6155 24.1551 58.7193 24.2959 58.8577C24.4368 58.9962 24.5435 59.1656 24.6076 59.3525C24.6717 59.5393 24.6914 59.7385 24.6652 59.9343C24.6389 60.1301 24.5675 60.3171 24.4565 60.4805C24.3455 60.6439 24.1979 60.7792 24.0256 60.8758C23.8532 60.9723 23.6607 61.0273 23.4634 61.0366V61.0331Z" fill="#14A36D"/>
<path d="M46.0637 72.3077C45.7792 72.304 45.5067 72.1924 45.3013 71.9955C45.0958 71.7987 44.9727 71.5312 44.9569 71.2471C44.941 70.963 45.0336 70.6834 45.2159 70.465C45.3982 70.2465 45.6566 70.1053 45.9389 70.07C46.1147 70.0489 46.3045 70.026 46.4856 70.0014C46.7746 69.9728 47.0634 70.0571 47.2915 70.2368C47.5197 70.4165 47.6693 70.6776 47.7091 70.9653C47.7489 71.2529 47.6757 71.5448 47.505 71.7797C47.3342 72.0146 47.0791 72.1742 46.7932 72.2251C46.5928 72.2514 46.3924 72.2778 46.1903 72.3006C46.1481 72.3042 46.1059 72.3077 46.0637 72.3077ZM41.2543 72.3077C41.2122 72.3103 41.1699 72.3103 41.1278 72.3077C40.9256 72.2848 40.7252 72.2602 40.5249 72.2321C40.379 72.2118 40.2385 72.1629 40.1115 72.0883C39.9845 72.0137 39.8734 71.9148 39.7846 71.7973C39.6958 71.6798 39.631 71.5459 39.594 71.4034C39.5569 71.2608 39.5483 71.1123 39.5686 70.9665C39.5889 70.8206 39.6378 70.6801 39.7124 70.5531C39.787 70.4261 39.8858 70.315 40.0034 70.2262C40.1209 70.1374 40.2548 70.0726 40.3973 70.0356C40.5399 69.9985 40.6883 69.9899 40.8342 70.0102C41.01 70.0348 41.1963 70.0577 41.3774 70.077C41.6655 70.1048 41.9318 70.2428 42.1204 70.4624C42.3091 70.6819 42.4056 70.9659 42.3897 71.2549C42.3738 71.5439 42.2467 71.8156 42.0351 72.0131C41.8236 72.2107 41.5438 72.3187 41.2543 72.3147V72.3077ZM51.2985 71.0333C51.036 71.0342 50.7815 70.9431 50.5793 70.7757C50.377 70.6083 50.2399 70.3753 50.1919 70.1173C50.1438 69.8592 50.1877 69.5925 50.316 69.3635C50.4444 69.1345 50.649 68.9578 50.8942 68.8641C51.07 68.7991 51.2334 68.7305 51.4022 68.6602C51.6768 68.5455 51.9857 68.5446 52.261 68.6577C52.5362 68.7708 52.7553 68.9885 52.87 69.2631C52.9847 69.5377 52.9856 69.8466 52.8725 70.1219C52.7594 70.3972 52.5416 70.6162 52.267 70.7309C52.079 70.81 51.8909 70.8856 51.701 70.9577C51.5725 71.0068 51.4361 71.0319 51.2985 71.0315V71.0333ZM36.0231 71.0333C35.8848 71.0331 35.7478 71.0075 35.6188 70.9577C35.429 70.8856 35.2409 70.81 35.0528 70.7309C34.9168 70.6741 34.7934 70.5911 34.6895 70.4866C34.5856 70.3821 34.5033 70.2582 34.4473 70.1219C34.3913 69.9856 34.3628 69.8396 34.3632 69.6923C34.3636 69.5449 34.3931 69.3991 34.4499 69.2631C34.5645 68.9885 34.7836 68.7708 35.0589 68.6577C35.1952 68.6017 35.3412 68.5731 35.4885 68.5735C35.6358 68.574 35.7817 68.6034 35.9176 68.6602C36.0934 68.7305 36.2551 68.7991 36.4256 68.8641C36.6707 68.9577 36.8752 69.1343 37.0036 69.3631C37.1319 69.5919 37.176 69.8585 37.1281 70.1164C37.0803 70.3743 36.9435 70.6073 36.7416 70.7749C36.5397 70.9424 36.2854 71.0338 36.0231 71.0333ZM56.0323 68.4668C55.7944 68.4682 55.5623 68.3939 55.3695 68.2546C55.1767 68.1154 55.0331 67.9184 54.9595 67.6923C54.886 67.4661 54.8862 67.2224 54.9602 66.9963C55.0343 66.7703 55.1782 66.5737 55.3713 66.4348C55.519 66.3276 55.6649 66.2204 55.8108 66.1079C55.9279 66.0185 56.0615 65.9531 56.204 65.9154C56.3464 65.8777 56.4948 65.8685 56.6408 65.8881C56.7868 65.9078 56.9275 65.956 57.0549 66.0301C57.1823 66.1041 57.2938 66.2025 57.3832 66.3197C57.4725 66.4368 57.5379 66.5704 57.5756 66.7128C57.6133 66.8553 57.6226 67.0037 57.6029 67.1497C57.5832 67.2957 57.535 67.4364 57.4609 67.5638C57.3869 67.6912 57.2885 67.8027 57.1713 67.892C57.0096 68.0168 56.8479 68.1364 56.6827 68.2559C56.4932 68.3923 56.2658 68.4661 56.0323 68.4668ZM31.2875 68.4668C31.0521 68.4665 30.8227 68.3921 30.6319 68.2542C30.4667 68.137 30.3032 68.0157 30.1415 67.8903C29.9176 67.7053 29.7741 67.4408 29.7411 67.1523C29.7081 66.8637 29.7881 66.5737 29.9643 66.3428C30.1405 66.112 30.3993 65.9585 30.6863 65.9143C30.9734 65.8702 31.2663 65.9389 31.5038 66.1061C31.6497 66.2168 31.7956 66.3258 31.9432 66.4331C32.1347 66.5722 32.2774 66.7682 32.3509 66.9932C32.4243 67.2182 32.4249 67.4606 32.3523 67.6859C32.2798 67.9113 32.138 68.1079 31.9471 68.2478C31.7562 68.3877 31.526 68.4638 31.2893 68.4651L31.2875 68.4668ZM60.0348 64.8633C59.8131 64.8627 59.5965 64.7966 59.4123 64.6731C59.2281 64.5496 59.0846 64.3744 58.9999 64.1695C58.9151 63.9647 58.8928 63.7393 58.9359 63.5218C58.979 63.3043 59.0855 63.1044 59.242 62.9473L59.6498 62.5395C59.7507 62.4232 59.8745 62.3289 60.0134 62.2625C60.1523 62.1961 60.3034 62.159 60.4573 62.1535C60.6112 62.1481 60.7645 62.1744 60.9078 62.2308C61.0511 62.2871 61.1812 62.3724 61.2901 62.4813C61.3989 62.5902 61.4842 62.7203 61.5406 62.8636C61.597 63.0069 61.6233 63.1602 61.6178 63.3141C61.6124 63.468 61.5753 63.6191 61.5089 63.758C61.4425 63.8969 61.3482 64.0206 61.2319 64.1215L60.8241 64.5311C60.7208 64.6356 60.5979 64.7188 60.4625 64.7758C60.3271 64.8328 60.1817 64.8625 60.0348 64.8633ZM27.2833 64.8633C27.136 64.8636 26.9901 64.8346 26.854 64.7782C26.7179 64.7218 26.5944 64.639 26.4905 64.5346L26.0809 64.125C25.9013 63.9097 25.8088 63.635 25.8215 63.355C25.8341 63.0749 25.9511 62.8097 26.1493 62.6114C26.3476 62.4132 26.6128 62.2962 26.8929 62.2836C27.1729 62.2709 27.4476 62.3634 27.6629 62.543L28.0708 62.9526C28.2281 63.1093 28.3354 63.3093 28.379 63.5271C28.4225 63.7448 28.4005 63.9707 28.3156 64.1759C28.2306 64.3811 28.0867 64.5565 27.902 64.6798C27.7173 64.8032 27.5001 64.8689 27.278 64.8686L27.2833 64.8633Z" fill="#14A36D"/>
<path d="M63.8575 61.0332C63.6518 61.0331 63.4492 60.9838 63.2664 60.8896C63.0836 60.7953 62.9259 60.6588 62.8065 60.4914C62.6871 60.3239 62.6094 60.1304 62.5798 59.9269C62.5503 59.7234 62.5697 59.5157 62.6366 59.3212C62.7034 59.1268 62.8157 58.951 62.9642 58.8087C63.1126 58.6663 63.2929 58.5615 63.49 58.5029C63.6871 58.4442 63.8954 58.4335 64.0975 58.4715C64.2996 58.5096 64.4897 58.5954 64.652 58.7217L64.8506 58.9186C65.0593 59.1289 65.1764 59.4133 65.1764 59.7096C65.1764 60.0059 65.0593 60.2902 64.8506 60.5006L64.652 60.6992C64.5483 60.8047 64.4246 60.8885 64.2882 60.9459C64.1518 61.0032 64.0054 61.0329 63.8575 61.0332Z" fill="#14A36D"/>
<path d="M60.4491 57.2271C60.1512 57.227 59.8655 57.1088 59.6546 56.8984L59.2468 56.4888C59.0609 56.2745 58.9632 55.9977 58.9732 55.7142C58.9833 55.4307 59.1004 55.1616 59.301 54.961C59.5016 54.7604 59.7707 54.6433 60.0542 54.6332C60.3377 54.6231 60.6145 54.7209 60.8288 54.9068L61.2384 55.3163C61.3949 55.4734 61.5014 55.6733 61.5445 55.8908C61.5876 56.1083 61.5654 56.3337 61.4806 56.5386C61.3958 56.7434 61.2523 56.9186 61.0681 57.0421C60.8839 57.1656 60.6674 57.2318 60.4456 57.2323L60.4491 57.2271ZM26.8749 57.2271C26.6532 57.227 26.4364 57.1612 26.2521 57.0379C26.0678 56.9147 25.9241 56.7396 25.8392 56.5347C25.7544 56.3298 25.7322 56.1044 25.7754 55.8869C25.8187 55.6694 25.9254 55.4697 26.0821 55.3128L26.4917 54.9032C26.706 54.7174 26.9828 54.6196 27.2663 54.6297C27.5498 54.6397 27.819 54.7569 28.0195 54.9574C28.2201 55.158 28.3373 55.4272 28.3473 55.7107C28.3574 55.9942 28.2596 56.271 28.0737 56.4853L27.6642 56.8948C27.4552 57.1036 27.1721 57.2211 26.8767 57.2218L26.8749 57.2271ZM56.4976 53.5532C56.2516 53.5539 56.0123 53.4729 55.8173 53.323C55.6732 53.2122 55.5255 53.1032 55.3779 52.996C55.2557 52.911 55.1517 52.8025 55.0719 52.6769C54.9922 52.5512 54.9382 52.411 54.9131 52.2643C54.8881 52.1176 54.8925 51.9674 54.9261 51.8224C54.9597 51.6775 55.0218 51.5406 55.1089 51.4199C55.1959 51.2992 55.306 51.197 55.433 51.1192C55.5599 51.0415 55.701 50.9898 55.8481 50.9672C55.9952 50.9446 56.1453 50.9514 56.2897 50.9874C56.4341 51.0234 56.5699 51.0877 56.6892 51.1767C56.8544 51.2945 57.0179 51.4158 57.1796 51.5388C57.3657 51.6816 57.5025 51.879 57.5707 52.1035C57.6389 52.3279 57.6351 52.568 57.5599 52.7902C57.4846 53.0124 57.3417 53.2054 57.1512 53.3423C56.9607 53.4791 56.7321 53.5529 56.4976 53.5532ZM30.8335 53.5532C30.5989 53.5529 30.3704 53.4791 30.1799 53.3423C29.9894 53.2054 29.8465 53.0124 29.7712 52.7902C29.696 52.568 29.6922 52.3279 29.7604 52.1035C29.8286 51.879 29.9654 51.6816 30.1515 51.5388C30.3132 51.414 30.4767 51.2945 30.6402 51.1749C30.8821 51.013 31.1774 50.9513 31.464 51.0029C31.7505 51.0544 32.0058 51.2153 32.1761 51.4514C32.3464 51.6875 32.4183 51.9806 32.3767 52.2687C32.3351 52.5569 32.1833 52.8176 31.9532 52.996C31.8056 53.1032 31.6579 53.2122 31.5138 53.323C31.3155 53.4711 31.0739 53.5495 30.8265 53.5462L30.8335 53.5532ZM51.8376 50.8532C51.6892 50.8531 51.5423 50.8238 51.4052 50.7671C51.2294 50.6968 51.0677 50.6282 50.8972 50.5632C50.6287 50.4496 50.4148 50.2361 50.3009 49.9677C50.187 49.6993 50.1818 49.3972 50.2866 49.1251C50.3914 48.853 50.5978 48.6323 50.8623 48.5097C51.1268 48.3871 51.4287 48.3721 51.704 48.4679C51.8939 48.5417 52.082 48.6173 52.27 48.6947C52.5088 48.7951 52.7056 48.975 52.8269 49.2039C52.9482 49.4328 52.9867 49.6966 52.9358 49.9506C52.885 50.2047 52.7478 50.4333 52.5477 50.5978C52.3475 50.7623 52.0967 50.8525 51.8376 50.8532ZM35.49 50.8532C35.2292 50.8549 34.976 50.7658 34.7738 50.6012C34.5716 50.4366 34.4329 50.2068 34.3816 49.9512C34.3302 49.6955 34.3694 49.43 34.4925 49.2001C34.6155 48.9702 34.8146 48.7903 35.0558 48.6911C35.2421 48.612 35.4319 48.5365 35.6218 48.4644C35.8994 48.3574 36.2082 48.3651 36.4801 48.4857C36.7521 48.6064 36.965 48.8301 37.072 49.1077C37.179 49.3854 37.1713 49.6941 37.0507 49.9661C36.93 50.238 36.7063 50.4509 36.4286 50.5579C36.2529 50.623 36.0894 50.6915 35.9206 50.7618C35.784 50.8209 35.637 50.852 35.4882 50.8532H35.49ZM46.6468 49.4329C46.5939 49.4329 46.541 49.4293 46.4886 49.4224C46.3128 49.3978 46.137 49.3749 45.9472 49.3538C45.8007 49.3376 45.6589 49.2926 45.5298 49.2215C45.4007 49.1504 45.2869 49.0546 45.1948 48.9395C45.1028 48.8245 45.0343 48.6924 44.9933 48.5508C44.9522 48.4093 44.9395 48.261 44.9558 48.1146C44.9721 47.9681 45.017 47.8263 45.0881 47.6972C45.1592 47.5681 45.255 47.4543 45.3701 47.3622C45.6025 47.1763 45.8992 47.0903 46.195 47.1232C46.3972 47.146 46.5993 47.1724 46.7997 47.2005C47.0811 47.2394 47.3373 47.3836 47.5165 47.604C47.6957 47.8245 47.7846 48.1047 47.7651 48.3881C47.7457 48.6715 47.6195 48.937 47.4119 49.1309C47.2043 49.3249 46.9309 49.4328 46.6468 49.4329ZM40.6825 49.4329C40.4001 49.4298 40.1292 49.3204 39.9238 49.1264C39.7184 48.9325 39.5936 48.6683 39.5743 48.3865C39.555 48.1046 39.6426 47.8259 39.8197 47.6058C39.9967 47.3857 40.2502 47.2403 40.5296 47.1988C40.73 47.1706 40.9321 47.146 41.1343 47.1232C41.2808 47.1068 41.429 47.1194 41.5706 47.1603C41.7122 47.2012 41.8444 47.2696 41.9595 47.3616C42.0747 47.4536 42.1706 47.5673 42.2418 47.6964C42.313 47.8254 42.358 47.9672 42.3744 48.1137C42.3908 48.2602 42.3782 48.4084 42.3373 48.55C42.2964 48.6916 42.228 48.8238 42.136 48.9389C42.044 49.0541 41.9303 49.15 41.8012 49.2212C41.6722 49.2924 41.5304 49.3374 41.3839 49.3538C41.2081 49.3749 41.02 49.3978 40.839 49.4224C40.7866 49.4295 40.7337 49.4331 40.6808 49.4329H40.6825Z" fill="#14A36D"/>
<path d="M43.6625 76.9217C44.7382 76.9217 45.6102 76.0497 45.6102 74.974C45.6102 73.8984 44.7382 73.0264 43.6625 73.0264C42.5868 73.0264 41.7148 73.8984 41.7148 74.974C41.7148 76.0497 42.5868 76.9217 43.6625 76.9217Z" fill="#FA4654"/>
<path d="M52.082 74.9744H54.5799C55.4319 74.9744 56.2756 74.8066 57.0628 74.4806C57.85 74.1546 58.5653 73.6767 59.1678 73.0742L61.1717 71.0633C61.2946 70.9417 61.3712 70.781 61.388 70.6089C61.4048 70.4368 61.3609 70.2643 61.2637 70.1213C61.1666 69.9782 61.0225 69.8737 60.8564 69.8258C60.6903 69.7779 60.5126 69.7897 60.3543 69.8592L51.7832 73.5506C51.6255 73.618 51.496 73.738 51.4168 73.8901C51.3376 74.0423 51.3136 74.2171 51.3488 74.385C51.3841 74.5529 51.4764 74.7033 51.61 74.8108C51.7437 74.9182 51.9105 74.9761 52.082 74.9744Z" fill="#14A36D"/>
<path d="M35.2419 74.9741H32.7423C31.0219 74.9725 29.3722 74.2892 28.1544 73.074L26.1452 71.063C26.0614 70.9816 25.9982 70.8814 25.9607 70.7707C25.9233 70.66 25.9127 70.542 25.9299 70.4265C25.947 70.3109 25.9915 70.201 26.0595 70.106C26.1275 70.011 26.2171 69.9335 26.321 69.88C26.4181 69.8264 26.5266 69.7965 26.6375 69.7929C26.7484 69.7892 26.8586 69.8118 26.9591 69.8589L35.5302 73.5503C35.687 73.6174 35.816 73.7365 35.8953 73.8875C35.9746 74.0386 35.9994 74.2124 35.9655 74.3796C35.9317 74.5468 35.8412 74.6972 35.7094 74.8055C35.5776 74.9138 35.4125 74.9734 35.2419 74.9741Z" fill="#14A36D"/>
<path d="M28.9032 73.7154C28.6377 73.5209 28.3873 73.3064 28.1544 73.0738L26.1452 71.0629C26.0614 70.9815 25.9982 70.8813 25.9607 70.7706C25.9233 70.6599 25.9127 70.5419 25.9299 70.4263C25.947 70.3107 25.9915 70.2009 26.0595 70.1059C26.1275 70.0109 26.2171 69.9334 26.321 69.8799C26.7552 70.3967 27.1788 70.8871 27.5726 71.3318C28.1824 72.0214 28.6363 72.8344 28.9032 73.7154Z" fill="#50755C"/>
<path d="M66.6072 43.0453C66.6072 43.6965 66.4141 44.333 66.0524 44.8745C65.6906 45.4159 65.1764 45.8379 64.5748 46.0871C63.9732 46.3363 63.3112 46.4015 62.6725 46.2744C62.0339 46.1474 61.4472 45.8338 60.9868 45.3734C60.5263 44.9129 60.2128 44.3263 60.0857 43.6876C59.9587 43.049 60.0239 42.387 60.2731 41.7854C60.5223 41.1838 60.9443 40.6696 61.4857 40.3078C62.0271 39.946 62.6637 39.7529 63.3148 39.7529C63.7473 39.7527 64.1755 39.8377 64.5751 40.0031C64.9746 40.1685 65.3377 40.411 65.6434 40.7167C65.9492 41.0225 66.1917 41.3855 66.3571 41.7851C66.5225 42.1847 66.6075 42.6129 66.6072 43.0453Z" fill="#FA4654"/>
<path d="M61.0208 40.6826C60.9058 41.1115 60.8467 41.5534 60.845 41.9975V45.2301C60.2828 44.5954 59.9873 43.7683 60.02 42.9211C60.0528 42.0739 60.4113 41.272 61.0208 40.6826Z" fill="#E52E44"/>
<path d="M64.1077 48.0356H65.2344C65.5985 48.0356 65.9477 48.1803 66.2052 48.4377C66.4626 48.6952 66.6073 49.0444 66.6073 49.4085V55.5099C66.6076 55.6477 66.5665 55.7825 66.4893 55.8968C66.4122 56.011 66.3026 56.0995 66.1746 56.1508C66.0466 56.2021 65.9062 56.2139 65.7715 56.1845C65.6368 56.1552 65.514 56.0861 65.419 55.9862L61.9578 52.3827C61.7524 52.1683 61.622 51.8932 61.5862 51.5984C61.5504 51.3037 61.6111 51.0053 61.7592 50.748L62.9176 48.7317C63.0372 48.5213 63.2103 48.3462 63.4192 48.224C63.6281 48.1017 63.8656 48.0368 64.1077 48.0356Z" fill="#14A36D"/>
<path d="M27.3043 43.0453C27.3054 43.8062 27.0433 44.5442 26.5625 45.1339C26.0816 45.7237 25.4116 46.129 24.666 46.2812C23.9204 46.4333 23.1451 46.3229 22.4716 45.9687C21.7981 45.6145 21.2678 45.0382 20.9707 44.3377C20.6736 43.6371 20.6279 42.8553 20.8414 42.1249C21.0549 41.3945 21.5144 40.7604 22.1421 40.3302C22.7697 39.8999 23.5269 39.7 24.2851 39.7642C25.0434 39.8285 25.7561 40.153 26.3023 40.6828C26.6194 40.9891 26.8715 41.3562 27.0437 41.7621C27.2158 42.168 27.3044 42.6044 27.3043 43.0453Z" fill="#FA4654"/>
<path d="M25.3648 52.3827L21.9037 55.9863C21.81 56.0873 21.6871 56.1567 21.5521 56.1849C21.4517 56.2061 21.3478 56.2046 21.2481 56.1805C21.1483 56.1564 21.0551 56.1103 20.9755 56.0457C20.8958 55.981 20.8315 55.8993 20.7875 55.8066C20.7434 55.7139 20.7206 55.6125 20.7207 55.5099V49.4085C20.7205 49.1401 20.7992 48.8775 20.947 48.6534C21.0948 48.4293 21.3053 48.2536 21.5521 48.1482C21.7233 48.0731 21.9084 48.0347 22.0953 48.0357H23.2203C23.4617 48.0357 23.6989 48.0995 23.9078 48.2205C24.1168 48.3414 24.2901 48.5154 24.4104 48.7247L25.5705 50.7409C25.7189 50.9999 25.779 51.3001 25.7419 51.5962C25.7048 51.8923 25.5725 52.1684 25.3648 52.3827Z" fill="#14A36D"/>
<path d="M21.5473 48.1479V56.1847C21.4468 56.2059 21.3429 56.2044 21.2432 56.1803C21.1434 56.1562 21.0503 56.1101 20.9706 56.0454C20.8909 55.9807 20.8267 55.8991 20.7826 55.8064C20.7385 55.7137 20.7157 55.6123 20.7158 55.5097V49.4083C20.7156 49.1398 20.7943 48.8773 20.9421 48.6532C21.09 48.4291 21.3004 48.2534 21.5473 48.1479Z" fill="#50755C"/>
<path d="M21.7125 40.6865C21.6026 41.1144 21.5471 41.5544 21.5473 41.9961V45.2322C20.9843 44.599 20.6872 43.773 20.718 42.9262C20.7488 42.0795 21.105 41.2772 21.7125 40.6865Z" fill="#E52E44"/>
</g>
<defs>
<clipPath id="clip0_1349_29149">
<rect width="90" height="90" fill="white"/>
</clipPath>
</defs>
</svg>
