<svg width="162" height="464" viewBox="0 0 162 464" fill="none" xmlns="http://www.w3.org/2000/svg">
<path fill-rule="evenodd" clip-rule="evenodd" d="M197.358 2.17636C244.131 10.5229 271.544 56.3444 305.618 89.4679C334.126 117.181 371.055 140.462 379.571 179.305C387.822 216.936 358.03 250.38 349.117 287.86C339.033 330.265 352.718 380.133 324.017 412.929C293.505 447.795 243.546 457.753 197.358 461.272C148.219 465.017 88.0284 470.709 55.8574 433.363C23.225 395.483 57.9873 336.141 47.4525 287.257C38.6403 246.367 -1.57553 216.196 0.0477861 174.398C1.92091 126.168 20.5026 76.811 56.858 45.0782C94.6798 12.0655 147.943 -6.64139 197.358 2.17636Z" fill="#FFF966"/>
</svg>
