<svg width="31" height="26" viewBox="0 0 31 26" fill="none" xmlns="http://www.w3.org/2000/svg">
<path d="M30.504 20.016C30.504 21.616 29.896 22.992 28.68 24.144C27.528 25.232 26.056 25.776 24.264 25.776C22.28 25.776 20.616 25.072 19.272 23.664C17.928 22.256 17.256 20.24 17.256 17.616C17.256 12.432 18.568 8.43203 21.192 5.61603C23.88 2.73603 26.824 1.13603 30.024 0.816032V5.32803C27.976 5.77603 26.28 6.92803 24.936 8.78403C23.592 10.64 22.888 12.592 22.824 14.64C23.272 14.32 23.912 14.16 24.744 14.16C26.408 14.16 27.784 14.704 28.872 15.792C29.96 16.816 30.504 18.224 30.504 20.016ZM14.088 20.016C14.088 21.616 13.48 22.992 12.264 24.144C11.112 25.232 9.64 25.776 7.848 25.776C5.864 25.776 4.2 25.072 2.856 23.664C1.512 22.256 0.84 20.24 0.84 17.616C0.84 12.432 2.152 8.43203 4.776 5.61603C7.464 2.73603 10.408 1.13603 13.608 0.816032V5.32803C11.56 5.77603 9.864 6.92803 8.52 8.78403C7.176 10.64 6.472 12.592 6.408 14.64C6.92 14.32 7.56 14.16 8.328 14.16C9.992 14.16 11.368 14.704 12.456 15.792C13.544 16.816 14.088 18.224 14.088 20.016Z" fill="#D3DEEC"/>
</svg>
